<svg id="로고" xmlns="http://www.w3.org/2000/svg" xmlns:xlink="http://www.w3.org/1999/xlink" width="60" height="32" viewBox="0 0 60 32">
  <defs>
    <linearGradient id="linear-gradient" x2="1" y2="1" gradientUnits="objectBoundingBox">
      <stop offset="0" stop-color="#d2d7ff"/>
      <stop offset="1" stop-color="#aad7ff"/>
    </linearGradient>
    <linearGradient id="linear-gradient-2" x1="0.5" x2="0.5" y2="1" gradientUnits="objectBoundingBox">
      <stop offset="0" stop-color="#fdfdfd"/>
      <stop offset="1" stop-color="#7f7f7f"/>
    </linearGradient>
  </defs>
  <rect id="사각형_25695" data-name="사각형 25695" width="60" height="30" transform="translate(0 1)" fill="none"/>
  <g id="그룹_21338" data-name="그룹 21338" transform="translate(-11427 -2947)">
    <g id="구성_요소_49_13" data-name="구성 요소 49 – 13" transform="translate(11427 2947)">
      <rect id="사각형_25694" data-name="사각형 25694" width="60" height="32" fill="none"/>
      <g id="확장_로고컬러" transform="translate(5.261 3.799)">
        <path id="합치기_23" data-name="합치기 23" d="M36.226,22.434a2.356,2.356,0,0,1,.013-.245v-3.46H29.828a1.755,1.755,0,0,1-1.909-1.841,1.76,1.76,0,0,1,1.909-1.864H47.287A1.749,1.749,0,0,1,49.2,16.888a1.745,1.745,0,0,1-1.909,1.841H40.876v3.46a2.3,2.3,0,0,1,.014.245,2.332,2.332,0,1,1-4.664,0Zm-17.391-.208V3.085a2.132,2.132,0,0,1,2.25-2.2,2.145,2.145,0,0,1,2.25,2.2V8.837l1.456,0h0a1.974,1.974,0,0,1,0,3.948l-1.456,0s.018,9.341.018,9.434a2.259,2.259,0,1,1-4.517,0ZM2.821,14.683a7,7,0,0,1,.15-1.444,7.231,7.231,0,0,1,.217-.8,7.108,7.108,0,0,1,.289-.725l.8.8a1.975,1.975,0,0,0,2.58.183l.445-.334a3.493,3.493,0,0,0-.739,1.3,3.423,3.423,0,0,0-.146.786c0,.078-.008.157-.008.236a3.465,3.465,0,0,0,3.461,3.461c.068,0,.134,0,.2-.006.018,0,.036,0,.054,0,.049,0,.1-.008.148-.014l.054-.008c.052-.007.1-.014.154-.024l.04-.008c.063-.013.127-.026.189-.042a3.46,3.46,0,0,0,.266-6.635l3.131-2.35a7.038,7.038,0,0,1,2.814,5.628h0a7.062,7.062,0,0,1-5.657,6.911h-.007c-.1.019-.194.036-.292.052l-.044.007c-.112.017-.227.031-.342.043l-.037,0c-.1.011-.209.019-.314.024s-.238.01-.358.01A7.059,7.059,0,0,1,2.821,14.683Zm29.758-.717c-2.66,0-3.671-1.385-3.671-3.72V9.954c0-2.334,1.011-3.745,3.671-3.745H42.695a.518.518,0,0,0,.5-.535c0-.268-.068-.584-.522-.584H30.442A1.632,1.632,0,0,1,28.9,3.34a1.633,1.633,0,0,1,1.546-1.7H44.354c2.773,0,3.21,1.362,3.21,3.4v2c-.025,1.355-.7,2.445-1.97,2.445l-11.4,0c-.409,0-.614.146-.614.511v.146c0,.39.2.487.614.487H46.011a1.525,1.525,0,0,1,1.546,1.677,1.519,1.519,0,0,1-1.546,1.653Zm-28.3-1.451-.8-.8-2.9-2.9A1.974,1.974,0,0,1,3.371,6.023l2.49,2.489,7.895-5.924a1.973,1.973,0,0,1,2.764.395v0a1.974,1.974,0,0,1-.393,2.764L12.773,8.259l-4.4,3.306-1.065.8-.445.334a1.975,1.975,0,0,1-2.58-.183Zm.087-8.657V1.914a1.914,1.914,0,1,1,3.829,0V3.858a1.914,1.914,0,1,1-3.829,0Z" fill="url(#linear-gradient)"/>
        <path id="패스_9113" data-name="패스 9113" d="M134.814,220.99l-.054.007Z" transform="translate(-124.485 -202.877)" fill="url(#linear-gradient-2)"/>
        <path id="패스_9114" data-name="패스 9114" d="M136.539,220.73l-.039.007Z" transform="translate(-126.017 -202.648)" fill="url(#linear-gradient-2)"/>
        <path id="패스_9115" data-name="패스 9115" d="M134.683,250.98c-.1.01-.208.018-.313.024C134.475,251,134.579,250.99,134.683,250.98Z" transform="translate(-124.142 -229.279)" fill="url(#linear-gradient-2)"/>
        <path id="패스_9116" data-name="패스 9116" d="M133.124,221.16c-.018,0-.036,0-.054,0C133.088,221.164,133.106,221.161,133.124,221.16Z" transform="translate(-122.997 -203.027)" fill="url(#linear-gradient-2)"/>
        <path id="패스_9117" data-name="패스 9117" d="M131.748,251.17c-.118.006-.237.01-.358.01C131.51,251.18,131.629,251.176,131.748,251.17Z" transform="translate(-121.518 -229.446)" fill="url(#linear-gradient-2)"/>
        <path id="패스_9118" data-name="패스 9118" d="M137.029,220.38c-.062.016-.126.029-.189.042C136.9,220.41,136.967,220.4,137.029,220.38Z" transform="translate(-126.316 -202.34)" fill="url(#linear-gradient-2)"/>
        <path id="패스_9119" data-name="패스 9119" d="M131.591,221.2c-.067,0-.133.006-.2.006C131.457,221.206,131.524,221.2,131.591,221.2Z" transform="translate(-121.518 -203.062)" fill="url(#linear-gradient-2)"/>
        <path id="패스_9120" data-name="패스 9120" d="M133.678,221.05c-.049.006-.1.011-.148.014C133.58,221.061,133.629,221.056,133.678,221.05Z" transform="translate(-123.402 -202.93)" fill="url(#linear-gradient-2)"/>
        <path id="패스_9121" data-name="패스 9121" d="M137.027,250.95l-.037,0Z" transform="translate(-126.448 -229.253)" fill="url(#linear-gradient-2)"/>
        <path id="패스_9122" data-name="패스 9122" d="M135.374,220.79c-.051.01-.1.017-.154.024C135.271,220.807,135.323,220.8,135.374,220.79Z" transform="translate(-124.89 -202.701)" fill="url(#linear-gradient-2)"/>
      </g>
    </g>
  </g>
</svg>
