<svg id="로고" xmlns="http://www.w3.org/2000/svg" width="43.703" height="22" viewBox="0 0 43.703 22">
  <g id="로고-13" transform="translate(-48.88 -75.45)">
    <path id="패스_8731" data-name="패스 8731" d="M291.973,99.378h12.783a1.383,1.383,0,0,0,0-2.767H293.407c-.363,0-.545-.081-.545-.4v-.121c0-.3.182-.424.545-.424l10.128,0a2.071,2.071,0,0,0,2.069-2.03V91.967c0-1.7-.707-2.827-3.171-2.827H290.075a1.435,1.435,0,0,0,0,2.868H300.94c.4,0,.464.263.464.485v.444h-9.431c-2.363,0-3.473,1.171-3.473,3.11v.242C288.5,98.227,289.611,99.378,291.973,99.378Z" transform="translate(-214.152 -12.235)" fill="#191919"/>
    <path id="패스_8732" data-name="패스 8732" d="M299.435,201.01H283.926a1.647,1.647,0,1,0,0,3.292h5.695v3.074a2.128,2.128,0,0,0-.012.218,2.072,2.072,0,0,0,4.143,0,2.112,2.112,0,0,0-.012-.218V204.3h5.695a1.647,1.647,0,1,0,0-3.292Z" transform="translate(-208.548 -112.215)" fill="#191919"/>
    <path id="패스_8733" data-name="패스 8733" d="M211.6,89.872h-.534c-.031,0-.061,0-.092,0h-.666V84.759a2,2,0,0,0-4,0v17a2.007,2.007,0,1,0,4-.241V93.382h.666l.038,0h.588a1.754,1.754,0,1,0,0-3.507Z" transform="translate(-140.698 -6.569)" fill="#191919"/>
    <path id="패스_8734" data-name="패스 8734" d="M87.071,80.577a1.7,1.7,0,0,0,1.7-1.7V77.151a1.7,1.7,0,1,0-3.4,0v1.726A1.7,1.7,0,0,0,87.071,80.577Z" transform="translate(-32.612)" fill="#191919"/>
    <path id="패스_8735" data-name="패스 8735" d="M134.808,226.83l-.048.006Z" transform="translate(-76.752 -135.291)" fill="#191919"/>
    <path id="패스_8736" data-name="패스 8736" d="M136.535,226.57l-.035.006Z" transform="translate(-78.307 -135.058)" fill="#191919"/>
    <path id="패스_8737" data-name="패스 8737" d="M134.648,256.82c-.092.008-.185.016-.278.021C134.464,256.837,134.556,256.828,134.648,256.82Z" transform="translate(-76.404 -162.093)" fill="#191919"/>
    <path id="패스_8738" data-name="패스 8738" d="M133.118,227.01c-.016,0-.032,0-.048,0C133.086,227.013,133.1,227.011,133.118,227.01Z" transform="translate(-75.242 -135.451)" fill="#191919"/>
    <path id="패스_8739" data-name="패스 8739" d="M117.33,147.393c.052-.03.106-.056.16-.083l3.912-2.937-.031-.014Z" transform="translate(-61.175 -61.586)" fill="#191919"/>
    <path id="패스_8740" data-name="패스 8740" d="M131.708,257.02c-.105.005-.21.009-.318.009C131.5,257.029,131.6,257.025,131.708,257.02Z" transform="translate(-73.74 -162.272)" fill="#191919"/>
    <path id="패스_8741" data-name="패스 8741" d="M137.008,226.23c-.055.014-.112.026-.168.037C136.9,226.257,136.953,226.244,137.008,226.23Z" transform="translate(-78.611 -134.754)" fill="#191919"/>
    <path id="패스_8742" data-name="패스 8742" d="M131.569,227.04c-.06,0-.118.005-.179.005C131.45,227.045,131.509,227.043,131.569,227.04Z" transform="translate(-73.74 -135.478)" fill="#191919"/>
    <path id="패스_8743" data-name="패스 8743" d="M133.662,226.89c-.044.005-.088.01-.132.013C133.575,226.9,133.618,226.9,133.662,226.89Z" transform="translate(-75.653 -135.344)" fill="#191919"/>
    <path id="패스_8744" data-name="패스 8744" d="M137.023,256.8l-.033,0Z" transform="translate(-78.745 -162.075)" fill="#191919"/>
    <path id="패스_8745" data-name="패스 8745" d="M135.357,226.63c-.046.008-.091.015-.137.021C135.266,226.645,135.311,226.638,135.357,226.63Z" transform="translate(-77.163 -135.112)" fill="#191919"/>
    <path id="패스_8746" data-name="패스 8746" d="M63.555,94.471a1.754,1.754,0,0,0-2.455-.351l-7.014,5.263-2.212-2.212a1.754,1.754,0,0,0-2.481,2.48l2.576,2.576.711.711a1.754,1.754,0,0,0,2.293.163l.4-.3.946-.71c-.054.027-.107.054-.16.083L60.2,99.145l.031.014L63.2,96.925a1.753,1.753,0,0,0,.35-2.455Z" transform="translate(0 -16.373)" fill="#191919"/>
    <path id="패스_8747" data-name="패스 8747" d="M84.987,156.13a6.252,6.252,0,0,0-2.5-5l-2.781,2.087a3.073,3.073,0,0,1-.236,5.895c-.055.014-.112.026-.168.037l-.035.006c-.046.009-.091.015-.137.021l-.048.006c-.044.005-.088.01-.132.013-.016,0-.032,0-.048,0-.06,0-.118.005-.179.005a3.079,3.079,0,0,1-3.075-3.075c0-.07,0-.14.007-.209a3.037,3.037,0,0,1,.13-.7,3.094,3.094,0,0,1,.657-1.151l-.4.3a1.754,1.754,0,0,1-2.293-.163l-.711-.711a6.162,6.162,0,0,0-.257.644,6.337,6.337,0,0,0-.193.709,6.263,6.263,0,0,0,6.131,7.546c.106,0,.213,0,.318-.008s.186-.012.278-.021l.033,0c.1-.011.2-.023.3-.038l.039-.006c.087-.014.173-.029.259-.046h.006a6.273,6.273,0,0,0,5.025-6.139Z" transform="translate(-21.074 -67.636)" fill="#191919"/>
  </g>
</svg>
