<?xml version="1.0" encoding="UTF-8"?><svg id="_레이어_2" xmlns="http://www.w3.org/2000/svg" viewBox="0 0 581.1 311.81"><defs><style>.cls-1{fill:#fdfdfd;}</style></defs><path class="cls-1" d="m326.47,80.32c0-6.91,4.94-14.23,12.92-14.23h116.28c23.18,0,26.83,11.38,26.83,28.45v16.74c-.21,11.32-5.84,20.43-16.47,20.43l-95.29.02c-3.42,0-5.13,1.22-5.13,4.27v1.22c0,3.25,1.71,4.07,5.13,4.07h98.78c9.31,0,12.92,7.52,12.92,14.02s-3.8,13.82-12.92,13.82h-112.27c-22.23,0-30.68-11.58-30.68-31.09v-2.44c0-19.51,8.45-31.3,30.68-31.3h84.55c2.31,0,4.18-2,4.18-4.47,0-2.24-.57-4.88-4.37-4.88h-102.22c-7.98,0-12.92-7.11-12.92-14.63Zm153.71,97.65h-145.92c-11.59,0-15.96,7.98-15.96,15.58s4.56,15.39,15.96,15.39h53.58v28.92c-.07.68-.11,1.36-.11,2.05,0,10.76,8.73,19.49,19.49,19.49s19.49-8.73,19.49-19.49c0-.69-.04-1.38-.11-2.05v-28.92h53.58c11.4,0,15.96-7.6,15.96-15.39s-4.37-15.58-15.96-15.58Zm-188.02-51.67l-12.17-.04v-48.07c0-11.97-9.12-18.43-18.81-18.43s-18.81,6.27-18.81,18.43v159.98c0,10.43,8.46,18.89,18.89,18.89s18.88-8.46,18.88-18.89c0-.77-.15-78.85-.15-78.85l12.17-.02c9.11,0,16.5-7.39,16.5-16.5s-7.39-16.5-16.5-16.5Zm-154.72-25.66c8.84,0,16-7.16,16-16v-16.24c0-8.84-7.16-16-16-16s-16,7.16-16,16v16.24c0,8.84,7.16,16,16,16Zm88.95,74.48c0,28.51-20.35,52.34-47.28,57.76h0s-.04.01-.06.01c-.81.16-1.62.3-2.44.43-.12.02-.25.04-.37.06-.95.14-1.9.26-2.86.36-.1.01-.21.01-.31.02-.87.08-1.74.15-2.62.2-.99.05-1.98.08-2.99.08-32.49,0-58.93-26.43-58.93-58.93,0-4.14.44-8.17,1.25-12.07.48-2.27,1.08-4.5,1.82-6.67.7-2.07,1.51-4.1,2.42-6.06l-24.24-24.24c-6.44-6.44-6.44-16.89,0-23.33,3.22-3.22,7.45-4.83,11.67-4.83s8.44,1.61,11.67,4.83l20.81,20.81,65.99-49.52c2.97-2.23,6.44-3.3,9.89-3.3,5.02,0,9.97,2.28,13.21,6.6,5.47,7.29,4,17.63-3.29,23.1l-28.01,21.02-36.81,27.63-8.9,6.68h0c-2.79,3.08-4.92,6.76-6.18,10.83-.65,2.1-1.06,4.3-1.22,6.57-.04.65-.07,1.31-.07,1.97,0,15.95,12.98,28.93,28.93,28.93.56,0,1.12-.02,1.68-.05.15,0,.3-.02.45-.03.42-.03.83-.07,1.24-.12.15-.02.3-.04.45-.06.43-.06.86-.12,1.29-.2.11-.02.22-.04.33-.06.53-.1,1.06-.22,1.58-.35,12.57-3.15,21.91-14.53,21.91-28.06,0-12.72-8.25-23.54-19.69-27.4l26.17-19.64c14.27,10.76,23.52,27.84,23.52,47.04Z"/></svg>