<svg xmlns="http://www.w3.org/2000/svg" width="16" height="16" viewBox="0 0 16 16">
  <g id="그룹_20368" data-name="그룹 20368" transform="translate(-15025 -744)">
    <g id="그룹_18938" data-name="그룹 18938">
      <line id="선_90" data-name="선 90" y2="1.351" transform="translate(15032.94 756.002)" fill="none" stroke="#767676" stroke-linecap="round" stroke-width="0.7"/>
      <line id="선_76" data-name="선 76" y2="1.351" transform="translate(15032.94 746.091)" fill="none" stroke="#767676" stroke-linecap="round" stroke-width="0.7"/>
      <line id="선_77" data-name="선 77" x2="1.171" y2="0.675" transform="translate(15028.063 748.907)" fill="none" stroke="#767676" stroke-linecap="round" stroke-width="0.7"/>
      <line id="선_78" data-name="선 78" y1="0.675" x2="1.171" transform="translate(15028.063 753.862)" fill="none" stroke="#767676" stroke-linecap="round" stroke-width="0.7"/>
      <line id="선_80" data-name="선 80" x1="1.171" y1="0.675" transform="translate(15036.646 753.862)" fill="none" stroke="#767676" stroke-linecap="round" stroke-width="0.7"/>
      <line id="선_81" data-name="선 81" x1="1.171" y2="0.675" transform="translate(15036.646 748.907)" fill="none" stroke="#767676" stroke-linecap="round" stroke-width="0.7"/>
      <path id="패스_7747" data-name="패스 7747" d="M207.47,238.07a1.124,1.124,0,0,0,1.3.277" transform="translate(14824.649 514.836)" fill="none" stroke="#767676" stroke-linecap="round" stroke-width="0.7"/>
      <path id="패스_7748" data-name="패스 7748" d="M189.826,170.5a8.35,8.35,0,0,0-1.737-.9c-1.08-.5-2.173-1.074-2.173-1.074s-.052,1.231-.156,2.419a8.307,8.307,0,0,0-.085,1.957,2.458,2.458,0,1,0,4.152-2.4Z" transform="translate(14845.049 579.83)" fill="none" stroke="#767676" stroke-linejoin="round" stroke-width="0.7"/>
    </g>
    <rect id="사각형_24261" data-name="사각형 24261" width="16" height="16" transform="translate(15025 744)" fill="none" opacity="0.5"/>
  </g>
</svg>
