<svg id="구성_요소_21_17" data-name="구성 요소 21 – 17" xmlns="http://www.w3.org/2000/svg" xmlns:xlink="http://www.w3.org/1999/xlink" width="28" height="28" viewBox="0 0 28 28">
  <defs>
    <linearGradient id="linear-gradient" x1="0.5" x2="0.5" y2="1" gradientUnits="objectBoundingBox">
      <stop offset="0" stop-color="#9fa9ff"/>
      <stop offset="1" stop-color="#15afff"/>
    </linearGradient>
  </defs>
  <g id="그룹_20346" data-name="그룹 20346" transform="translate(0.706 1.465)">
    <g id="그룹_18838" data-name="그룹 18838">
      <path id="아이콘ᄎ_종-02" data-name="아이콘최종-02" d="M193.6,181.372a8.644,8.644,0,1,0,2.532,6.112A8.588,8.588,0,0,0,193.6,181.372Zm-.9,11.323a7.369,7.369,0,1,1,0-10.421,7.471,7.471,0,0,1,.832.99l-7.7,6.813-3.028-4-1.017.769,3.859,5.1,8.535-7.553a7.381,7.381,0,0,1-1.482,8.3Z" transform="translate(-174.546 -175.305)" fill="url(#linear-gradient)"/>
    </g>
  </g>
  <rect id="사각형_25076" data-name="사각형 25076" width="28" height="28" fill="none" opacity="0.5"/>
</svg>
