<svg xmlns="http://www.w3.org/2000/svg" xmlns:xlink="http://www.w3.org/1999/xlink" width="214.003" height="191.862" viewBox="0 0 214.003 191.862">
  <defs>
    <radialGradient id="radial-gradient" cx="0.5" cy="0.5" r="0.395" gradientTransform="translate(-0.508) scale(2.016 1)" gradientUnits="objectBoundingBox">
      <stop offset="0" stop-color="#aad7ff"/>
      <stop offset="1" stop-color="#d2d7ff"/>
    </radialGradient>
    <radialGradient id="radial-gradient-2" cx="0.5" cy="0.5" r="0.457" gradientTransform="translate(-0.111) scale(1.222 1)" xlink:href="#radial-gradient"/>
  </defs>
  <g id="그룹_21413" data-name="그룹 21413" transform="translate(-11027.436 903.543)">
    <path id="패스_8765" data-name="패스 8765" d="M334.689,158.419s6.435,7.981,6.916,10.145,1.2,7.546-5.891,9.315S322.557,173,322.557,173c-3.206,1.317-8.027,1.191-8.027,1.191l3.372-.155a9.86,9.86,0,0,1-.979,5.8c-1.494,2.428-9.664,5.88-14.64-.744-3.533-4.7-7.111-20.537-11.886-22.106-7.42-2.433-11.229-5.3-12.489-8.165a6.289,6.289,0,0,1-.281-3.7,4.906,4.906,0,0,1,1.984-2.7c2.691-1.58,6.492.132,6.492.132l44.772,4.706s9.057-.515,11.336.865c4.346,2.634,4.254,8.485-.309,10.586s-11.393-2.313-11.393-2.313" transform="translate(10881.325 -1005.369)" fill="#d2d7ff" stroke="#577aca" stroke-linecap="round" stroke-linejoin="round" stroke-width="2"/>
    <path id="패스_8766" data-name="패스 8766" d="M221.246,286.6s2.491-1.632,3.933.332c1.8,2.45,3.71,9.046-5.067,16.552a29.743,29.743,0,0,1-4.512,2.971v.023c-1.311.693-2.548,1.351-3.647,2.01-3.315,1.992-5.983,3.006-7.935,3.195l-8.262,2.771-1.076-15.35.7-.2A49.731,49.731,0,0,0,215.3,287.767c1.781-1.626,3.55-2.817,4.746-2.571,0,0,2.817,1.374-.229,4.443" transform="translate(10916.984 -1066.923)" fill="#fff" stroke="#577aca" stroke-linecap="round" stroke-linejoin="round" stroke-width="2"/>
    <path id="패스_8767" data-name="패스 8767" d="M312.29,160.331s5.594,5.662,13.7,5.468,12.865-7.695,13.46-8.038l-27.155,2.571Z" transform="translate(10866.71 -1012.462)" fill="#aad7ff" stroke="#577aca" stroke-linecap="round" stroke-linejoin="round" stroke-width="2"/>
    <path id="패스_8768" data-name="패스 8768" d="M386.04,180.687s1.008-2.777,2.691-2.851,4.941-.389,5.17-1" transform="translate(10835.185 -1020.618)" fill="none" stroke="#577aca" stroke-linecap="round" stroke-linejoin="round" stroke-width="2"/>
    <path id="패스_8769" data-name="패스 8769" d="M403.769,164.852l1.483,3a.724.724,0,0,0,.538.4l3.315.481a.716.716,0,0,1,.4,1.225l-2.4,2.336a.71.71,0,0,0-.206.636l.567,3.3a.718.718,0,0,1-1.042.756l-2.966-1.557a.728.728,0,0,0-.67,0l-2.966,1.557a.719.719,0,0,1-1.042-.756l.567-3.3a.725.725,0,0,0-.206-.636l-2.4-2.336a.72.72,0,0,1,.4-1.225l3.315-.481a.714.714,0,0,0,.538-.4l1.483-3a.719.719,0,0,1,1.288,0Z" transform="translate(10830.703 -1015.323)" fill="#aad7ff" stroke="#577aca" stroke-linecap="round" stroke-linejoin="round" stroke-width="2"/>
    <path id="패스_8771" data-name="패스 8771" d="M299.648,77.783c8.136-3.79,17.525-4.311,22.512-2.7s16,6.109,18.544,17.382c3.241,14.382,0,23.159-10.724,28.581-10.844,5.485-27.905,10.787-39.631-5.393s-.538-33.3,9.3-37.879Z" transform="translate(10878.235 -976.754)" fill="#d2d7ff" stroke="#577aca" stroke-linecap="round" stroke-linejoin="round" stroke-width="2"/>
    <path id="패스_8772" data-name="패스 8772" d="M292.78,122.815s.1,12.871,7.609,18.384c0,0,15.212,5.416,27.751,1.351a2.073,2.073,0,0,0,1.586-2.313c-.761-3.945-2.788-13.832-4.122-15.023-1.678-1.494-32.669-3.664-32.743-3.029l-.08.636Z" transform="translate(10875.05 -997.207)" fill="#fff" stroke="#577aca" stroke-linecap="round" stroke-linejoin="round" stroke-width="2"/>
    <path id="패스_8773" data-name="패스 8773" d="M301.79,127.31a7.071,7.071,0,0,0,3.51,2.8" transform="translate(10871.198 -999.446)" fill="none" stroke="#577aca" stroke-linecap="round" stroke-linejoin="round" stroke-width="2"/>
    <path id="패스_8774" data-name="패스 8774" d="M322.49,151.159l1.283-1.569,2.216,1.569Z" transform="translate(10862.35 -1008.97)" fill="none" stroke="#577aca" stroke-linecap="round" stroke-linejoin="round" stroke-width="2"/>
    <path id="패스_8775" data-name="패스 8775" d="M233.79,198.366a93.853,93.853,0,0,1,8.4,6.853c3.435,3.16,14.13,14.222,7.489,23.9-2.508,3.653-8.216,5.078-11.027,5.571L233.79,198.36Z" transform="translate(10900.266 -1029.818)" fill="url(#radial-gradient)"/>
    <path id="패스_8776" data-name="패스 8776" d="M234.386,199.55c1.529,1.214,3.235,2.645,4.987,4.26,3.178,2.926,13.1,13.122,7.237,21.665-1.655,2.41-5.279,3.8-8.153,4.494l-4.071-30.419m-4.466-7.46,5.605,41.875s10.025-.876,13.918-6.544c6.573-9.578-1.5-20.4-7.741-26.136a89.368,89.368,0,0,0-11.777-9.189h0Z" transform="translate(10901.92 -1027.137)" fill="#fff"/>
    <path id="패스_8777" data-name="패스 8777" d="M229.916,192.08a89.367,89.367,0,0,1,11.777,9.189c6.241,5.737,14.319,16.558,7.741,26.136-3.893,5.668-8.639,4.775-8.639,4.775l-10.884-40.1Z" transform="translate(10901.925 -1027.133)" fill="none" stroke="#577aca" stroke-linecap="round" stroke-linejoin="round" stroke-width="2"/>
    <path id="패스_8778" data-name="패스 8778" d="M162.581,239.036a26.076,26.076,0,0,0,11.84-24.338c-.034-.332-.074-.67-.115-1.008-1.781-13.632-3.429-27.419-14.336-37.369a39.957,39.957,0,0,0-9.309-6.16,56.923,56.923,0,0,0-39.425-3.733,46.48,46.48,0,0,0-5.084,1.6c-12.275,4.723-16.8,6.7-21.041,12.281,0,0-10.454,22.357-10.088,38.9.487,21.773,16.489,24.212,19.38,24.974a28.536,28.536,0,0,0,5.914.75l1.838-.074s-10.288-.3-21.487,7.328c-4.683,3.195-8.136,8.376-3.332,13.042s10.323,6.784,15.882,2.3c3.143-2.536,7.254-5.456,7.254-5.456l-1.941,1.471s-.269,7.517,0,10.42l-.12-5.7c-4.231,2.262-4.357,7.821-4.357,7.821s-2.164,9.487,9.292,12.189,15.155-2.445,15.911-6.252l.011-.074a17.292,17.292,0,0,0,11.886.355l-2.382.55a82.016,82.016,0,0,1-4.323,11.565c-.733,1.46,1.534,4.128,5.136,5.857s13.689,4.889,18.292-1.088,5.582-19.031,5.4-26.491c-.177-7.048-.435-9.836-.664-11.9-.515-4.592-1.889-13.993-1.889-13.993l11.869-7.752Z" transform="translate(10968.138 -1015.353)" fill="#fff" stroke="#577aca" stroke-linecap="round" stroke-linejoin="round" stroke-width="2"/>
    <path id="패스_8779" data-name="패스 8779" d="M137.593,209.86s-7.271,1.214-9.893,6.281" transform="translate(10945.616 -1034.733)" fill="none" stroke="#577aca" stroke-linecap="round" stroke-linejoin="round" stroke-width="2"/>
    <path id="패스_8780" data-name="패스 8780" d="M217.7,208.74s5.571.521,7.592,4.889" transform="translate(10907.144 -1034.255)" fill="none" stroke="#577aca" stroke-linecap="round" stroke-linejoin="round" stroke-width="2"/>
    <g id="그룹_21177" data-name="그룹 21177" transform="translate(11076.187 -866.556)">
      <ellipse id="타원_419" data-name="타원 419" cx="1.62" cy="2.548" rx="1.62" ry="2.548" transform="matrix(0.992, -0.125, 0.125, 0.992, 99.139, 0.406)" fill="#577aca" stroke="#577aca" stroke-linecap="round" stroke-linejoin="round" stroke-width="2"/>
      <ellipse id="타원_420" data-name="타원 420" cx="1.626" cy="2.542" rx="1.626" ry="2.542" transform="translate(115.912 2.229) rotate(-13.15)" fill="#577aca" stroke="#577aca" stroke-linecap="round" stroke-linejoin="round" stroke-width="2"/>
      <path id="패스_8781" data-name="패스 8781" d="M140.109,227.91c2.943.023,2.651,7.643.235,9.332s-5.41,1.912-7.054-.292.636-6.149,1.792-7.237c1.408-1.323,2.273-1.821,5.021-1.8Z" transform="translate(-132.714 -175.892)" fill="#577aca"/>
      <path id="패스_8782" data-name="패스 8782" d="M217.083,225.435a2.569,2.569,0,0,0-3.1,2.9c0,.023.011.046.011.074.492,2.45.87,4.826,4.763,5.9s4.409-3.006,3.807-4.8a6.584,6.584,0,0,0-3.985-3.653,11.729,11.729,0,0,0-1.5-.418Z" transform="translate(-167.436 -174.809)" fill="#577aca"/>
      <path id="패스_8783" data-name="패스 8783" d="M184.839,241.549a3.644,3.644,0,0,1,4.918-.544c1.391,1.191.149,2.153-1.907,2.422S183.768,243.026,184.839,241.549Z" transform="translate(-154.87 -181.184)" fill="#577aca"/>
    </g>
    <path id="패스_8784" data-name="패스 8784" d="M178.046,259.172c.9-1.838,10.758-1.987,11.554-.435,1.4,2.742-3.75,6.029-6.962,5.662-3.584-.406-5.857-2.639-4.592-5.233Z" transform="translate(10924.245 -1055.172)" fill="none" stroke="#577aca" stroke-linecap="round" stroke-linejoin="round" stroke-width="2"/>
    <path id="패스_8785" data-name="패스 8785" d="M64.608,230.529a14.514,14.514,0,0,1-6.836-1.678,9.823,9.823,0,0,1-5.233-6.876c-.824-4.036.6-8.691,3.893-12.762,8.078-9.974,17.039-12.876,20.514-13.661a1.063,1.063,0,0,1,.189-.023.9.9,0,0,1,.819.561,40.447,40.447,0,0,1,2.834,9.876,32.475,32.475,0,0,1-3.315,17.291c-2.021,4.283-7.311,7.271-12.865,7.271h0Z" transform="translate(10977.843 -1028.608)" fill="url(#radial-gradient-2)"/>
    <path id="패스_8786" data-name="패스 8786" d="M76.056,195.93h0m-.693.166a37.28,37.28,0,0,1,2.45,8.76,30.781,30.781,0,0,1-3.16,16.369c-1.718,3.641-6.481,6.286-11.313,6.286a12.754,12.754,0,0,1-6.035-1.483,8.154,8.154,0,0,1-4.351-5.7c-.721-3.533.573-7.666,3.55-11.342,7.248-8.943,15.172-11.943,18.865-12.9m.5-3.584a2.728,2.728,0,0,0-.567.063c-4.048.916-13.18,4.019-21.47,14.256-6.618,8.17-5.9,18.126,1.866,22.237a16.294,16.294,0,0,0,7.638,1.878c6.269,0,12.161-3.464,14.422-8.256a34.342,34.342,0,0,0,3.47-18.212,42.03,42.03,0,0,0-2.954-10.346,2.614,2.614,0,0,0-2.4-1.62Z" transform="translate(10979.116 -1027.313)" fill="#fff"/>
    <path id="패스_8787" data-name="패스 8787" d="M78.268,194.15a2.6,2.6,0,0,0-2.971-1.557c-4.048.916-13.18,4.019-21.47,14.256-6.618,8.17-5.9,18.126,1.872,22.237,8.491,4.489,18.876.366,22.06-6.378a34.342,34.342,0,0,0,3.47-18.212,42.03,42.03,0,0,0-2.954-10.346Z" transform="translate(10979.12 -1027.325)" fill="none" stroke="#577aca" stroke-linecap="round" stroke-linejoin="round" stroke-width="2"/>
  </g>
</svg>
