<svg xmlns="http://www.w3.org/2000/svg" xmlns:xlink="http://www.w3.org/1999/xlink" width="123.247" height="183.302" viewBox="0 0 123.247 183.302">
  <defs>
    <radialGradient id="radial-gradient" cx="0.5" cy="0.5" r="0.376" gradientUnits="objectBoundingBox">
      <stop offset="0" stop-color="#aad7ff"/>
      <stop offset="1" stop-color="#d2d7ff"/>
    </radialGradient>
    <radialGradient id="radial-gradient-2" cx="0.5" cy="0.5" r="0.425" xlink:href="#radial-gradient"/>
  </defs>
  <g id="그룹_21324" data-name="그룹 21324" transform="translate(-131.546 -523.052)">
    <g id="그룹_21323" data-name="그룹 21323" transform="translate(32.308 47)">
      <g id="그룹_21194" data-name="그룹 21194" transform="translate(100.336 389.1)">
        <g id="캐릭터_포즈2" transform="translate(0 0)">
          <path id="패스_8949" data-name="패스 8949" d="M208.7,197.9c9.727,9.412,11.227,17.422,11.451,19.8.8,8.348-7.592,11.05-11.474,11.851L208.7,197.9Z" transform="translate(-100.777 -33.333)" fill="url(#radial-gradient)"/>
          <path id="패스_8950" data-name="패스 8950" d="M209.132,199.313c5.307,6.08,7.661,11.811,8.027,15.659.223,2.313-.057,5.68-4.992,8.222a19.128,19.128,0,0,1-3.052,1.231l.017-25.117M205.7,191.12l-.023,37.547s16.088-1.563,14.9-14.027c-.532-5.554-4.414-14.571-14.88-23.52h0Z" transform="translate(-99.494 -30.435)" fill="#fff"/>
          <path id="패스_8951" data-name="패스 8951" d="M205.676,228.677s16.088-1.563,14.9-14.027c-.532-5.554-4.414-14.571-14.88-23.52l-.023,37.547Z" transform="translate(-99.49 -30.439)" fill="none" stroke="#577aca" stroke-linecap="round" stroke-linejoin="round" stroke-width="2"/>
          <path id="패스_8952" data-name="패스 8952" d="M105.748,280.232s8.611,1.592,12.836,1.6,9.006-.492,10.042-8.834c1.437-11.525-11.605-9.584-11.605-9.584,5.222-.069,7.437-3.092,8.285-6.052.538-1.884,2.6-7.145-6.023-17.766h.006s16.569-3.023,22.369-15.659c4.781-10.4,4.649-40.57-10.506-56.16-13.334-15.2-37.255-15.109-53.457-11.067-10.334,2.576-19.042,8.319-22.564,11.64-9.561,9.012-10.5,16.374-10.5,16.374l5.336,39.264a24.7,24.7,0,0,0,7.449,8.588c2.41,1.615,6.47,4.054,15.493,6.252l.887.767s-5.244,6.922-5.393,28.5c0,.59.006,1.179.034,1.763l-.034-.023c2.2,6.458,7.145,11.531,14.353,12.647,9.779,1.511,18.922,3.492,22.815-2.886l.177.635Z" transform="translate(-30.651 -14.739)" fill="#fff" stroke="#577aca" stroke-linecap="round" stroke-linejoin="round" stroke-width="2"/>
          <g id="그룹_21185" data-name="그룹 21185" transform="translate(48.675 189.196)">
            <path id="패스_8964" data-name="패스 8964" d="M114.935,242.72c.9.9-.71,7.941-3.5,8.187s-5.536-.95-6.132-3.487,2.777-4.512,4.139-5.13C110.984,241.592,113.5,241.277,114.935,242.72Z" transform="translate(-105.23 -241.253)" fill="#577aca"/>
            <path id="패스_8965" data-name="패스 8965" d="M189.724,240.919c-2.067-.1-1.071,9.063,3.55,9.533s4.512-4.174,3.441-6.023C194.671,240.914,190.314,240.948,189.724,240.919Z" transform="translate(-140.91 -240.918)" fill="#577aca"/>
            <path id="패스_8966" data-name="패스 8966" d="M156.511,257.6a3.64,3.64,0,0,1,4.935-.384c1.357,1.237.08,2.153-1.987,2.359S155.394,259.048,156.511,257.6Z" transform="translate(-127.014 -247.55)" fill="#577aca"/>
          </g>
          <path id="패스_8967" data-name="패스 8967" d="M108.09,230.338s6.092-.3,9.269-4.758" transform="translate(-57.778 -45.166)" fill="none" stroke="#577aca" stroke-linecap="round" stroke-linejoin="round" stroke-width="2"/>
          <path id="패스_8968" data-name="패스 8968" d="M197.2,230.378s-5.668-1.8-7.855-5.038" transform="translate(-92.509 -45.063)" fill="none" stroke="#577aca" stroke-linecap="round" stroke-linejoin="round" stroke-width="2"/>
          <ellipse id="타원_625" data-name="타원 625" cx="2.032" cy="2.032" rx="2.032" ry="2.032" transform="translate(47.043 202.692)" fill="none" stroke="#577aca" stroke-linecap="round" stroke-linejoin="round" stroke-width="2"/>
          <ellipse id="타원_626" data-name="타원 626" cx="2.708" cy="2.708" rx="2.708" ry="2.708" transform="translate(36.726 210.953)" fill="none" stroke="#577aca" stroke-linecap="round" stroke-linejoin="round" stroke-width="2"/>
          <ellipse id="타원_627" data-name="타원 627" cx="2.032" cy="2.032" rx="2.032" ry="2.032" transform="translate(105.247 199.216)" fill="none" stroke="#577aca" stroke-linecap="round" stroke-linejoin="round" stroke-width="2"/>
          <path id="패스_8969" data-name="패스 8969" d="M37.048,244.569c-2.943,0-8.313-.784-11.227-6.04-4.872-8.794-2.055-16.924,1.162-22.191,1.907-3.12,6.533-6.767,13.019-10.266a3.1,3.1,0,0,1,1.471-.372,3.16,3.16,0,0,1,2.983,2.136,110.172,110.172,0,0,1,4.071,15.5c2.2,11.811-2.851,19.065-6.046,20.325a15.7,15.7,0,0,1-5.439.91Z" transform="translate(-21.488 -36.668)" fill="url(#radial-gradient-2)"/>
          <path id="패스_8970" data-name="패스 8970" d="M40.2,206.129a1.438,1.438,0,0,1,1.357.979,108.526,108.526,0,0,1,4.008,15.258c2.153,11.548-2.977,17.623-4.987,18.413a14.006,14.006,0,0,1-4.809.79c-3.132,0-7.363-.893-9.727-5.153-4.471-8.073-1.855-15.584,1.128-20.462,1.752-2.868,6.143-6.3,12.372-9.647a1.346,1.346,0,0,1,.658-.172m0-3.435a4.8,4.8,0,0,0-2.284.578c-4.546,2.45-10.981,6.487-13.672,10.884-4.357,7.134-5.794,15.63-1.2,23.92,2.971,5.365,8.262,6.928,12.727,6.928a17.319,17.319,0,0,0,6.069-1.031c4.065-1.6,9.447-9.682,7.105-22.237A110.625,110.625,0,0,0,44.8,206a4.879,4.879,0,0,0-4.609-3.292h0Z" transform="translate(-20.213 -35.385)" fill="#fff"/>
          <path id="패스_8971" data-name="패스 8971" d="M44.807,205.981a4.862,4.862,0,0,0-6.893-2.714c-4.546,2.45-10.981,6.487-13.672,10.884-4.357,7.134-5.794,15.63-1.2,23.92s14.731,7.5,18.8,5.9,9.447-9.682,7.105-22.237A110.627,110.627,0,0,0,44.8,205.987Z" transform="translate(-20.213 -35.38)" fill="none" stroke="#577aca" stroke-linecap="round" stroke-linejoin="round" stroke-width="2"/>
          <path id="패스_8972" data-name="패스 8972" d="M103.431,311.7s15.962,5.33,18.544,7.792c6.166,5.886.092,14.382-7.615,14S102.95,324,102.95,324" transform="translate(-55.58 -81.979)" fill="none" stroke="#577aca" stroke-linecap="round" stroke-linejoin="round" stroke-width="2"/>
          <path id="패스_8973" data-name="패스 8973" d="M163.892,315.8s-4.414,3.229-5.536,6.057-.4,10.54,7.111,10.443" transform="translate(-79.085 -83.732)" fill="none" stroke="#577aca" stroke-linecap="round" stroke-linejoin="round" stroke-width="2"/>
          <path id="패스_8974" data-name="패스 8974" d="M142.257,362.9c3.429-5.863-1.031-12.281-4.409-13.432a58.506,58.506,0,0,0-7.369-1.094" transform="translate(-67.349 -97.654)" fill="#fff" stroke="#577aca" stroke-linecap="round" stroke-linejoin="round" stroke-width="2"/>
          <ellipse id="타원_638" data-name="타원 638" cx="2.508" cy="2.508" rx="2.508" ry="2.508" transform="translate(113.205 211.154)" fill="#fff" stroke="#577aca" stroke-linecap="round" stroke-linejoin="round" stroke-width="2"/>
        </g>
      </g>
      <g id="그룹_21197" data-name="그룹 21197" transform="translate(48.789 538.935) rotate(-33)">
        <g id="캐릭터_포즈3" transform="translate(0 0)">
          <path id="패스_8989" data-name="패스 8989" d="M237.474,149.19s-14.68,2.714-11.285,11.147a12.317,12.317,0,0,0,8.691,7.019c5,1.065,5.914-6.034,5.914-6.034Z" transform="translate(-142.376 -105.233)" fill="#d2d7ff" stroke="#577aca" stroke-linecap="round" stroke-linejoin="round" stroke-width="2"/>
          <path id="패스_8990" data-name="패스 8990" d="M272.007,169.2s-6.069,4.952-17.737-3.206a19.034,19.034,0,0,1-8.027-16.815L272.007,169.2Z" transform="translate(-151.145 -105.229)" fill="#aad7ff" stroke="#577aca" stroke-linecap="round" stroke-linejoin="round" stroke-width="2"/>
          <path id="패스_8991" data-name="패스 8991" d="M277.794,186.174c-4.449,3.372-5.433,11.342,2.25,12.573s10.964-4.678,6.017-13.277Z" transform="translate(-163.184 -120.742)" fill="#d2d7ff" stroke="#577aca" stroke-linecap="round" stroke-linejoin="round" stroke-width="2"/>
          <path id="패스_8992" data-name="패스 8992" d="M221.053,112.42s2.176,8.365-.939,11.107-8.771,6.464-4.592,10.867" transform="translate(-137.4 -89.515)" fill="none" stroke="#577aca" stroke-linecap="round" stroke-linejoin="round" stroke-width="2"/>
          <path id="패스_9001" data-name="패스 9001" d="M221.419,94.891,222.9,97.7a.718.718,0,0,0,.538.366l3.315.452a.659.659,0,0,1,.4,1.145l-2.4,2.181a.641.641,0,0,0-.206.6l.567,3.08a.706.706,0,0,1-1.042.7l-2.966-1.454a.764.764,0,0,0-.67,0l-2.966,1.454a.71.71,0,0,1-1.042-.7l.567-3.08a.655.655,0,0,0-.206-.6l-2.4-2.181a.662.662,0,0,1,.4-1.145l3.315-.452a.708.708,0,0,0,.538-.366l1.483-2.805a.742.742,0,0,1,1.288,0Z" transform="translate(-137.457 -81.863)" fill="#aad7ff" stroke="#577aca" stroke-linecap="round" stroke-linejoin="round" stroke-width="2"/>
          <ellipse id="타원_630" data-name="타원 630" cx="26.239" cy="28.398" rx="26.239" ry="28.398" transform="matrix(0.524, -0.852, 0.852, 0.524, 83.532, 44.697)" fill="#d2d7ff" stroke="#577aca" stroke-linecap="round" stroke-linejoin="round" stroke-width="2"/>
          <path id="패스_9003" data-name="패스 9003" d="M250.8,139.421s7.311-9.842,8.857-10.523c2.084-.916,28.993,19.283,28.506,20.737s-10.489,9.138-10.489,9.138-19.73-.338-26.875-19.357Z" transform="translate(-153.114 -96.546)" fill="#fff" stroke="#577aca" stroke-linecap="round" stroke-linejoin="round" stroke-width="2"/>
          <path id="패스_9004" data-name="패스 9004" d="M273.12,137.23s.813,4.632,2.032,5.33" transform="matrix(0.53, -0.848, 0.848, 0.53, -152.427, 198.121)" fill="none" stroke="#577aca" stroke-linecap="round" stroke-linejoin="round" stroke-width="2"/>
          <g id="그룹_21183" data-name="그룹 21183" transform="translate(66.456 42.344)">
            <ellipse id="타원_631" data-name="타원 631" cx="3.109" cy="1.769" rx="3.109" ry="1.769" transform="matrix(0.511, -0.859, 0.859, 0.511, 38.262, 5.343)" fill="#577aca" stroke="#577aca" stroke-width="1"/>
            <ellipse id="타원_632" data-name="타원 632" cx="2.96" cy="1.769" rx="2.96" ry="1.769" transform="matrix(0.511, -0.859, 0.859, 0.511, 52.598, 14.226)" fill="#577aca" stroke="#577aca" stroke-width="1"/>
          </g>
          <path id="패스_9005" data-name="패스 9005" d="M273.53,165.44h2.616v1.969" transform="matrix(0.998, -0.07, 0.07, 0.998, -173.77, -92.603)" fill="none" stroke="#577aca" stroke-linecap="round" stroke-linejoin="round" stroke-width="2"/>
        </g>
      </g>
    </g>
    <ellipse id="타원_639" data-name="타원 639" cx="2.508" cy="2.508" rx="2.508" ry="2.508" transform="translate(245.849 647.253)" fill="#fff" stroke="#577aca" stroke-linecap="round" stroke-linejoin="round" stroke-width="2"/>
    <path id="패스_9138" data-name="패스 9138" d="M1.907-1.935c1.053,0,1.907,2.325,1.907,3.379A1.907,1.907,0,0,1,0,1.444C0,.391.854-1.935,1.907-1.935Z" transform="translate(195 573.253)" fill="#fff" stroke="#577aca" stroke-linecap="round" stroke-width="2"/>
  </g>
</svg>
