<svg id="추가버튼" xmlns="http://www.w3.org/2000/svg" xmlns:xlink="http://www.w3.org/1999/xlink" width="56" height="56" viewBox="0 0 56 56">
  <defs>
    <linearGradient id="linear-gradient" x2="0.854" y2="0.898" gradientUnits="objectBoundingBox">
      <stop offset="0" stop-color="#d2d7ff"/>
      <stop offset="1" stop-color="#aad7ff"/>
    </linearGradient>
  </defs>
  <g id="그룹_18815" data-name="그룹 18815" transform="translate(-11926 -1082)">
    <circle id="타원_58" data-name="타원 58" cx="28" cy="28" r="28" transform="translate(11926 1082)" fill="url(#linear-gradient)"/>
    <text id="일정" transform="translate(11934 1114)" fill="#fdfdfd" font-size="12" font-family="Pretendard Variable"><tspan x="9" y="11">일정</tspan></text>
    <g id="그룹_21300" data-name="그룹 21300" transform="translate(-7993 4516)">
      <rect id="사각형_25112" data-name="사각형 25112" width="22" height="22" transform="translate(19936 -3424)" fill="none"/>
      <path id="합치기_22" data-name="합치기 22" d="M1,16a1,1,0,0,1-.148-.011A.711.711,0,0,1,.727,16,.727.727,0,0,1,0,15.271V4.06a.728.728,0,0,1,.855-.716A1.01,1.01,0,0,1,1,3.334H3.636V.727a.728.728,0,0,1,1.455,0V3.334h5.818V.727a.727.727,0,0,1,1.454,0V3.334h2.91A.727.727,0,0,1,16,4.06V15.271a.727.727,0,0,1-.727.727Zm.455-1.333H14.546v-10H12.363V5.939a.727.727,0,1,1-1.454,0V4.667H5.091V5.939a.728.728,0,0,1-1.455,0V4.667H1.454Z" transform="translate(19939 -3423.999)" fill="#fdfdfd"/>
    </g>
  </g>
</svg>
