<svg id="나의_하루" data-name="나의 하루" xmlns="http://www.w3.org/2000/svg" width="28" height="28" viewBox="0 0 28 28">
  <g id="나ᄋ_하루_아이콘-02" data-name="나의하루 아이콘-02" transform="translate(5.035 3.785)">
    <line id="선_76" data-name="선 76" y2="2.446" transform="translate(8.827 0)" fill="none" stroke="#acacac" stroke-linecap="round" stroke-miterlimit="10" stroke-width="1.3"/>
    <line id="선_77" data-name="선 77" x2="2.119" y2="1.222" transform="translate(0 5.097)" fill="none" stroke="#acacac" stroke-linecap="round" stroke-miterlimit="10" stroke-width="1.3"/>
    <line id="선_78" data-name="선 78" y1="1.222" x2="2.119" transform="translate(0 14.067)" fill="none" stroke="#acacac" stroke-linecap="round" stroke-miterlimit="10" stroke-width="1.3"/>
    <line id="선_79" data-name="선 79" y1="2.446" transform="translate(8.827 17.941)" fill="none" stroke="#acacac" stroke-linecap="round" stroke-miterlimit="10" stroke-width="1.3"/>
    <line id="선_80" data-name="선 80" x1="2.119" y1="1.222" transform="translate(15.536 14.067)" fill="none" stroke="#acacac" stroke-linecap="round" stroke-miterlimit="10" stroke-width="1.3"/>
    <line id="선_81" data-name="선 81" x1="2.119" y2="1.222" transform="translate(15.536 5.097)" fill="none" stroke="#acacac" stroke-linecap="round" stroke-miterlimit="10" stroke-width="1.3"/>
    <path id="패스_7747" data-name="패스 7747" d="M207.47,238.07a2.035,2.035,0,0,0,2.362.5" transform="translate(-200.128 -225.734)" fill="rgba(0,0,0,0)" stroke="#acacac" stroke-linecap="round" stroke-miterlimit="10" stroke-width="1.3"/>
    <path id="패스_7748" data-name="패스 7748" d="M193.217,172.1a15.113,15.113,0,0,0-3.144-1.637c-1.955-.913-3.933-1.945-3.933-1.945s-.095,2.229-.282,4.379a15.035,15.035,0,0,0-.154,3.542,4.45,4.45,0,1,0,7.516-4.338Z" transform="translate(-180.887 -164.431)" fill="rgba(0,0,0,0)" stroke="#acacac" stroke-linejoin="round" stroke-width="1.3"/>
  </g>
  <rect id="사각형_24261" data-name="사각형 24261" width="28" height="28" fill="none" opacity="0.5"/>
</svg>
