<svg id="그룹_20754" data-name="그룹 20754" xmlns="http://www.w3.org/2000/svg" width="28" height="28" viewBox="0 0 28 28">
  <rect id="사각형_25187" data-name="사각형 25187" width="28" height="28" fill="none"/>
  <g id="그룹_20737" data-name="그룹 20737" transform="translate(6 6)">
    <g id="레이어_4">
      <g id="그룹_20722" data-name="그룹 20722">
        <g id="패스_7847" data-name="패스 7847" transform="translate(-149.161 -100.5)" fill="#646464">
          <path d="M 156.7641296386719 109.1782836914062 C 154.3301696777344 109.1782836914062 152.3500061035156 107.1981201171875 152.3500061035156 104.76416015625 C 152.3500061035156 102.3301773071289 154.3301696777344 100.3499984741211 156.7641296386719 100.3499984741211 C 159.1981048583984 100.3499984741211 161.1782989501953 102.3301773071289 161.1782989501953 104.76416015625 C 161.1782989501953 107.1981201171875 159.1981048583984 109.1782836914062 156.7641296386719 109.1782836914062 Z M 156.7641296386719 101.6533203125 C 155.048828125 101.6533203125 153.6533203125 103.0488357543945 153.6533203125 104.76416015625 C 153.6533203125 106.4794540405273 155.048828125 107.8749542236328 156.7641296386719 107.8749542236328 C 158.4794464111328 107.8749542236328 159.8749694824219 106.4794540405273 159.8749694824219 104.76416015625 C 159.8749694824219 103.0488357543945 158.4794464111328 101.6533203125 156.7641296386719 101.6533203125 Z" stroke="none"/>
          <path d="M 156.7641296386719 109.0282897949219 C 159.1157073974609 109.0282897949219 161.0282897949219 107.1156997680664 161.0282897949219 104.76416015625 C 161.0282897949219 102.4125900268555 159.1157073974609 100.5 156.7641296386719 100.5 C 154.41259765625 100.5 152.5 102.4125900268555 152.5 104.76416015625 C 152.5 107.1156997680664 154.41259765625 109.0282897949219 156.7641296386719 109.0282897949219 M 156.7641296386719 101.5033187866211 C 158.5619812011719 101.5033187866211 160.0249633789062 102.96630859375 160.0249633789062 104.76416015625 C 160.0249633789062 106.5619735717773 158.5619812011719 108.0249557495117 156.7641296386719 108.0249557495117 C 154.96630859375 108.0249557495117 153.5033264160156 106.5619735717773 153.5033264160156 104.76416015625 C 153.5033264160156 102.96630859375 154.96630859375 101.5033187866211 156.7641296386719 101.5033187866211 M 156.7641296386719 109.3282852172852 C 154.2474670410156 109.3282852172852 152.2000122070312 107.2808303833008 152.2000122070312 104.76416015625 C 152.2000122070312 102.2474670410156 154.2474670410156 100.1999969482422 156.7641296386719 100.1999969482422 C 159.2808074951172 100.1999969482422 161.3282928466797 102.2474670410156 161.3282928466797 104.76416015625 C 161.3282928466797 107.2808303833008 159.2808074951172 109.3282852172852 156.7641296386719 109.3282852172852 Z M 156.7641296386719 101.8033142089844 C 155.1315307617188 101.8033142089844 153.8033294677734 103.1315460205078 153.8033294677734 104.76416015625 C 153.8033294677734 106.3967437744141 155.1315307617188 107.7249603271484 156.7641296386719 107.7249603271484 C 158.396728515625 107.7249603271484 159.7249603271484 106.3967437744141 159.7249603271484 104.76416015625 C 159.7249603271484 103.1315460205078 158.396728515625 101.8033142089844 156.7641296386719 101.8033142089844 Z" stroke="none" fill="#646464"/>
        </g>
        <g id="패스_7848" data-name="패스 7848" transform="translate(-99.26 -246.718)" fill="#646464">
          <path d="M 113.9017028808594 263.7986755371094 C 113.5423736572266 263.7986755371094 113.2500305175781 263.50634765625 113.2500305175781 263.1470642089844 L 113.2500305175781 261.6903381347656 C 113.2500305175781 259.46435546875 111.4899520874023 257.6533508300781 109.3265075683594 257.6533508300781 L 104.3368530273438 257.6533508300781 C 102.1734085083008 257.6533508300781 100.413330078125 259.46435546875 100.413330078125 261.6903381347656 L 100.413330078125 263.1470642089844 C 100.413330078125 263.50634765625 100.1209869384766 263.7986755371094 99.76165771484375 263.7986755371094 C 99.40232849121094 263.7986755371094 99.11000061035156 263.50634765625 99.11000061035156 263.1470642089844 L 99.11000061035156 261.6903381347656 C 99.11000061035156 258.7456665039062 101.4547576904297 256.3500061035156 104.3368530273438 256.3500061035156 L 109.3265075683594 256.3500061035156 C 112.2086029052734 256.3500061035156 114.553352355957 258.7456665039062 114.553352355957 261.6903381347656 L 114.553352355957 263.1470642089844 C 114.553352355957 263.50634765625 114.2610168457031 263.7986755371094 113.9017028808594 263.7986755371094 Z" stroke="none"/>
          <path d="M 104.3368530273438 256.5 C 101.5375366210938 256.5 99.26000213623047 258.828369140625 99.26000213623047 261.6903381347656 L 99.26000213623047 263.1470642089844 C 99.26000213623047 263.4241943359375 99.4844970703125 263.648681640625 99.76165771484375 263.648681640625 C 100.0388336181641 263.648681640625 100.2633285522461 263.4241943359375 100.2633285522461 263.1470642089844 L 100.2633285522461 261.6903381347656 C 100.2633285522461 259.3814392089844 102.0906372070312 257.5033569335938 104.3368530273438 257.5033569335938 L 109.3265075683594 257.5033569335938 C 111.5727233886719 257.5033569335938 113.400032043457 259.3814392089844 113.400032043457 261.6903381347656 L 113.400032043457 263.1470642089844 C 113.400032043457 263.4241943359375 113.6245269775391 263.648681640625 113.9017028808594 263.648681640625 C 114.1788635253906 263.648681640625 114.4033508300781 263.4241943359375 114.4033508300781 263.1470642089844 L 114.4033508300781 261.6903381347656 C 114.4033508300781 258.828369140625 112.1258087158203 256.5 109.3265075683594 256.5 L 104.3368530273438 256.5 M 104.3368530273438 256.2000122070312 L 109.3265075683594 256.2000122070312 C 112.2913131713867 256.2000122070312 114.7033538818359 258.6629638671875 114.7033538818359 261.6903381347656 L 114.7033538818359 263.1470642089844 C 114.7033538818359 263.5890808105469 114.3437271118164 263.9486694335938 113.9017028808594 263.9486694335938 C 113.4596633911133 263.9486694335938 113.1000289916992 263.5890808105469 113.1000289916992 263.1470642089844 L 113.1000289916992 261.6903381347656 C 113.1000289916992 259.5470581054688 111.4072418212891 257.8033752441406 109.3265075683594 257.8033752441406 L 104.3368530273438 257.8033752441406 C 102.2561187744141 257.8033752441406 100.5633316040039 259.5470581054688 100.5633316040039 261.6903381347656 L 100.5633316040039 263.1470642089844 C 100.5633316040039 263.5890808105469 100.2036972045898 263.9486694335938 99.76165771484375 263.9486694335938 C 99.31961822509766 263.9486694335938 98.95999908447266 263.5890808105469 98.95999908447266 263.1470642089844 L 98.95999908447266 261.6903381347656 C 98.95999908447266 258.6629638671875 101.3720397949219 256.2000122070312 104.3368530273438 256.2000122070312 Z" stroke="none" fill="#646464"/>
        </g>
      </g>
    </g>
  </g>
</svg>
