<?xml version="1.0" encoding="utf-8"?>
<!-- Generator: Adobe Illustrator 27.5.0, SVG Export Plug-In . SVG Version: 6.00 Build 0)  -->
<svg version="1.1" id="레이어_1" xmlns="http://www.w3.org/2000/svg" xmlns:xlink="http://www.w3.org/1999/xlink" x="0px"
	 y="0px" viewBox="0 0 402.4 401.7" style="enable-background:new 0 0 402.4 401.7;" xml:space="preserve">
<style type="text/css">
	.st0{fill:url(#SVGID_1_);}
	.st1{fill:#FFFFFF;}
	.st2{clip-path:url(#SVGID_00000116920115953001389260000018356095635930748061_);}
	.st3{fill:#97D7FF;}
	.st4{fill:#98D7FF;}
	.st5{fill:#99D6FF;}
	.st6{fill:#9AD6FF;}
	.st7{fill:#9BD6FF;}
	.st8{fill:#9CD6FF;}
	.st9{fill:#9DD5FF;}
	.st10{fill:#9ED5FF;}
	.st11{fill:#9FD5FF;}
	.st12{fill:#A0D5FF;}
	.st13{fill:#A1D4FF;}
	.st14{fill:#A2D4FF;}
	.st15{fill:#A3D4FF;}
	.st16{fill:#A4D4FF;}
	.st17{fill:#A5D3FF;}
	.st18{fill:#A6D3FF;}
	.st19{fill:#A7D3FF;}
	.st20{fill:#A8D2FF;}
	.st21{fill:#A9D2FF;}
	.st22{fill:#AAD2FF;}
	.st23{fill:#ABD2FF;}
	.st24{fill:#ACD1FF;}
	.st25{fill:#ADD1FF;}
	.st26{fill:#AFD1FF;}
	.st27{fill:#B0D1FF;}
	.st28{fill:#B1D0FF;}
	.st29{fill:#B2D0FF;}
	.st30{fill:#B3D0FF;}
	.st31{fill:#B4D0FF;}
	.st32{fill:#B5CFFF;}
	.st33{fill:#B6CFFF;}
	.st34{fill:#B7CFFF;}
	.st35{fill:#B8CEFF;}
	.st36{fill:#B9CEFF;}
	.st37{fill:#BACEFF;}
	.st38{fill:#BBCEFF;}
	.st39{fill:#BCCDFF;}
	.st40{fill:#BDCDFF;}
	.st41{fill:#BECDFF;}
	.st42{fill:#BFCDFF;}
	.st43{fill:#C0CCFF;}
	.st44{fill:#C1CCFF;}
	.st45{fill:#C2CCFF;}
	.st46{fill:#C3CCFF;}
	.st47{fill:#C4CBFF;}
	.st48{fill:#C5CBFF;}
	.st49{fill:#231815;}
	.st50{fill:#D0D0CF;}
	.st51{fill:#B2B1B1;}
	.st52{fill:#E74347;}
	.st53{fill:#BDDBF0;}
	.st54{fill:none;stroke:#231815;stroke-width:1.5;stroke-linecap:round;stroke-linejoin:round;}
	.st55{clip-path:url(#SVGID_00000166658741904660884920000006043341089620787115_);}
	.st56{fill:#D9F1FF;}
	.st57{fill:#D8F0FF;}
	.st58{fill:#D8EFFF;}
	.st59{fill:#D7EEFF;}
	.st60{fill:#D7EDFF;}
	.st61{fill:#D6ECFF;}
	.st62{fill:#D6EBFF;}
	.st63{fill:#D5EAFF;}
	.st64{fill:#D5E9FF;}
	.st65{fill:#D4E8FF;}
	.st66{fill:#D4E7FF;}
	.st67{fill:#D3E6FF;}
	.st68{fill:#D3E5FF;}
	.st69{fill:#D2E4FF;}
	.st70{fill:#D1E3FF;}
	.st71{fill:#D1E2FF;}
	.st72{fill:#D0E1FF;}
	.st73{fill:#D0E0FF;}
	.st74{fill:#CFDFFF;}
	.st75{fill:#CFDDFF;}
	.st76{fill:#CEDCFF;}
	.st77{fill:#CEDBFF;}
	.st78{fill:#CDDAFF;}
	.st79{fill:#CDD9FF;}
	.st80{fill:#CCD8FF;}
	.st81{fill:#CBD7FF;}
	.st82{fill:#CBD6FF;}
	.st83{fill:#CAD5FF;}
	.st84{fill:#CAD4FF;}
	.st85{fill:#C9D3FF;}
	.st86{fill:#C9D2FF;}
	.st87{fill:#C8D1FF;}
	.st88{fill:#C8D0FF;}
	.st89{fill:#C7CFFF;}
	.st90{fill:#C7CEFF;}
	.st91{fill:#C6CDFF;}
	.st92{fill:#C6CCFF;}
</style>
<g>
	<g id="_레이어_2">
		<g>
			<g>
				
					<linearGradient id="SVGID_1_" gradientUnits="userSpaceOnUse" x1="54.1637" y1="208.2998" x2="85.9395" y2="208.2998" gradientTransform="matrix(1 0 0 -1 0 401.8898)">
					<stop  offset="0" style="stop-color:#D9F1FF"/>
					<stop  offset="1" style="stop-color:#C5CBFF"/>
				</linearGradient>
				<path class="st0" d="M71.2,218.2c-3.6,0-10.2-1-13.8-7.4c-6-10.8-2.5-20.7,1.4-27.2c4-6.4,15.4-12.4,19.9-14.6
					c1.4,3.6,4.5,12,6.5,23.2c2.7,14.5-3.5,23.4-7.4,24.9C76.1,217.8,73.6,218.2,71.2,218.2L71.2,218.2z"/>
				<path class="st1" d="M77.7,171.7c1.5,4.2,3.9,11.5,5.7,20.8c2.5,13.2-2.9,21.4-6.2,22.7c-1.2,0.5-3.4,1-5.9,1
					c-3.9,0-9.1-1.1-12-6.4c-5.5-9.9-2.3-19.2,1.4-25.2C63.5,179.7,72,174.6,77.7,171.7 M79.8,166.3c0,0-17.4,7.6-22.7,16.2
					s-7.1,19.1-1.5,29.2c3.6,6.6,10.1,8.4,15.5,8.4c3,0,5.7-0.6,7.4-1.3c5-2,11.5-11.8,8.7-27.1S79.8,166.3,79.8,166.3L79.8,166.3
					L79.8,166.3z"/>
			</g>
			<g>
				<defs>
					<path id="SVGID_00000083793887217323119640000002987669861203518873_" d="M349.5,210.5c0.7,0.1,0.9,0.9,0.4,1.4l-2.8,2.5
						c-0.2,0.2-0.3,0.4-0.3,0.7l0.5,3.7c0.1,0.7-0.6,1.1-1.2,0.8l-3.3-1.9c-0.2-0.1-0.5-0.1-0.7,0l-3.4,1.6
						c-0.6,0.3-1.3-0.2-1.1-0.9l0.8-3.7c0-0.3,0-0.5-0.2-0.7l-2.6-2.7c-0.5-0.5-0.2-1.3,0.5-1.4l3.7-0.4c0.3,0,0.5-0.2,0.6-0.4
						l1.8-3.3c0.3-0.6,1.2-0.6,1.4,0.1l1.5,3.4c0.1,0.2,0.3,0.4,0.6,0.5L349.5,210.5L349.5,210.5z"/>
				</defs>
				<clipPath id="SVGID_00000008868165684660281050000002328729050009433531_">
					<use xlink:href="#SVGID_00000083793887217323119640000002987669861203518873_"  style="overflow:visible;"/>
				</clipPath>
				<g style="clip-path:url(#SVGID_00000008868165684660281050000002328729050009433531_);">
					<rect x="335.2" y="205.3" class="st3" width="0.2" height="14.6"/>
					<rect x="335.4" y="205.3" class="st3" width="0.3" height="14.6"/>
					<rect x="335.7" y="205.3" class="st4" width="0.3" height="14.6"/>
					<rect x="336.1" y="205.3" class="st5" width="0.3" height="14.6"/>
					<rect x="336.4" y="205.3" class="st6" width="0.3" height="14.6"/>
					<rect x="336.7" y="205.3" class="st7" width="0.3" height="14.6"/>
					<rect x="337" y="205.3" class="st8" width="0.3" height="14.6"/>
					<rect x="337.3" y="205.3" class="st9" width="0.3" height="14.6"/>
					<rect x="337.7" y="205.3" class="st10" width="0.3" height="14.6"/>
					<rect x="338" y="205.3" class="st11" width="0.3" height="14.6"/>
					<rect x="338.3" y="205.3" class="st12" width="0.3" height="14.6"/>
					<rect x="338.6" y="205.3" class="st13" width="0.3" height="14.6"/>
					<rect x="339" y="205.3" class="st14" width="0.3" height="14.6"/>
					<rect x="339.3" y="205.3" class="st15" width="0.3" height="14.6"/>
					<rect x="339.6" y="205.3" class="st16" width="0.3" height="14.6"/>
					<rect x="339.9" y="205.3" class="st17" width="0.3" height="14.6"/>
					<rect x="340.2" y="205.3" class="st18" width="0.3" height="14.6"/>
					<rect x="340.5" y="205.3" class="st19" width="0.3" height="14.6"/>
					<rect x="340.9" y="205.3" class="st20" width="0.3" height="14.6"/>
					<rect x="341.2" y="205.3" class="st21" width="0.3" height="14.6"/>
					<rect x="341.5" y="205.3" class="st22" width="0.3" height="14.6"/>
					<rect x="341.8" y="205.3" class="st23" width="0.3" height="14.6"/>
					<rect x="342.2" y="205.3" class="st24" width="0.3" height="14.6"/>
					<rect x="342.5" y="205.3" class="st25" width="0.3" height="14.6"/>
					<rect x="342.8" y="205.3" class="st26" width="0.3" height="14.6"/>
					<rect x="343.1" y="205.3" class="st27" width="0.3" height="14.6"/>
					<rect x="343.4" y="205.3" class="st28" width="0.3" height="14.6"/>
					<rect x="343.8" y="205.3" class="st29" width="0.3" height="14.6"/>
					<rect x="344.1" y="205.3" class="st30" width="0.3" height="14.6"/>
					<rect x="344.4" y="205.3" class="st31" width="0.3" height="14.6"/>
					<rect x="344.7" y="205.3" class="st32" width="0.3" height="14.6"/>
					<rect x="345" y="205.3" class="st33" width="0.3" height="14.6"/>
					<rect x="345.4" y="205.3" class="st34" width="0.3" height="14.6"/>
					<rect x="345.7" y="205.3" class="st35" width="0.3" height="14.6"/>
					<rect x="346" y="205.3" class="st36" width="0.3" height="14.6"/>
					<rect x="346.3" y="205.3" class="st37" width="0.3" height="14.6"/>
					<rect x="346.6" y="205.3" class="st38" width="0.3" height="14.6"/>
					<rect x="347" y="205.3" class="st39" width="0.3" height="14.6"/>
					<rect x="347.3" y="205.3" class="st40" width="0.3" height="14.6"/>
					<rect x="347.6" y="205.3" class="st41" width="0.3" height="14.6"/>
					<rect x="347.9" y="205.3" class="st42" width="0.3" height="14.6"/>
					<rect x="348.3" y="205.3" class="st43" width="0.3" height="14.6"/>
					<rect x="348.6" y="205.3" class="st44" width="0.3" height="14.6"/>
					<rect x="348.9" y="205.3" class="st45" width="0.3" height="14.6"/>
					<rect x="349.2" y="205.3" class="st46" width="0.3" height="14.6"/>
					<rect x="349.5" y="205.3" class="st47" width="0.3" height="14.6"/>
					<rect x="349.9" y="205.3" class="st48" width="0.3" height="14.6"/>
					<rect x="350.2" y="205.3" class="st48" width="0.2" height="14.6"/>
				</g>
			</g>
			<path class="st48" d="M326.4,148.8c14,10.8,17.7,30.9,10.4,41c-4.9,6.8-11.5,12.1-21.1,12.6c-3,0.2-6.2-0.2-9.8-1
				c-13.4-3.2-24.7-12.8-29.9-18.9c-1.1-1.2-1.9-2.4-2.4-3.2c-0.8-1.4-1.4-2.8-1.8-4.2c-0.6-2.1-0.7-4.1-0.5-6.1
				c2.4,7.2,11.8,11.4,11.8,11.4c1.6,1.1,3.8,0.8,5.1-0.7c3.4-4.2,9.8-12.2,12.9-16.8c1-1.4,0.7-3.4-0.6-4.5
				c-2.7-2.3-10-10.2-12.9-12.9l0-0.1C299,137.4,311,137,326.4,148.8z"/>
			<path class="st48" d="M319.6,211.1c0.1,0.3,0.2,0.6,0.3,0.9c1.5,5.6,2.7,7.8,2.7,7.8c2,4,6,5.8,3.9,9.8
				c-0.9,1.7-7.4,8.1-11.2,5.2c-3.8-2.9-7.3-8-8-10.6l-0.1-0.3c-1.6,0.5-3.5,0.7-5.1,0.8l0,0.7c0.4,2.6,3,10.3,0.9,11.9
				c-3,2.3-10.3,3.8-13.5,2.6c-4.5-1.7-6.5-14.5-7.5-17.4c-3.3-9.6-4.6-23.4-4.6-23.4s-7.6-3.8-8-9.8c-0.3-3.3,1.8-5.1,3.6-6.1
				c1.5-0.8,3-1,3-1c5.2,6.1,16.5,15.7,29.9,18.9c3.6,0.9,6.9,1.2,9.8,1l0,0.8C315.8,203.3,318,206.1,319.6,211.1L319.6,211.1z"/>
			<path class="st1" d="M300.4,158.4c1.3,1.1,1.6,3.1,0.6,4.5c-3.1,4.5-9.5,12.6-12.9,16.8c-1.2,1.5-3.5,1.9-5.1,0.7
				c0,0-9.4-4.2-11.8-11.4c0.9-9,8.1-16.8,10.2-18.7c2-1.8,3.9-3.4,5.9-4.8l0,0.1C290.4,148.2,297.7,156.2,300.4,158.4L300.4,158.4z
				 M284.5,161.8c1.2-1.8,1.5-3.7,0.6-4.3c-0.9-0.6-2.6,0.3-3.8,2.1c-1.2,1.8-1.5,3.7-0.6,4.3C281.5,164.5,283.3,163.6,284.5,161.8z
				"/>
			<path class="st49" d="M285.1,157.5c0.9,0.6,0.6,2.5-0.6,4.3s-3,2.7-3.8,2.1c-0.9-0.6-0.6-2.6,0.6-4.3
				C282.5,157.8,284.2,156.9,285.1,157.5z"/>
			<path class="st50" d="M273.6,179.3c0.5,0.9,1.3,2,2.4,3.2c0,0-1.5,0.2-3,1h0l-12.5-12.1l-2.4-2.4c0,0-0.4-4.1,3.5-3.6l2,1.9
				l8.2,7.8C272.2,176.5,272.8,177.9,273.6,179.3L273.6,179.3z"/>
			<path class="st51" d="M263.6,150.2l0,17.1h0l-2-1.9c-3.9-0.5-3.5,3.6-3.5,3.6l2.4,2.4l-18,1.8c-0.6-1.5,1.7-8.9,7-15.1
				C254.9,152,263.6,150.2,263.6,150.2L263.6,150.2z"/>
			<path class="st51" d="M259.6,81.9c1.9,2.4,1.4,5.9-1,7.8l-0.3,0.3c-2.2,1.7-5.3,1.5-7.2-0.4c-4.6-4.5-15.2-14.6-36-14.6
				s-31.3,10.1-35.9,14.6c-2,1.9-5.1,2.1-7.2,0.4l-0.3-0.3c-2.4-1.9-2.9-5.4-1-7.8c4.7-5.9,16.4-18,44.6-18S255,76,259.6,81.9z"/>
			<path class="st52" d="M244.2,97.8c1.1,1.1,1.6,2.5,1.6,3.9c0,1.5-0.6,3.1-1.9,4.2c-2.1,1.9-5.4,1.9-7.5-0.1
				c-3.2-3-9.5-9.5-21.4-9.5s-18.2,6.5-21.4,9.5c-2.1,1.9-5.3,2-7.5,0.1c-1.2-1.1-1.9-2.6-1.9-4.2c0-1.4,0.5-2.8,1.6-3.9
				c3.9-4,12.3-12,29.1-12S240.3,93.8,244.2,97.8z"/>
			<path class="st49" d="M222,300.5c2.7,0.7,4.6,3.2,4.5,6.1c-0.1,3.4-2.9,6-6.3,5.9c-3.4-0.1-6-2.9-5.9-6.3c0-0.3,0-0.5,0.1-0.8
				c1.3-0.5,2.6-1.2,3.9-2.1c0,0,0,0,0,0C219.7,302.4,220.9,301.4,222,300.5L222,300.5z"/>
			<path class="st52" d="M215.1,108.9c5.2,0,9.3,3.8,9.3,8.4s-4.2,8.5-9.3,8.5s-9.3-3.8-9.3-8.5S209.9,108.9,215.1,108.9z"/>
			<path class="st49" d="M220.6,300.2c0.5,0,0.9,0.1,1.4,0.2c-1.1,1-2.3,1.9-3.6,2.7c0,0,0,0,0,0l-0.4-0.6l-1-1.4
				C218.1,300.6,219.3,300.2,220.6,300.2L220.6,300.2z"/>
			<path class="st49" d="M218,302.6l0.4,0.6c-1.3,0.8-2.6,1.5-3.9,2.1c0.3-1.7,1.2-3.1,2.6-4L218,302.6z"/>
			<polygon class="st51" points="203.4,282.6 196.8,284.6 197.4,277.8 206,275.1 206,275.1 205.3,282 			"/>
			<path class="st51" d="M206,275.1l-8.6,2.7L186.2,264l-9.3,1.2c0.4-1.3,1.8-4.2,1.6-8.4h0.1c0,0,9.4-1.6,10.7-1.1
				C190.4,256.2,205.6,274.5,206,275.1z"/>
			<path class="st1" d="M200,189.2c1.4,15.2-9,17.1-9,17.1l-0.2,0c1.3-13.4-0.8-31.7-8.9-45.8C194.6,171.4,199.4,182.4,200,189.2z"
				/>
			<path class="st53" d="M199.2,217.4c0.8,1.5,0.1,3.4-1.4,4.1s-3.4,0.1-4.1-1.4c-0.8-1.5-0.1-3.4,1.4-4.1
				C196.6,215.3,198.5,215.9,199.2,217.4z"/>
			<polygon class="st51" points="186.2,264 197.4,277.8 196.8,284.6 184.7,269.9 			"/>
			<path class="st1" d="M79.8,166.3c0,0-5,2.2-10.5,5.6l0,0c0,0,1.1-9,12.8-20c4.3-4.1,14.9-11.1,27.5-14.2
				c19.8-4.9,37.5-3.2,51.9,4c7.2,3.7,10.6,5.2,19.9,4.7c0,0-2.7,3.2-6.5,4.8c2.7,2.8,5,5.9,7,9.4c8.1,14.1,10.2,32.4,8.9,45.8
				c-0.5,5.5-1.6,10.2-3.1,13.4c-7.1,15.4-21.1,17.4-21.1,17.4l-4.5,0.6c0,0,1.3,10-0.4,11.4c0,0-6.8,5-8.5,9.3
				c-1.7,4.4-0.6,16.2,10.9,16.1c2.4,0,4.4-0.5,6-1.2c0,0,14-1.7,11.8,16.1c-1.6,12.8-8.9,13.6-15.4,13.6c-6.5,0-19.8-2.5-19.8-2.5
				l-0.2-0.1c0,0,0-0.1,0.1-0.1c5.3-10-1.7-18.7-6.9-20.7c-2.3-0.9-10.2-1.7-11.2-1.8c8.1-3.4,12.5-13.1,4.9-20.3
				c-2.3-2.2-11.9-6-19.3-8.8c-1.1-3.9-1.7-6.8-4.8-10.1c0,0-2.2,0.2-5.5-0.8c-6.2-1.5-10.5-3.1-13.6-4.6c-2.4-1.1-4.1-2.2-5.4-3.1
				c-2.8-1.9-5.1-4.4-6.6-6.5c-1.7-2.2-2.5-4-2.5-4c1.1-0.2,2-0.5,2.8-0.8c5-1.9,11.5-11.8,8.7-27.1C84.4,176.8,80,166.7,79.8,166.3
				L79.8,166.3z M184.2,212.2c1.2-0.6,1.7-2.1,1.1-3.3c-0.6-1.2-2.1-1.7-3.3-1.1c-1.2,0.6-1.7,2.1-1.1,3.3
				C181.5,212.3,183,212.8,184.2,212.2z M175.5,206.9c5.6,0.6,5.5-5.1,4.2-7.4c-2.5-4.3-7.8-4.2-8.5-4.3
				C168.7,195.2,169.9,206.3,175.5,206.9z M151.2,210c2.5-0.2,4.1-1.4,2.4-2.9c-1.7-1.5-4.8-1.1-6,0.5
				C146.2,209.3,148.7,210.2,151.2,210z M119.2,207.1c3.4-0.3,5.4-8.9,4.3-10c-1.8-1.8-4.8-1.4-6.7-0.5c-1.7,0.8-5.8,3.2-5.1,6.3
				S115.7,207.4,119.2,207.1L119.2,207.1z M114.6,214.3c0-1.4-1-2.5-2.4-2.6c-1.4-0.1-2.5,1-2.6,2.4c0,1.4,1,2.5,2.4,2.6
				S114.5,215.7,114.6,214.3L114.6,214.3z M103.6,225.3c0.1-1.8-1.4-3.4-3.2-3.4c-1.8-0.1-3.4,1.4-3.4,3.2c-0.1,1.8,1.4,3.4,3.2,3.4
				S103.6,227.1,103.6,225.3z"/>
			<path class="st51" d="M186.2,264l-1.5,5.9l-11.5,1.9l-0.2-0.2c2.1-1.8,3.3-4.1,3.9-6.4L186.2,264L186.2,264z"/>
			<path class="st53" d="M185.4,208.9c0.6,1.2,0.1,2.7-1.1,3.3c-1.2,0.6-2.7,0.1-3.3-1.1c-0.6-1.2-0.1-2.7,1.1-3.3
				C183.2,207.1,184.7,207.6,185.4,208.9z"/>
			<path class="st49" d="M179.7,199.6c1.3,2.3,1.4,7.9-4.2,7.4c-5.6-0.6-6.9-11.8-4.3-11.6C171.9,195.3,177.2,195.3,179.7,199.6z"/>
			<path class="st1" d="M164.6,246.7c3.7-7.3,2-9.5,1.9-9.6c9.3,7.9,11.8,14.7,11.9,19.7c0.2,4.1-1.2,7.1-1.6,8.4
				c-0.7,2.3-1.9,4.6-3.9,6.4c-0.8,0.7-1.7,1.3-2.8,1.7c-1.6,0.7-3.6,1.1-6,1.2c-11.5,0.1-12.7-11.7-10.9-16.1
				c1.7-4.4,8.5-9.3,8.5-9.3C162.9,248.1,163.9,247.3,164.6,246.7L164.6,246.7z"/>
			<path class="st50" d="M166.6,237.1c0.1,0.1,1.8,2.4-1.9,9.6c-0.7,0.6-1.7,1.4-2.9,2.4c1.7-1.5,0.4-11.4,0.4-11.4L166.6,237.1
				L166.6,237.1L166.6,237.1z"/>
			<path class="st49" d="M153.6,207.1c1.6,1.5,0.1,2.6-2.4,2.9c-2.5,0.2-5-0.6-3.6-2.4C148.9,205.9,152,205.6,153.6,207.1z"/>
			<path class="st1" d="M139.7,279.6c5.2,2,12.2,10.6,6.9,20.7c0,0,0,0.1-0.1,0.1c-6.1,11.3-20.3,10.1-35.3,7.5
				c-11.1-1.9-18.6-11-22-22.5c6.4,0.3,18.5-10.6,19.8-13.2c2.9,3.3,7.1,6.5,12.6,6.8c2.4,0.1,4.7-0.3,6.8-1.2
				C129.4,277.9,137.4,278.7,139.7,279.6z"/>
			<path class="st1" d="M128.5,277.8c-2.1,0.9-4.4,1.3-6.8,1.2c-5.5-0.3-9.7-3.5-12.6-6.8c-3.3-3.8-5-7.8-5-7.8
				c-0.9,3-7.3,10.7-16,16.1c-0.2-0.9-0.3-1.8-0.4-2.7c-4.1-32.9,2.5-44.5,2.5-44.5c3.1,1.5,7.4,3.1,13.6,4.6l1.1,7.6
				c0,0,4.1,1.4,9.2,3.2c7.4,2.7,17,6.5,19.3,8.8C140.9,264.7,136.5,274.4,128.5,277.8L128.5,277.8z"/>
			<path class="st49" d="M123.4,197.1c1.1,1.1-0.9,9.7-4.3,10c-3.4,0.3-6.8-1.2-7.5-4.2s3.4-5.5,5.1-6.3
				C118.6,195.7,121.7,195.3,123.4,197.1L123.4,197.1z"/>
			<path class="st53" d="M112.2,211.8c1.4,0,2.4,1.2,2.4,2.6c-0.1,1.4-1.2,2.4-2.6,2.4s-2.4-1.2-2.4-2.6
				C109.7,212.8,110.8,211.7,112.2,211.8L112.2,211.8z"/>
			<path class="st50" d="M109.2,238.6c3.1,3.3,3.7,6.2,4.8,10.1c-5.1-1.9-9.2-3.2-9.2-3.2l-1.1-7.6
				C107,238.8,109.2,238.6,109.2,238.6L109.2,238.6z"/>
			<path class="st50" d="M104.1,264.4c0,0,1.6,4,5,7.8c-1.3,2.6-13.4,13.5-19.8,13.2c-2.1,0.2-7,0.6-11.5-0.1v0
				c3.1-0.7,6.7-2.5,10.3-4.8C96.8,275.1,103.2,267.4,104.1,264.4z"/>
			<path class="st53" d="M100.4,221.8c1.8,0.1,3.2,1.6,3.2,3.4c-0.1,1.8-1.6,3.2-3.4,3.2S97,226.9,97,225
				C97.1,223.2,98.6,221.8,100.4,221.8z"/>
			<path class="st50" d="M87.7,277.8c0.1,0.9,0.2,1.8,0.4,2.7c-3.6,2.3-7.3,4.1-10.3,4.8v0c-1.8-0.3-3.5-0.8-4.9-1.5
				c-4.9-2.7-6.3-33.3-5.9-46.3s11.2-13.8,11.2-13.8c1.5,2.1,3.7,4.6,6.6,6.5c1.3,0.9,3,1.9,5.4,3.1
				C90.2,233.3,83.6,244.9,87.7,277.8z"/>
			<path class="st49" d="M71.1,221c-6,0-12.5-2.3-16.1-8.9c-5.2-9.3-4.6-19.9,1.5-30c2.1-3.5,6.3-7.2,12.4-10.9
				c5.1-3.1,9.9-5.3,10.5-5.6c0.4-0.2,0.9,0,1.1,0.4c0.4,0.9,4.8,11,7.5,25.6c2.9,15.5-3.7,25.9-9.1,28c-0.8,0.3-1.8,0.6-2.9,0.9
				C74.4,220.8,72.8,221,71.1,221L71.1,221z M79.4,167.3c-1.6,0.7-5.5,2.6-9.7,5.2c-5.9,3.6-9.9,7.2-11.9,10.4
				c-4.1,6.7-7.7,17.1-1.5,28.5c5.5,9.9,17.1,8.1,19.3,7.6c1-0.2,1.9-0.5,2.7-0.8c4.9-1.9,11-11.6,8.2-26.3
				C84.1,179.1,80.5,169.8,79.4,167.3L79.4,167.3z"/>
			<path class="st49" d="M113.6,191.1c-0.4,0-0.7-0.3-0.8-0.7c0-0.4,0.3-0.8,0.7-0.8c0.1,0,7.1-0.4,10.8-5.5
				c0.2-0.3,0.7-0.4,1.1-0.2c0.3,0.2,0.4,0.7,0.2,1.1C121.5,190.7,113.9,191.1,113.6,191.1C113.6,191.1,113.6,191.1,113.6,191.1z"/>
			<path class="st49" d="M122.4,279.8c-0.3,0-0.6,0-0.8,0c-4.9-0.2-9.3-2.6-13.1-7c-3.4-3.9-5-7.9-5.1-8c-0.2-0.4,0-0.8,0.4-1
				c0.4-0.1,0.8,0,1,0.4c0,0,1.6,3.9,4.8,7.6c3.6,4.1,7.6,6.3,12.1,6.5c2.2,0.1,4.4-0.3,6.5-1.1c4.3-1.8,7.4-5.4,8.2-9.4
				c0.4-2.5,0.2-6.1-3.5-9.6c-1.8-1.7-8.5-4.7-19.1-8.6c-5-1.8-9.1-3.2-9.2-3.2c-0.3-0.1-0.5-0.3-0.5-0.6l-1-7.1
				c-5.2-1.3-9.5-2.8-13.2-4.5c-2.5-1.2-4.2-2.3-5.5-3.1c-2.4-1.6-4.7-3.9-6.8-6.7c-1.7-2.3-2.5-4-2.6-4.1c-0.2-0.4,0-0.8,0.3-1
				c0.4-0.2,0.8,0,1,0.3c0,0,0.9,1.7,2.4,3.9c1.9,2.6,4.1,4.8,6.4,6.3c1.2,0.8,2.8,1.9,5.3,3c3.7,1.7,8.1,3.2,13.4,4.5
				c0.3,0.1,0.5,0.3,0.6,0.6l1,7.1c1.2,0.4,4.7,1.6,8.8,3.1c11,4.1,17.6,7.1,19.6,8.9c3.3,3.1,4.7,7,3.9,11
				c-0.8,4.5-4.3,8.6-9.1,10.5C126.7,279.3,124.6,279.7,122.4,279.8L122.4,279.8z"/>
			<path class="st49" d="M180,191.3c-0.1,0-0.1,0-0.2,0c-0.3-0.1-7.2-2.3-10-6.4c-0.2-0.3-0.1-0.8,0.2-1s0.8-0.1,1,0.2
				c2.5,3.7,9.1,5.8,9.2,5.9c0.4,0.1,0.6,0.6,0.5,0.9C180.6,191.1,180.3,191.3,180,191.3L180,191.3z"/>
			<path class="st49" d="M170.3,156.4c-2.8,0-6-0.2-8.3-1.1c-0.4-0.1-0.6-0.6-0.4-1c0.1-0.4,0.6-0.6,1-0.4c2.9,1.1,7.5,1.1,10.4,1
				l-5.1-2.5c-0.4-0.2-0.5-0.6-0.4-0.9s0.5-0.6,0.9-0.4c1.9,0.6,4,0.4,6.2-0.6c2.1-0.9,3.8-2.2,4.9-3.3c-7.9,0.2-11.4-1.2-18.4-4.9
				c-0.4-0.2-0.5-0.6-0.3-1c0.2-0.4,0.6-0.5,1-0.3c6.8,3.5,10.2,5.1,19.5,4.6c0.3,0,0.6,0.1,0.7,0.4s0.1,0.6-0.1,0.8
				c-0.1,0.1-2.9,3.3-6.8,5c-1.1,0.5-2.2,0.8-3.2,0.9l4.1,2c0.3,0.1,0.5,0.5,0.4,0.8s-0.3,0.6-0.6,0.6
				C175.6,156.2,173.2,156.5,170.3,156.4L170.3,156.4z"/>
			<path class="st49" d="M69.2,172.6C69.2,172.6,69.2,172.6,69.2,172.6c-0.5-0.1-0.8-0.4-0.8-0.8c0.1-0.4,1.3-9.4,13-20.4
				c3.7-3.5,14.3-11,27.9-14.4c19.4-4.8,37.5-3.4,52.4,4.1c0.4,0.2,0.5,0.6,0.3,1s-0.6,0.5-1,0.3c-14.6-7.3-32.3-8.7-51.3-4
				c-13.3,3.3-23.6,10.6-27.2,14C71.2,163,70,171.8,70,171.9C69.9,172.3,69.6,172.6,69.2,172.6L69.2,172.6z"/>
			<path class="st49" d="M112.1,217.5c0,0-0.1,0-0.1,0c-1.8-0.1-3.2-1.6-3.1-3.3c0-0.9,0.4-1.7,1-2.2s1.4-0.9,2.3-0.9
				c0.9,0,1.7,0.4,2.2,1s0.9,1.4,0.9,2.3l0,0C115.3,216.1,113.8,217.5,112.1,217.5z M112.1,212.5c-0.4,0-0.9,0.2-1.2,0.5
				c-0.3,0.3-0.5,0.7-0.6,1.2c0,0.9,0.7,1.8,1.7,1.8c0.9,0.1,1.8-0.7,1.8-1.7C113.9,213.3,113.1,212.5,112.1,212.5
				C112.1,212.5,112.1,212.5,112.1,212.5L112.1,212.5z M114.6,214.3L114.6,214.3L114.6,214.3z"/>
			<path class="st49" d="M100.3,229.2c0,0-0.1,0-0.1,0c-2.2-0.1-4-2-3.9-4.2c0-1.1,0.5-2.1,1.3-2.8s1.8-1.1,2.9-1.1
				c2.2,0.1,4,2,3.9,4.2l0,0C104.3,227.5,102.5,229.2,100.3,229.2z M100.3,222.6c-0.7,0-1.3,0.2-1.8,0.7c-0.5,0.5-0.8,1.1-0.8,1.8
				c-0.1,1.4,1.1,2.6,2.5,2.6c1.4,0.1,2.6-1.1,2.7-2.5C102.9,223.8,101.8,222.6,100.3,222.6C100.4,222.6,100.3,222.6,100.3,222.6
				L100.3,222.6z M103.6,225.2L103.6,225.2L103.6,225.2z"/>
			<path class="st49" d="M183.1,213.2c-0.3,0-0.7-0.1-1-0.2c-0.8-0.3-1.5-0.9-1.9-1.6c-0.4-0.8-0.4-1.6-0.2-2.5s0.9-1.5,1.6-1.9
				c0.8-0.4,1.6-0.4,2.5-0.2s1.5,0.9,1.9,1.6c0.4,0.8,0.4,1.6,0.2,2.5s-0.9,1.5-1.6,1.9C184.1,213.1,183.6,213.2,183.1,213.2
				L183.1,213.2z M183.1,208.3c-0.3,0-0.5,0.1-0.8,0.2c-0.4,0.2-0.7,0.6-0.9,1s-0.1,0.9,0.1,1.3s0.6,0.7,1,0.9
				c0.4,0.1,0.9,0.1,1.3-0.1s0.7-0.6,0.9-1s0.1-0.9-0.1-1.3l0,0c-0.2-0.4-0.6-0.7-1-0.9C183.5,208.3,183.3,208.3,183.1,208.3
				L183.1,208.3z"/>
			<path class="st49" d="M196.5,222.6c-1.4,0-2.7-0.8-3.4-2.1c-0.9-1.9-0.2-4.2,1.7-5.1c1.9-0.9,4.2-0.2,5.1,1.7l0,0
				c0.9,1.9,0.2,4.2-1.7,5.1C197.6,222.5,197.1,222.6,196.5,222.6L196.5,222.6z M196.5,216.5c-0.4,0-0.7,0.1-1,0.2
				c-1.1,0.6-1.6,2-1,3.1c0.6,1.1,2,1.6,3.1,1s1.6-2,1-3.1C198.2,217,197.4,216.5,196.5,216.5z"/>
			<path class="st49" d="M154.3,221.4c-0.2,0-0.4-0.1-0.6-0.2c-1.2-1.3-3.5-1.8-3.5-1.8c-0.6-0.1-3.2,1.3-3.8,1.7
				c-0.3,0.3-0.8,0.2-1-0.1c-0.3-0.3-0.2-0.8,0.1-1.1c0.2-0.2,3.7-2.2,5-2c0.1,0,2.8,0.5,4.4,2.2c0.3,0.3,0.3,0.8,0,1.1
				C154.7,221.4,154.5,221.4,154.3,221.4L154.3,221.4z"/>
			<path class="st49" d="M190.9,207.1c-0.4,0-0.7-0.2-0.7-0.6c-0.1-0.4,0.2-0.8,0.6-0.9c0.4-0.1,9.8-2,8.4-16.3
				c-0.3-3.3-2.5-15.1-17.9-28.2c-0.3-0.3-0.4-0.7-0.1-1.1c0.3-0.3,0.7-0.4,1.1-0.1c15.8,13.5,18.1,25.8,18.4,29.2
				c1.5,15.7-9.5,17.9-9.6,17.9C191.1,207.1,191,207.1,190.9,207.1L190.9,207.1z"/>
			<path class="st49" d="M127.4,310.4c-5.1,0-10.7-0.8-16.3-1.8c-10.6-1.9-18.9-10.2-22.6-23c-0.1-0.4,0.1-0.8,0.5-0.9
				c0.4-0.1,0.8,0.1,0.9,0.5c3.5,12.2,11.3,20.2,21.4,22c14.2,2.5,28.5,4,34.5-7.1l0.7,0.3l-0.7-0.4c2.6-4.9,1.9-9,0.9-11.6
				c-1.6-4.2-4.9-7-7.5-8c-1.9-0.7-8-1.5-11-1.8l0-1.5c0,0,0.1,0,0.2,0c0.9,0.1,8.9,0.9,11.4,1.9c2.9,1.1,6.6,4.3,8.3,8.9
				c1.1,2.9,1.8,7.5-1,12.8l-0.1,0.1C143.2,308.2,135.9,310.4,127.4,310.4L127.4,310.4z"/>
			<path class="st49" d="M88.1,281.3c-0.4,0-0.7-0.2-0.7-0.6c-0.2-0.9-0.3-1.8-0.4-2.7c-4.1-32.8,2.3-44.5,2.6-45
				c0.2-0.4,0.7-0.5,1-0.3c0.4,0.2,0.5,0.7,0.3,1c-0.1,0.1-6.4,11.9-2.4,44.1c0.1,0.9,0.2,1.7,0.4,2.6c0.1,0.4-0.2,0.8-0.6,0.9
				C88.2,281.3,88.2,281.3,88.1,281.3L88.1,281.3z"/>
			<path class="st49" d="M166.6,303.7h-0.1c-6.5,0-19.3-2.4-19.9-2.5c-0.4-0.1-0.7-0.5-0.6-0.9c0.1-0.4,0.5-0.7,0.9-0.6
				c0.1,0,13.2,2.4,19.6,2.4h0.1c6.9,0,13.1-1,14.6-12.9c0.7-5.7-0.2-9.9-2.8-12.5c-3.3-3.3-8.2-2.8-8.2-2.8c-0.4,0-0.8-0.2-0.8-0.7
				s0.2-0.8,0.7-0.8c0.2,0,5.7-0.6,9.4,3.2c2.9,2.9,4,7.5,3.2,13.7C181.1,302.6,173.6,303.7,166.6,303.7L166.6,303.7z"/>
			<path class="st49" d="M77.8,286c-0.3,0-0.7-0.2-0.7-0.6c-0.1-0.4,0.2-0.8,0.6-0.9c2.7-0.6,6.1-2.2,10.1-4.7
				c0.3-0.2,0.8-0.1,1,0.2c0.2,0.4,0.1,0.8-0.2,1c-4.2,2.6-7.7,4.2-10.5,4.9C77.9,286,77.9,286,77.8,286L77.8,286z"/>
			<path class="st49" d="M88.1,281.3c-0.2,0-0.5-0.1-0.6-0.4c-0.2-0.4-0.1-0.8,0.2-1c8.8-5.5,14.9-13.1,15.7-15.7
				c0.1-0.4,0.5-0.6,0.9-0.5s0.6,0.5,0.5,0.9c-1,3.3-7.7,11.2-16.3,16.5C88.4,281.2,88.3,281.3,88.1,281.3L88.1,281.3z"/>
			<path class="st49" d="M89.6,286.2c-0.1,0-0.2,0-0.3,0c-0.4,0-0.7-0.4-0.7-0.8c0-0.4,0.4-0.7,0.8-0.7c0.1,0,0.2,0,0.3,0
				c6.2,0,17.7-10.6,18.8-12.8c0.2-0.4,0.6-0.5,1-0.4s0.5,0.6,0.3,1C108.5,275,96.6,286.2,89.6,286.2L89.6,286.2z"/>
			<path class="st49" d="M114.1,249.5c-0.3,0-0.6-0.2-0.7-0.6l-0.2-0.8c-0.9-3.4-1.6-5.9-4.2-8.7c-0.8,0-2.8,0-5.4-0.8
				c-0.4-0.1-0.6-0.5-0.5-0.9c0.1-0.4,0.5-0.6,0.9-0.5c3.1,0.9,5.2,0.7,5.2,0.7c0.2,0,0.4,0.1,0.6,0.2c3,3.2,3.8,6,4.8,9.6l0.2,0.8
				c0.1,0.4-0.1,0.8-0.5,0.9C114.2,249.5,114.1,249.5,114.1,249.5L114.1,249.5z"/>
			<path class="st49" d="M163.9,275.2c-5.4,0-8.3-2.5-9.8-4.7c-2.9-4.2-2.7-9.8-1.7-12.4c1.8-4.5,8.5-9.4,8.8-9.6
				c0.3-0.2,0.8-0.2,1.1,0.2c0.2,0.3,0.2,0.8-0.2,1.1c-0.1,0.1-6.6,4.9-8.3,9c-0.9,2.3-1,7.3,1.5,11c1.9,2.7,4.9,4.1,8.7,4.1
				c2.2,0,4.1-0.4,5.8-1.1c1-0.4,1.9-1,2.6-1.6c1.7-1.5,3-3.5,3.7-6c0.1-0.2,0.2-0.6,0.3-0.9c0.5-1.5,1.4-4,1.2-7.2
				c-0.2-6.4-4.2-12.8-11.7-19.2c-0.3-0.3-0.4-0.7-0.1-1.1c0.3-0.3,0.7-0.4,1.1-0.1c7.9,6.7,12,13.5,12.2,20.3
				c0.1,3.5-0.8,6.2-1.3,7.7c-0.1,0.3-0.2,0.6-0.3,0.9c-0.8,2.8-2.2,5.1-4.2,6.7c-0.9,0.8-1.9,1.4-3,1.9c-1.8,0.8-3.9,1.2-6.3,1.2
				C164.1,275.2,164,275.2,163.9,275.2L163.9,275.2z"/>
			<path class="st49" d="M161.7,249.8c-0.2,0-0.4-0.1-0.6-0.3c-0.3-0.3-0.2-0.8,0.1-1.1c1.2-1,2.2-1.8,2.9-2.4
				c1.1-0.9,1.6-1.3,1.6-1.3c0.3-0.2,0.8-0.2,1.1,0.1c0.2,0.3,0.2,0.8-0.1,1.1c0,0-0.6,0.4-1.6,1.2c-0.7,0.6-1.7,1.4-2.9,2.4
				C162,249.8,161.9,249.8,161.7,249.8z"/>
			<path class="st49" d="M161.7,249.8c-0.2,0-0.4-0.1-0.6-0.3c-0.3-0.3-0.2-0.8,0.1-1.1c0.8-0.7,0.8-6.2,0.1-10.8
				c0-0.2,0-0.4,0.1-0.6s0.3-0.3,0.5-0.3l4.5-0.6c0.2,0,0.5,0.1,0.6,0.2c0.4,0.5,2,3-1.8,10.5c-0.2,0.4-0.6,0.5-1,0.3
				s-0.5-0.6-0.3-1c2.7-5.3,2.4-7.7,2.2-8.5l-3.2,0.4c0.4,3,1,9.9-0.7,11.4C162,249.8,161.9,249.8,161.7,249.8L161.7,249.8z"/>
			<path class="st49" d="M83.3,286.5c-1.8,0-3.7-0.1-5.6-0.4c-2-0.3-3.8-0.9-5.2-1.6c-5.9-3.2-6.6-37.5-6.3-46.9
				c0.5-13.4,11.8-14.5,11.9-14.5c0.4,0,0.8,0.3,0.8,0.7c0,0.4-0.3,0.8-0.7,0.8c-0.4,0-10.2,1-10.6,13.1
				c-0.5,14.4,1.3,43.3,5.5,45.6c1.2,0.7,2.8,1.2,4.7,1.5c4.4,0.7,9.4,0.2,11.3,0.1c0.4,0,0.8,0.3,0.8,0.7c0,0.4-0.3,0.8-0.7,0.8
				C88.2,286.3,85.9,286.5,83.3,286.5L83.3,286.5z"/>
			<path class="st49" d="M196.8,285.4c-0.2,0-0.4-0.1-0.6-0.3l-11.8-14.4l-11.1,1.9c-0.4,0.1-0.8-0.2-0.9-0.6
				c-0.1-0.4,0.2-0.8,0.6-0.9l11.5-1.9c0.3,0,0.5,0.1,0.7,0.3l10.9,13.4l0.5-5c0-0.3,0.2-0.5,0.5-0.6l8.6-2.7c0.5-0.1,1,0.2,1,0.7
				c0,0.4-0.2,0.7-0.6,0.7l-8.1,2.5l-0.6,6.3c0,0.3-0.2,0.6-0.5,0.6C196.9,285.4,196.9,285.4,196.8,285.4L196.8,285.4z"/>
			<path class="st49" d="M206,275.8c-0.2,0-0.4-0.1-0.6-0.3c-1-1.3-15.2-18.3-16.6-19.2c-0.7-0.2-5.8,0.5-10.2,1.2
				c-0.4,0.1-0.8-0.2-0.9-0.6c-0.1-0.4,0.2-0.8,0.6-0.9c2.9-0.5,9.8-1.6,11.1-1.1c1.5,0.6,17,19.4,17.1,19.6c0.3,0.3,0.2,0.8-0.1,1
				C206.3,275.8,206.2,275.8,206,275.8L206,275.8z"/>
			<path class="st49" d="M184.7,270.6c-0.1,0-0.1,0-0.2,0c-0.4-0.1-0.6-0.5-0.5-0.9l1.2-4.8L177,266c-0.4,0-0.8-0.2-0.8-0.6
				s0.2-0.8,0.6-0.8l9.3-1.2c0.2,0,0.5,0.1,0.7,0.2s0.2,0.4,0.2,0.7l-1.5,5.9C185.3,270.4,185,270.6,184.7,270.6L184.7,270.6z"/>
			<path class="st49" d="M197.4,278.5c-0.2,0-0.4-0.1-0.6-0.3l-11.2-13.8c-0.3-0.3-0.2-0.8,0.1-1.1c0.3-0.3,0.8-0.2,1.1,0.1
				l11.2,13.8c0.3,0.3,0.2,0.8-0.1,1.1C197.8,278.5,197.6,278.5,197.4,278.5z"/>
			<path class="st49" d="M196.8,285.4c-0.3,0-0.6-0.2-0.7-0.5c-0.1-0.4,0.1-0.8,0.5-0.9l8.1-2.5l0.7-6.4c0.1-0.4,0.4-0.7,0.8-0.7
				c0.4,0,0.7,0.4,0.7,0.8l-0.8,6.9c0,0.3-0.2,0.5-0.5,0.6l-8.5,2.6C196.9,285.4,196.8,285.4,196.8,285.4L196.8,285.4z"/>
			<path class="st49" d="M217.1,302c-0.2,0-0.5-0.1-0.6-0.3l-15.7-21.4c-0.2-0.3-0.2-0.8,0.2-1s0.8-0.2,1.1,0.2l15.7,21.4
				c0.2,0.3,0.2,0.8-0.2,1C217.4,302,217.2,302,217.1,302z"/>
			<path class="st49" d="M200.2,306.4c-3.4,0-5.9-1.1-7.2-3.1c-0.9-1.4-1.2-3.2-0.7-5.3c1-4.7,5.5-10.1,11.8-14l0.5,0.6l-0.4-0.6
				l0.1-0.1l0,0c9.2-5.8,18.9-6.7,22-1.9c1.2,1.9,1.2,4.5,0,7.4c-1.6,3.8-5.2,7.9-9.9,11.1c-0.4,0.3-0.8,0.5-1.2,0.8
				c-3.9,2.5-8,4.2-11.7,4.8C202.3,306.3,201.3,306.4,200.2,306.4L200.2,306.4z M219.1,280.3c-3.9,0-9,1.6-14,4.8c0,0,0,0,0,0
				l-0.2,0.1c-5.8,3.7-10.2,8.9-11.1,13.1c-0.4,1.6-0.2,3,0.5,4.1c1.4,2.1,4.6,2.9,8.9,2.2c3.5-0.6,7.5-2.2,11.2-4.6
				c0.4-0.2,0.8-0.5,1.1-0.8c4.4-3.1,7.9-6.9,9.4-10.5c0.7-1.7,1.3-4.1,0.1-6C224,281.1,221.8,280.3,219.1,280.3L219.1,280.3z
				 M204.7,284.4L204.7,284.4L204.7,284.4z"/>
			<path class="st49" d="M207.8,307.6c-2.1,0-3.9-0.6-5-1.8c-0.2-0.2-0.3-0.4-0.5-0.6c-2.3-3.5,0.9-9.5,7.4-13.9
				c0.2-0.2,0.4-0.3,0.7-0.5c6.1-3.9,12.7-4.9,15.7-2.4l0,0c0.3,0.3,0.6,0.6,0.9,1c1.8,2.9,0.1,7.4-4.5,11.6c-1.1,1-2.3,1.9-3.7,2.8
				c0,0,0,0,0,0c0,0,0,0,0,0c-1.3,0.8-2.6,1.5-4.1,2.1C212.2,307.1,209.8,307.6,207.8,307.6L207.8,307.6z M221.6,288.5
				c-2.9,0-6.7,1.2-10.2,3.5c-0.2,0.1-0.4,0.3-0.6,0.4c-5.6,3.8-8.8,9.2-7,11.9c0.1,0.1,0.2,0.3,0.3,0.4c1.7,1.8,5.8,1.7,10.3-0.2
				c1.3-0.6,2.6-1.2,3.8-2l0,0c0,0,0,0,0,0c1.3-0.8,2.5-1.7,3.5-2.7c3.9-3.5,5.6-7.5,4.2-9.7c-0.1-0.2-0.3-0.5-0.6-0.6
				C224.3,288.9,223.1,288.5,221.6,288.5L221.6,288.5z"/>
			<path class="st49" d="M314.2,203.2c-2.7,0-5.5-0.4-8.5-1.1c-12.9-3.1-24.4-12.3-30.2-19.1c-1-1.2-1.9-2.4-2.5-3.3
				c-0.8-1.4-1.5-2.9-1.9-4.4c-0.6-2.1-0.7-4.2-0.5-6.4c1-10.4,10.1-18.8,10.5-19.2c2-1.9,4-3.5,6-4.9c12.7-8.8,25.3-7.8,39.9,3.4
				c14.8,11.4,17.8,32,10.5,42.1c-6,8.2-13,12.5-21.6,12.9C315.3,203.2,314.8,203.2,314.2,203.2L314.2,203.2z M304.1,140.4
				c-5.5,0-10.8,1.9-16.2,5.7c-1.9,1.3-3.9,2.9-5.8,4.7c-3.1,2.9-9.2,10.4-10,18.2l0,0c-0.2,2,0,4,0.5,5.9c0.4,1.4,1,2.7,1.7,4
				c0.5,0.9,1.3,2,2.3,3.1c5.7,6.7,16.9,15.6,29.5,18.7c3.4,0.8,6.7,1.2,9.6,1c8.1-0.4,14.8-4.4,20.5-12.2c6.8-9.3,3.7-29.3-10.2-40
				C318.1,143.4,310.9,140.4,304.1,140.4L304.1,140.4z M271.3,168.9L271.3,168.9L271.3,168.9z"/>
			<path class="st49" d="M285.2,181.8c-0.9,0-1.8-0.2-2.5-0.8c-0.9-0.4-9.8-4.7-12.1-11.9c-0.1-0.4,0.1-0.8,0.5-0.9
				c0.4-0.1,0.8,0.1,1,0.5c2.2,6.8,11.3,10.9,11.4,11c0,0,0.1,0,0.1,0.1c1.3,0.9,3.1,0.7,4-0.6c2.2-2.7,9.5-11.8,12.8-16.7
				c0.8-1.1,0.5-2.6-0.5-3.5c-1.6-1.4-4.7-4.6-7.7-7.7c-2.1-2.1-4-4.2-5.2-5.3c-0.3-0.3-0.3-0.8,0-1.1s0.8-0.3,1.1,0
				c1.2,1.1,3.2,3.2,5.3,5.3c2.8,2.9,6,6.3,7.6,7.6c1.6,1.4,2,3.7,0.8,5.5c-3.4,5-10.7,14.1-12.9,16.8
				C287.9,181.2,286.6,181.8,285.2,181.8L285.2,181.8z"/>
			<path class="st49" d="M284.7,155.1c-0.3,0-0.6-0.2-0.7-0.6c-0.1-0.4,0.1-0.8,0.5-0.9l3.3-0.8c0.4-0.1,0.8,0.1,0.9,0.6
				s-0.1,0.8-0.5,0.9l-3.3,0.8C284.8,155,284.8,155.1,284.7,155.1z"/>
			<path class="st49" d="M312.9,174.6c-0.3,0-0.6-0.2-0.7-0.5c-0.2-0.4,0-0.8,0.4-1c2.1-0.9,3.4-1.9,3.5-2.8
				c0.1-0.9-0.7-1.7-0.7-1.7c-0.3-0.3-0.4-0.7-0.1-1.1c0.3-0.3,0.7-0.4,1-0.1c0.1,0.1,1.5,1.3,1.3,3.1c-0.2,1.6-1.7,2.9-4.4,4
				C313.1,174.5,313,174.5,312.9,174.6L312.9,174.6z"/>
			<path class="st49" d="M325,174.1c0,0-0.1,0-0.1,0c-2.6-0.5-4-1.3-4.3-2.6c-0.3-1.6,1.5-2.8,1.7-3c0.4-0.2,0.8-0.1,1,0.2
				s0.1,0.8-0.2,1l0,0c-0.5,0.3-1.1,1-1,1.4c0,0.1,0.3,0.9,3.1,1.4c0.4,0.1,0.7,0.5,0.6,0.9C325.6,173.9,325.3,174.1,325,174.1z"/>
			<path class="st49" d="M323.2,179.8c-0.2,0-0.4-0.1-0.6-0.3c-0.6-0.7-2.4-2.7-3.7-2.9c-0.2,0-0.4,0-0.5,0.1
				c-0.6,0.4-1,1.6-1.1,2.2c-0.1,0.4-0.5,0.7-0.9,0.6c-0.4-0.1-0.7-0.4-0.6-0.9c0-0.2,0.4-2.3,1.7-3.2c0.5-0.4,1.1-0.5,1.6-0.4
				c2.1,0.4,4.3,3.2,4.6,3.5c0.2,0.3,0.2,0.8-0.1,1.1C323.5,179.7,323.3,179.8,323.2,179.8L323.2,179.8z"/>
			<path class="st49" d="M317.5,236.4c-1,0-1.9-0.3-2.7-0.9c-4-3-7.5-8.2-8.2-11c-0.1-0.4,0.1-0.8,0.5-0.9c0.4-0.1,0.8,0.1,0.9,0.6
				c0.6,2.5,4,7.4,7.7,10.2c0.7,0.6,1.6,0.7,2.7,0.5c3.2-0.7,6.7-4.4,7.3-5.4c1.2-2.1,0.3-3.4-1.5-5.6c-0.8-1-1.7-2.1-2.4-3.5
				c0-0.1-1.2-2.3-2.8-7.9c-0.1-0.3-0.2-0.6-0.3-0.9c-1.5-4.8-3.6-7.6-3.7-7.6c-0.3-0.3-0.2-0.8,0.1-1.1c0.3-0.3,0.8-0.2,1,0.1
				c0.1,0.1,2.4,3,3.9,8.1c0.1,0.3,0.2,0.6,0.3,1c1.5,5.4,2.6,7.6,2.6,7.6c0.6,1.3,1.4,2.3,2.2,3.3c1.6,2,3.3,4.1,1.6,7.2
				c-0.8,1.4-4.7,5.4-8.3,6.2C318.3,236.3,317.9,236.4,317.5,236.4L317.5,236.4z"/>
			<path class="st49" d="M292.5,241.2c-1.2,0-2.4-0.1-3.2-0.5c-3.6-1.4-5.5-8.1-7.2-14.9c-0.3-1.2-0.6-2.3-0.8-2.9
				c-3-8.6-4.4-20.8-4.6-23.1c-1.6-0.9-7.6-4.6-8.1-10.2c-0.3-3.8,2-5.8,4-6.8c1.6-0.8,3.2-1.1,3.2-1.1c0.4-0.1,0.8,0.2,0.9,0.6
				s-0.2,0.8-0.6,0.9c0,0-1.4,0.2-2.8,0.9c-2.3,1.2-3.4,3-3.2,5.3c0.4,5.5,7.6,9.2,7.6,9.2c0.2,0.1,0.4,0.3,0.4,0.6
				c0,0.1,1.4,13.8,4.6,23.2c0.2,0.6,0.5,1.7,0.8,3.1c1.1,4.4,3,12.7,6.2,13.9c2.9,1.1,9.9-0.3,12.8-2.5c1.3-1,0-6.2-0.6-8.8
				c-0.2-1-0.5-1.9-0.5-2.5c-0.1-0.4,0.2-0.8,0.6-0.9c0.4-0.1,0.8,0.2,0.9,0.6c0.1,0.6,0.3,1.4,0.5,2.4c1.2,4.8,2,8.9,0.1,10.3
				C301,240,296.2,241.2,292.5,241.2L292.5,241.2z"/>
			<path class="st49" d="M301.2,225.6c-1.9,0-3.3-0.2-3.4-0.2c-0.4-0.1-0.7-0.4-0.6-0.8c0-0.4,0.4-0.7,0.8-0.6c0,0,1.8,0.2,4,0.2
				c1.9-0.1,3.5-0.3,4.9-0.8c0.4-0.1,0.8-0.3,1.2-0.4c0.4-0.2,0.8,0,1,0.4c0.2,0.4,0,0.8-0.4,1c-0.4,0.2-0.9,0.4-1.4,0.5
				c-1.5,0.5-3.2,0.8-5.3,0.8C301.8,225.6,301.5,225.6,301.2,225.6L301.2,225.6z"/>
			<path class="st49" d="M305.2,218.7c-0.1,0-0.2,0-0.3-0.1c-0.4-0.2-0.5-0.6-0.4-1c0-0.1,4.6-10.1,15.3-7.2
				c0.4,0.1,0.9,0.2,1.3,0.4c4.3,1.5,15.6,5.5,16.7,3.4c0.2-0.4,0.6-0.5,1-0.3c0.4,0.2,0.5,0.6,0.3,1c-1.2,2.5-5.9,1.8-18.5-2.6
				c-0.4-0.1-0.8-0.3-1.2-0.4c-9.4-2.5-13.3,6-13.5,6.4C305.7,218.5,305.5,218.7,305.2,218.7L305.2,218.7z"/>
			<path class="st49" d="M273,184.2c-0.2,0-0.4-0.1-0.5-0.2l-14.9-14.5c-0.1-0.1-0.2-0.3-0.2-0.5c0-0.1-0.2-2.2,1.2-3.5
				c0.8-0.7,1.9-1,3.2-0.8c0.2,0,0.3,0.1,0.4,0.2l10.2,9.6c0.3,0.3,0.3,0.8,0,1.1c-0.3,0.3-0.8,0.3-1.1,0l-10-9.5
				c-0.8-0.1-1.4,0.1-1.8,0.5c-0.6,0.6-0.7,1.6-0.7,2.1l14.7,14.2c0.3,0.3,0.3,0.8,0,1.1C273.4,184.1,273.2,184.2,273,184.2
				L273,184.2z"/>
			<path class="st49" d="M242.5,173.9c-0.3,0-0.6-0.2-0.7-0.5c-0.7-1.8,1.7-9.6,7.2-15.8c5.4-6.3,14.1-8.1,14.4-8.2
				c0.2,0,0.5,0,0.6,0.1c0.2,0.1,0.3,0.4,0.3,0.6l0,17.1c0,0.4-0.3,0.8-0.8,0.8l0,0c-0.4,0-0.8-0.3-0.8-0.8l0-16.1
				c-2.3,0.6-8.6,2.7-12.7,7.4c-4.9,5.6-6.8,11.8-6.9,13.8l17.3-1.8c0.4-0.1,0.8,0.3,0.8,0.7s-0.3,0.8-0.7,0.8L242.5,173.9
				C242.6,173.9,242.5,173.9,242.5,173.9L242.5,173.9z"/>
			<path class="st49" d="M228.2,163.3c-1.4,0-2.6-0.4-3.5-1.2c-0.9-0.9-1.5-2.1-1.5-3.7c-0.2-4.1,2.8-10.1,7.6-15.4
				c6.9-7.5,15-10.8,18.5-7.6c2.2,2,2,6-0.4,10.9c-1.4,2.8-3.3,5.6-5.7,8.2c-2.4,2.6-5.1,4.8-7.7,6.4
				C232.7,162.4,230.2,163.3,228.2,163.3L228.2,163.3z M245.8,135.6c-3.6,0-9.1,3.2-13.9,8.4c-4.6,4.9-7.4,10.5-7.2,14.3
				c0.1,1.2,0.4,2.1,1,2.7c1.6,1.5,5.1,0.9,9-1.4l0,0c2.5-1.5,5.1-3.6,7.4-6.1s4.2-5.2,5.5-7.8c2-4.2,2.3-7.7,0.7-9.1
				C247.7,135.9,246.8,135.6,245.8,135.6L245.8,135.6z"/>
			<path class="st49" d="M237.4,162.4c-0.9,0-1.7-0.2-2.2-0.8c-0.4-0.3-0.6-0.8-0.8-1.2c-0.8-2.4,0.9-6.5,4.3-10.1
				c3.3-3.6,7.3-5.7,9.8-5.1c0.5,0.1,0.9,0.3,1.3,0.7c2.2,2,0.7,6.9-3.5,11.4C243.2,160.5,239.9,162.4,237.4,162.4L237.4,162.4z
				 M247.5,146.6c-1.8,0-4.8,1.5-7.7,4.7c-3.3,3.6-4.5,7.1-3.9,8.7c0.1,0.2,0.2,0.4,0.4,0.6c1.3,1.2,5.3-0.3,8.9-4.3
				c3.7-4,4.8-8.1,3.6-9.3c-0.2-0.2-0.4-0.2-0.6-0.3c0,0,0,0,0,0C247.9,146.6,247.7,146.6,247.5,146.6L247.5,146.6z"/>
			<path class="st49" d="M215.1,126.5c-5.6,0-10.1-4.1-10.1-9.2s4.5-9.2,10.1-9.2s10.1,4.1,10.1,9.2S220.6,126.5,215.1,126.5z
				 M215.1,109.6c-4.7,0-8.6,3.4-8.6,7.7s3.9,7.7,8.6,7.7s8.6-3.5,8.6-7.7S219.8,109.6,215.1,109.6z"/>
			<path class="st49" d="M346.6,220.5c-0.3,0-0.5-0.1-0.8-0.2l-3.3-1.9l-3.4,1.6c-0.5,0.3-1.2,0.2-1.6-0.2c-0.5-0.4-0.7-1-0.6-1.5
				l0.8-3.7l-2.6-2.8c-0.4-0.4-0.5-1-0.3-1.6c0.2-0.6,0.7-0.9,1.3-1l3.7-0.4l1.8-3.3c0.3-0.5,0.8-0.9,1.4-0.8c0.6,0,1.1,0.4,1.4,0.9
				l1.5,3.4l3.7,0.7c0.6,0.1,1,0.5,1.2,1.1c0.2,0.6,0,1.2-0.4,1.6l-2.8,2.5l0.5,3.8c0.1,0.6-0.2,1.2-0.7,1.5
				C347.2,220.4,346.9,220.5,346.6,220.5z M343,206.2l-1.8,3.3c-0.3,0.5-0.7,0.8-1.2,0.8l-3.7,0.4l0,0.1l2.6,2.7
				c0.4,0.4,0.5,0.9,0.4,1.4l-0.8,3.7l0.4,0.7l-0.3-0.7l3.4-1.6c0.5-0.2,1-0.2,1.4,0.1l3.3,1.9l0.1-0.1l-0.5-3.7
				c-0.1-0.5,0.1-1,0.5-1.4l2.8-2.5l-3.7-0.8c-0.5-0.1-0.9-0.4-1.1-0.9L343,206.2L343,206.2C343,206.2,343,206.2,343,206.2
				L343,206.2z"/>
			<path class="st49" d="M254.9,91.9c-1.6,0-3.1-0.6-4.4-1.8c-4.4-4.3-14.8-14.3-35.4-14.3c-0.4,0-0.8-0.3-0.8-0.8s0.3-0.8,0.8-0.8
				c21.3,0,31.9,10.3,36.5,14.8c1.7,1.7,4.4,1.8,6.3,0.4l0.3-0.3c1-0.8,1.7-2,1.9-3.3c0.2-1.3-0.2-2.5-1-3.5
				c-9.3-11.8-24.1-17.7-44-17.7c-0.4,0-0.8-0.3-0.8-0.8s0.3-0.8,0.8-0.8c20.3,0,35.5,6.2,45.1,18.3c1,1.3,1.5,2.9,1.3,4.6
				c-0.2,1.7-1.1,3.2-2.4,4.3l-0.3,0.3C257.6,91.4,256.2,91.9,254.9,91.9L254.9,91.9z"/>
			<path class="st49" d="M240.3,108c-1.5,0-3.1-0.6-4.3-1.7l-0.5-0.5c-3.3-3.1-9.4-8.8-20.4-8.8c-0.4,0-0.8-0.3-0.8-0.8
				s0.3-0.8,0.8-0.8c11.6,0,18,6,21.4,9.2l0.5,0.4c1.8,1.7,4.6,1.7,6.5,0.1c1-0.9,1.6-2.2,1.6-3.6c0-1.3-0.5-2.5-1.4-3.4
				c-3.5-3.5-11.6-11.8-28.6-11.8c-0.4,0-0.8-0.3-0.8-0.8s0.3-0.8,0.8-0.8c17.6,0,26.1,8.6,29.7,12.3c1.2,1.2,1.8,2.8,1.8,4.4
				c0,1.8-0.8,3.5-2.1,4.7C243.3,107.5,241.8,108,240.3,108z"/>
			<path class="st49" d="M175.3,91.8c-1.4,0-2.7-0.4-3.8-1.3l-0.4-0.3c-1.4-1-2.2-2.5-2.4-4.2c-0.2-1.7,0.2-3.3,1.3-4.6
				c9.6-12.1,24.8-18.3,45.1-18.3c0.4,0,0.8,0.3,0.8,0.8c0,0.4-0.3,0.8-0.8,0.8c-19.8,0-34.6,6-44,17.7c-0.8,1-1.1,2.2-1,3.5
				c0.2,1.3,0.8,2.4,1.9,3.2l0.4,0.3c1.9,1.4,4.6,1.3,6.2-0.4c4.6-4.4,15.2-14.8,36.5-14.8c0.4,0,0.8,0.3,0.8,0.8s-0.3,0.8-0.8,0.8
				c-20.6,0-31,10.1-35.4,14.3C178.4,91.3,176.9,91.9,175.3,91.8L175.3,91.8z"/>
			<path class="st49" d="M189.9,108c-1.5,0-3-0.5-4.2-1.6c-1.4-1.2-2.1-2.9-2.1-4.7c0-1.7,0.6-3.2,1.8-4.4
				C189,93.6,197.5,85,215.1,85c0.4,0,0.8,0.3,0.8,0.8s-0.3,0.8-0.8,0.8c-17,0-25.1,8.3-28.6,11.8c-0.9,0.9-1.4,2.1-1.4,3.4
				c0,1.4,0.6,2.7,1.6,3.6c1.9,1.7,4.6,1.6,6.5-0.1l0.5-0.5c3.4-3.2,9.8-9.2,21.4-9.2c0.4,0,0.8,0.3,0.8,0.8s-0.3,0.8-0.8,0.8
				c-11,0-17.1,5.8-20.4,8.8l-0.5,0.5C193,107.4,191.4,108,189.9,108L189.9,108z"/>
			<line class="st54" x1="247.9" y1="159.3" x2="227.9" y2="139.5"/>
			<circle class="st49" cx="224.9" cy="136.2" r="6.1"/>
			<g>
				<g>
					<defs>
						<path id="SVGID_00000075161318790159935660000016761553511212644249_" d="M185.6,168.2c0,0,12.1,13.6,11.2,23.9
							c-0.8,8.8-5.2,9.7-5.2,9.7S190.8,182.6,185.6,168.2z"/>
					</defs>
					<clipPath id="SVGID_00000129200111795961895100000010238065389401446835_">
						<use xlink:href="#SVGID_00000075161318790159935660000016761553511212644249_"  style="overflow:visible;"/>
					</clipPath>
					<g style="clip-path:url(#SVGID_00000129200111795961895100000010238065389401446835_);">
						<rect x="185.6" y="168.2" class="st56" width="0.3" height="33.6"/>
						<rect x="185.9" y="168.2" class="st57" width="0.3" height="33.6"/>
						<rect x="186.2" y="168.2" class="st58" width="0.3" height="33.6"/>
						<rect x="186.5" y="168.2" class="st59" width="0.3" height="33.6"/>
						<rect x="186.8" y="168.2" class="st60" width="0.3" height="33.6"/>
						<rect x="187.1" y="168.2" class="st61" width="0.3" height="33.6"/>
						<rect x="187.4" y="168.2" class="st62" width="0.3" height="33.6"/>
						<rect x="187.7" y="168.2" class="st63" width="0.3" height="33.6"/>
						<rect x="188" y="168.2" class="st64" width="0.3" height="33.6"/>
						<rect x="188.3" y="168.2" class="st65" width="0.3" height="33.6"/>
						<rect x="188.6" y="168.2" class="st66" width="0.3" height="33.6"/>
						<rect x="188.9" y="168.2" class="st67" width="0.3" height="33.6"/>
						<rect x="189.2" y="168.2" class="st68" width="0.3" height="33.6"/>
						<rect x="189.5" y="168.2" class="st69" width="0.3" height="33.6"/>
						<rect x="189.8" y="168.2" class="st70" width="0.3" height="33.6"/>
						<rect x="190.1" y="168.2" class="st71" width="0.3" height="33.6"/>
						<rect x="190.4" y="168.2" class="st72" width="0.3" height="33.6"/>
						<rect x="190.7" y="168.2" class="st73" width="0.3" height="33.6"/>
						<rect x="191" y="168.2" class="st74" width="0.3" height="33.6"/>
						<rect x="191.3" y="168.2" class="st75" width="0.3" height="33.6"/>
						<rect x="191.6" y="168.2" class="st76" width="0.3" height="33.6"/>
						<rect x="191.9" y="168.2" class="st77" width="0.3" height="33.6"/>
						<rect x="192.2" y="168.2" class="st78" width="0.3" height="33.6"/>
						<rect x="192.4" y="168.2" class="st79" width="0.3" height="33.6"/>
						<rect x="192.8" y="168.2" class="st80" width="0.3" height="33.6"/>
						<rect x="193.1" y="168.2" class="st81" width="0.3" height="33.6"/>
						<rect x="193.4" y="168.2" class="st82" width="0.3" height="33.6"/>
						<rect x="193.6" y="168.2" class="st83" width="0.3" height="33.6"/>
						<rect x="193.9" y="168.2" class="st84" width="0.3" height="33.6"/>
						<rect x="194.2" y="168.2" class="st85" width="0.3" height="33.6"/>
						<rect x="194.5" y="168.2" class="st86" width="0.3" height="33.6"/>
						<rect x="194.8" y="168.2" class="st87" width="0.3" height="33.6"/>
						<rect x="195.1" y="168.2" class="st88" width="0.3" height="33.6"/>
						<rect x="195.4" y="168.2" class="st89" width="0.3" height="33.6"/>
						<rect x="195.7" y="168.2" class="st90" width="0.3" height="33.6"/>
						<rect x="196" y="168.2" class="st91" width="0.3" height="33.6"/>
						<rect x="196.3" y="168.2" class="st92" width="0.3" height="33.6"/>
						<rect x="196.6" y="168.2" class="st48" width="0.3" height="33.6"/>
						<rect x="196.9" y="168.2" class="st48" width="0.9" height="33.6"/>
					</g>
				</g>
			</g>
			<path class="st49" d="M166.6,237.8c-0.4,0-0.7-0.3-0.7-0.6c-0.1-0.4,0.2-0.8,0.6-0.9c0.1,0,13.8-2.1,20.6-17
				c1.4-3.1,2.5-7.8,3-13.1c1.2-12.5-0.5-31-8.8-45.4c-2-3.5-4.3-6.6-6.9-9.2c-0.3-0.3-0.3-0.8,0-1.1s0.8-0.3,1.1,0
				c2.6,2.7,5,5.9,7.1,9.5c8.5,14.7,10.2,33.6,9,46.3c-0.5,5.6-1.6,10.3-3.1,13.6c-7.2,15.6-21.6,17.8-21.7,17.8
				C166.6,237.8,166.6,237.8,166.6,237.8L166.6,237.8z"/>
		</g>
	</g>
</g>
</svg>
