<svg xmlns="http://www.w3.org/2000/svg" width="28" height="28" viewBox="0 0 28 28">
  <g id="그룹_21349" data-name="그룹 21349" transform="translate(-5280 -2585)">
    <rect id="사각형_25733" data-name="사각형 25733" width="28" height="28" transform="translate(5280 2585)" fill="none"/>
    <g id="그룹_20705" data-name="그룹 20705" transform="translate(4727.921 2141.117)">
      <path id="패스_7840" data-name="패스 7840" d="M171.041,113.914a.676.676,0,0,0-.493-.214,17.441,17.441,0,0,0-3.988.59,16.711,16.711,0,0,0-7.56,4.154c-1.978,1.964-3.3,4.979-3.818,8.72a24.8,24.8,0,0,0-.195,5.077.672.672,0,0,0,.671.611l.059,0a.67.67,0,0,0,.613-.724,22.121,22.121,0,0,1,.005-2.875.672.672,0,0,0,.469.189c6.867,0,10.488-2.333,11.364-7.335a11.217,11.217,0,0,0,1.563-2.4,16.027,16.027,0,0,0,1.49-5.287A.674.674,0,0,0,171.041,113.914Zm-2.523,5.206a10.062,10.062,0,0,1-1.265,1.991l-.343.389a7.213,7.213,0,0,1-5.5,2.287.669.669,0,1,0,0,1.337,8.805,8.805,0,0,0,4.887-1.375,6,6,0,0,1-2.192,2.7c-1.643,1.114-4.033,1.655-7.306,1.655a.671.671,0,0,0-.386.122c.283-2.787,1.134-6.452,3.535-8.836a16.447,16.447,0,0,1,9.825-4.306A14.874,14.874,0,0,1,168.518,119.12Z" transform="translate(403.143 334.183)" fill="#191919" stroke="#191919" stroke-width="0.5"/>
    </g>
  </g>
</svg>
