<svg xmlns="http://www.w3.org/2000/svg" width="20" height="20" viewBox="0 0 20 20">
  <g id="그룹_21454" data-name="그룹 21454" transform="translate(-864 -335)">
    <g id="나ᄋ_하루_아이콘-02" data-name="나의하루 아이콘-02" transform="translate(867.607 337.712)">
      <line id="선_76" data-name="선 76" y2="1.753" transform="translate(6.325 0)" fill="none" stroke="#acacac" stroke-linecap="round" stroke-miterlimit="10" stroke-width="1"/>
      <line id="선_77" data-name="선 77" x2="1.518" y2="0.876" transform="translate(0 3.652)" fill="none" stroke="#acacac" stroke-linecap="round" stroke-miterlimit="10" stroke-width="1"/>
      <line id="선_78" data-name="선 78" y1="0.876" x2="1.518" transform="translate(0 10.079)" fill="none" stroke="#acacac" stroke-linecap="round" stroke-miterlimit="10" stroke-width="1"/>
      <line id="선_79" data-name="선 79" y1="1.753" transform="translate(6.325 12.854)" fill="none" stroke="#acacac" stroke-linecap="round" stroke-miterlimit="10" stroke-width="1"/>
      <line id="선_80" data-name="선 80" x1="1.518" y1="0.876" transform="translate(11.131 10.079)" fill="none" stroke="#acacac" stroke-linecap="round" stroke-miterlimit="10" stroke-width="1"/>
      <line id="선_81" data-name="선 81" x1="1.518" y2="0.876" transform="translate(11.131 3.652)" fill="none" stroke="#acacac" stroke-linecap="round" stroke-miterlimit="10" stroke-width="1"/>
      <path id="패스_7747" data-name="패스 7747" d="M207.47,238.07a1.458,1.458,0,0,0,1.692.359" transform="translate(-202.21 -229.231)" fill="rgba(0,0,0,0)" stroke="#acacac" stroke-linecap="round" stroke-miterlimit="10" stroke-width="1"/>
      <path id="패스_7748" data-name="패스 7748" d="M191.069,171.086a10.829,10.829,0,0,0-2.253-1.173c-1.4-.654-2.818-1.393-2.818-1.393s-.068,1.6-.2,3.137a10.772,10.772,0,0,0-.11,2.538,3.188,3.188,0,1,0,5.385-3.108Z" transform="translate(-182.234 -165.59)" fill="rgba(0,0,0,0)" stroke="#acacac" stroke-linejoin="round" stroke-width="1"/>
    </g>
    <rect id="사각형_24261" data-name="사각형 24261" width="20" height="20" transform="translate(864 335)" fill="none" opacity="0.5"/>
  </g>
</svg>
