<svg id="편집하기" xmlns="http://www.w3.org/2000/svg" width="28" height="28" viewBox="0 0 28 28">
  <g id="sns코멘트편집_sns코멘트편집" transform="translate(0.85 -1.29)">
    <path id="패스_8676" data-name="패스 8676" d="M12.35,16.1V13.27a1.4,1.4,0,0,1,1.4-1.4h0a1.4,1.4,0,0,1,1.4,1.4v2.92" fill="none" stroke="#1dafff" stroke-linecap="round" stroke-linejoin="round" stroke-width="1.3"/>
    <path id="패스_8677" data-name="패스 8677" d="M15.16,16.13V14.59a1.4,1.4,0,0,1,1.4-1.4h0a1.4,1.4,0,0,1,1.4,1.4v1.63" fill="none" stroke="#1dafff" stroke-linecap="round" stroke-linejoin="round" stroke-width="1.3"/>
    <path id="패스_8678" data-name="패스 8678" d="M17.98,16.17V14.8h1.4a1.4,1.4,0,0,1,1.4,1.4v2a.974.974,0,0,1-.02.24l-.47,4.67c-.12.67-.7,2.02-1.38,2.02H11.8c-.61,0-1.16-1.26-1.34-1.85L9.6,18.51a1.523,1.523,0,0,1-.06-.42V8.56a1.4,1.4,0,0,1,1.4-1.4h0a1.4,1.4,0,0,1,1.4,1.4v7.52" fill="none" stroke="#1dafff" stroke-linecap="round" stroke-linejoin="round" stroke-width="1.3"/>
    <g id="_그룹_21122">
      <line id="_선_175" y2="1.87" transform="translate(10.93 2.29)" fill="none" stroke="#1dafff" stroke-linecap="round" stroke-miterlimit="10" stroke-width="1.3"/>
      <line id="_선_176" x2="1.63" y2="0.94" transform="translate(4.15 6.2)" fill="none" stroke="#1dafff" stroke-linecap="round" stroke-miterlimit="10" stroke-width="1.3"/>
      <line id="_선_177" y1="0.94" x2="1.63" transform="translate(4.15 13.09)" fill="none" stroke="#1dafff" stroke-linecap="round" stroke-miterlimit="10" stroke-width="1.3"/>
      <line id="_선_180" x1="1.63" y2="0.94" transform="translate(16.08 6.2)" fill="none" stroke="#1dafff" stroke-linecap="round" stroke-miterlimit="10" stroke-width="1.3"/>
    </g>
  </g>
  <rect id="사각형_25623" data-name="사각형 25623" width="28" height="28" fill="none"/>
  <rect id="사각형_25624" data-name="사각형 25624" width="28" height="28" fill="none"/>
</svg>
