<svg xmlns="http://www.w3.org/2000/svg" xmlns:xlink="http://www.w3.org/1999/xlink" width="16.537" height="17.851" viewBox="0 0 16.537 17.851">
  <defs>
    <linearGradient id="linear-gradient" x1="0.5" x2="0.5" y2="1" gradientUnits="objectBoundingBox">
      <stop offset="0" stop-color="#9fa9ff"/>
      <stop offset="1" stop-color="#15afff"/>
    </linearGradient>
  </defs>
  <g id="그룹_20348" data-name="그룹 20348" transform="translate(-12865.999 -1155.782)">
    <g id="그룹_18846" data-name="그룹 18846" transform="translate(0.371)">
      <g id="아이콘ᄎ_종-03" data-name="아이콘최종-03" transform="translate(12865.629 1155.783)">
        <path id="합치기_2" data-name="합치기 2" d="M-13464-1124.933v-14.243h4.1v-3.609h1.273v3.609h5.782v-3.609h1.276v3.609h4.1v14.243Zm1.277-1.277h13.982V-1137.9h-2.825v2.264h-1.276v-2.264h-5.782v2.264h-1.273v-2.264h-2.825Zm7.215-4.3h1.26c.011.385.354.649.828.652a.725.725,0,0,0,.8-.71c.007-.416-.354-.713-.909-.716h-.514v-.97h.514a.727.727,0,0,0,.821-.693.662.662,0,0,0-.713-.669.722.722,0,0,0-.784.676h-1.2a1.83,1.83,0,0,1,1.994-1.737,1.722,1.722,0,0,1,1.905,1.649,1.171,1.171,0,0,1-1.04,1.2v.037a1.277,1.277,0,0,1,1.239,1.331c0,1-.908,1.713-2.118,1.713A1.871,1.871,0,0,1-13455.509-1130.511Zm-4.572,1.679v-.98l1.933-1.845c.453-.446.706-.743.713-1.179a.742.742,0,0,0-.777-.781.743.743,0,0,0-.757.835h-1.186a1.786,1.786,0,0,1,1.949-1.892,1.768,1.768,0,0,1,1.98,1.733c0,.662-.3,1.216-1.453,2.3l-.666.669v.041h2.184v1.1Z" transform="translate(13464 1142.783)" fill="url(#linear-gradient)"/>
      </g>
    </g>
  </g>
</svg>
