<svg id="추가버튼" xmlns="http://www.w3.org/2000/svg" xmlns:xlink="http://www.w3.org/1999/xlink" width="56" height="56" viewBox="0 0 56 56">
  <defs>
    <linearGradient id="linear-gradient" x2="0.854" y2="0.898" gradientUnits="objectBoundingBox">
      <stop offset="0" stop-color="#d2d7ff"/>
      <stop offset="1" stop-color="#aad7ff"/>
    </linearGradient>
  </defs>
  <g id="그룹_18815" data-name="그룹 18815" transform="translate(-11926 -1082)">
    <circle id="타원_58" data-name="타원 58" cx="28" cy="28" r="28" transform="translate(11926 1082)" fill="url(#linear-gradient)"/>
    <g id="카테고리_관리_일정_할일" data-name="카테고리 관리_일정, 할일" transform="translate(11946 1101)">
      <g id="그룹_20565" data-name="그룹 20565" transform="translate(2 2)">
        <rect id="사각형_25112" data-name="사각형 25112" width="28" height="28" transform="translate(-2 -2)" fill="none"/>
      </g>
      <g id="그룹_21410" data-name="그룹 21410" transform="translate(-485 -798)">
        <path id="합치기_30" data-name="합치기 30" d="M-11665.365-2957.635A8.948,8.948,0,0,1-11668-2964a8.953,8.953,0,0,1,2.635-6.366A8.95,8.95,0,0,1-11659-2973a8.951,8.951,0,0,1,6.363,2.635A8.954,8.954,0,0,1-11650-2964a8.949,8.949,0,0,1-2.636,6.363A8.952,8.952,0,0,1-11659-2955,8.956,8.956,0,0,1-11665.365-2957.635Zm-1.136-6.363a7.509,7.509,0,0,0,7.5,7.5,7.509,7.509,0,0,0,7.5-7.5,7.469,7.469,0,0,0-.533-2.779l-7.482,6.278a1.043,1.043,0,0,1-.286.167.771.771,0,0,1-.187.228.787.787,0,0,1-.5.185.787.787,0,0,1-.6-.281l-3.03-3.611a.787.787,0,0,1,.1-1.107.781.781,0,0,1,1.106.1l2.527,3.01,7.609-6.385a7.5,7.5,0,0,0-6.213-3.3A7.509,7.509,0,0,0-11666.5-2964Z" transform="translate(12158 3776)" fill="#fdfdfd"/>
      </g>
    </g>
  </g>
  <rect id="사각형_25740" data-name="사각형 25740" width="1.3" height="12" rx="0.65" transform="translate(19.35 13.533)" fill="#fdfdfd"/>
  <rect id="사각형_25741" data-name="사각형 25741" width="1.3" height="12" rx="0.65" transform="translate(26 18.883) rotate(90)" fill="#fdfdfd"/>
</svg>
