<svg xmlns="http://www.w3.org/2000/svg" width="28" height="28" viewBox="0 0 28 28">
  <g id="그룹_20760" data-name="그룹 20760" transform="translate(-10 -398)">
    <rect id="사각형_25193" data-name="사각형 25193" width="28" height="28" transform="translate(10 398)" fill="none"/>
    <g id="그룹_20732" data-name="그룹 20732" transform="translate(-9 -2)">
      <g id="레이어_4" transform="translate(-99.75 281.25)">
        <g id="그룹_20727" data-name="그룹 20727" transform="translate(122.75 122.75)">
          <path id="패스_7856" data-name="패스 7856" d="M132.714,122.75a9.964,9.964,0,1,0,9.964,9.964A9.976,9.976,0,0,0,132.714,122.75Zm0,18.288a8.325,8.325,0,1,1,8.325-8.325A8.334,8.334,0,0,1,132.714,141.038Z" transform="translate(-122.75 -122.75)" fill="#646464"/>
          <path id="패스_7857" data-name="패스 7857" d="M212.82,203.5a.819.819,0,0,0-.82.82v6.329a.82.82,0,1,0,1.639,0V204.32A.819.819,0,0,0,212.82,203.5Z" transform="translate(-202.856 -195.227)" fill="#646464"/>
          <circle id="타원_401" data-name="타원 401" cx="1.127" cy="1.127" r="1.127" transform="translate(8.837 4.636)" fill="#646464"/>
        </g>
      </g>
    </g>
  </g>
</svg>
