<svg xmlns="http://www.w3.org/2000/svg" width="83.755" height="93.827" viewBox="0 0 83.755 93.827">
  <g id="그룹_21468" data-name="그룹 21468" transform="translate(-152.524 -300.99)">
    <path id="패스_7747" data-name="패스 7747" d="M207.47,238.07s3.611,4.686,10.291,2.185" transform="translate(-19.545 119.168)" fill="rgba(0,0,0,0)" stroke="#dbdbdb" stroke-linecap="round" stroke-width="5"/>
    <line id="선_76" data-name="선 76" y2="10.658" transform="translate(194.404 303.49)" fill="none" stroke="#1dafff" stroke-linecap="round" stroke-width="5"/>
    <line id="선_77" data-name="선 77" x2="9.232" y2="5.326" transform="translate(155.938 325.699)" fill="none" stroke="#dbdbdb" stroke-linecap="round" stroke-width="5"/>
    <line id="선_78" data-name="선 78" y1="5.326" x2="9.232" transform="translate(155.938 364.782)" fill="none" stroke="#dbdbdb" stroke-linecap="round" stroke-width="5"/>
    <line id="선_79" data-name="선 79" y1="10.658" transform="translate(194.404 381.659)" fill="none" stroke="#dbdbdb" stroke-linecap="round" stroke-width="5"/>
    <line id="선_80" data-name="선 80" x1="9.232" y1="5.326" transform="translate(223.632 364.782)" fill="none" stroke="#dbdbdb" stroke-linecap="round" stroke-width="5"/>
    <line id="선_81" data-name="선 81" x1="9.232" y2="5.326" transform="translate(223.632 325.699)" fill="none" stroke="#1dafff" stroke-linecap="round" stroke-width="5"/>
    <path id="패스_7748" data-name="패스 7748" d="M218.652,184.127c-4.319-3.317-8.219-4.577-13.7-7.134-8.519-3.978-17.136-8.473-17.136-8.473s-.413,9.712-1.229,19.079c-.527,6.024-1.39,10.033-.672,15.431,1.178,8.907,13.809,19.378,28.218,11.061s11.65-24.493,4.531-29.964Z" transform="translate(-8.989 152.788)" fill="rgba(0,0,0,0)" stroke="#dbdbdb" stroke-linejoin="round" stroke-width="5"/>
  </g>
</svg>
