<svg xmlns="http://www.w3.org/2000/svg" width="28" height="28" viewBox="0 0 28 28">
  <g id="그룹_20762" data-name="그룹 20762" transform="translate(-12 -494)">
    <rect id="사각형_25195" data-name="사각형 25195" width="28" height="28" transform="translate(12 494)" fill="none"/>
    <g id="그룹_20730" data-name="그룹 20730" transform="translate(-7)">
      <g id="레이어_4" transform="translate(-81.23 406.75)">
        <g id="그룹_20729" data-name="그룹 20729" transform="translate(105.23 91.25)">
          <path id="패스_7860" data-name="패스 7860" d="M151.4,101.722a5.236,5.236,0,1,0-5.236-5.236A5.241,5.241,0,0,0,151.4,101.722Zm0-9.24a4,4,0,1,1-4,4A4.009,4.009,0,0,1,151.4,92.482Z" transform="translate(-143.008 -91.25)" fill="#646464" stroke="#646464" stroke-width="0.3"/>
          <path id="패스_7861" data-name="패스 7861" d="M113.579,245.25H110.85c-3.1,0-5.62,2.161-5.62,4.816v1.305a.616.616,0,0,0,1.232,0v-1.305c0-1.977,1.969-3.584,4.388-3.584h2.729a.616.616,0,1,0,0-1.232Z" transform="translate(-105.23 -233.392)" fill="#646464" stroke="#646464" stroke-width="0.3"/>
          <path id="패스_7862" data-name="패스 7862" d="M230.215,233.985h-3.1v-3.339a.616.616,0,0,0-1.232,0v3.339h-3.1a.616.616,0,1,0,0,1.232h3.1v3.339a.616.616,0,1,0,1.232,0v-3.339h3.1a.616.616,0,1,0,0-1.232Z" transform="translate(-213.157 -219.344)" fill="#646464" stroke="#646464" stroke-width="0.3"/>
        </g>
      </g>
    </g>
  </g>
</svg>
