<svg xmlns="http://www.w3.org/2000/svg" width="28" height="28" viewBox="0 0 28 28">
  <g id="그룹_20783" data-name="그룹 20783" transform="translate(-424 -320)">
    <g id="메모" transform="translate(424 320)">
      <g id="그룹_18941" data-name="그룹 18941" transform="translate(8.734 8.015)">
        <g id="그룹_18924" data-name="그룹 18924" transform="translate(0)">
          <g id="나ᄋ_하루_아이콘-06" data-name="나의하루 아이콘-06" transform="translate(0 0)">
            <path id="패스_7756" data-name="패스 7756" d="M177.11,175.833v8.293a1.424,1.424,0,0,0,1.423,1.423h3.034a1.423,1.423,0,0,0,1.087-.5l4.6-5.448a1.419,1.419,0,0,0,.336-.919v-2.845a1.424,1.424,0,0,0-1.423-1.423h-7.635A1.424,1.424,0,0,0,177.11,175.833Z" transform="translate(-177.11 -174.41)" fill="none" stroke="#acacac" stroke-miterlimit="10" stroke-width="1.3"/>
            <path id="패스_7757" data-name="패스 7757" d="M219,221.146v-5.581a.605.605,0,0,1,.6-.6h4.618" transform="translate(-213.882 -210.006)" fill="none" stroke="#acacac" stroke-miterlimit="10" stroke-width="1.3"/>
          </g>
        </g>
      </g>
      <rect id="사각형_24264" data-name="사각형 24264" width="28" height="28" fill="none" opacity="0.5"/>
    </g>
  </g>
</svg>
