<svg xmlns="http://www.w3.org/2000/svg" xmlns:xlink="http://www.w3.org/1999/xlink" width="56" height="56" viewBox="0 0 56 56">
  <defs>
    <linearGradient id="linear-gradient" x2="1" y2="1" gradientUnits="objectBoundingBox">
      <stop offset="0" stop-color="#d2d7ff"/>
      <stop offset="1" stop-color="#aad7ff"/>
    </linearGradient>
  </defs>
  <g id="그룹_21261" data-name="그룹 21261" transform="translate(-1212 -457)">
    <g id="추가버튼" transform="translate(1212 457)">
      <g id="그룹_18815" data-name="그룹 18815" transform="translate(-11926 -1082)">
        <circle id="타원_58" data-name="타원 58" cx="28" cy="28" r="28" transform="translate(11926 1082)" fill="url(#linear-gradient)"/>
        <g id="그룹_21311" data-name="그룹 21311" transform="translate(11940 1087)">
          <g id="그룹_20706" data-name="그룹 20706" transform="translate(-561 -420.965)">
            <g id="그룹_20705" data-name="그룹 20705" transform="translate(12 -22.035)">
              <path id="패스_7840" data-name="패스 7840" d="M166.648,113.856a.492.492,0,0,0-.359-.156,12.683,12.683,0,0,0-2.9.429,12.152,12.152,0,0,0-5.5,3.021,10.931,10.931,0,0,0-2.776,6.342,18.037,18.037,0,0,0-.141,3.692.488.488,0,0,0,.488.444l.043,0a.487.487,0,0,0,.446-.526,16.085,16.085,0,0,1,0-2.091.489.489,0,0,0,.341.138c4.994,0,7.627-1.7,8.264-5.334a8.157,8.157,0,0,0,1.136-1.746,11.655,11.655,0,0,0,1.083-3.845A.49.49,0,0,0,166.648,113.856Zm-1.835,3.786a7.317,7.317,0,0,1-.92,1.448l-.249.283a5.245,5.245,0,0,1-4,1.663.486.486,0,1,0,0,.972,6.4,6.4,0,0,0,3.554-1,4.365,4.365,0,0,1-1.594,1.962,9.44,9.44,0,0,1-5.313,1.2.488.488,0,0,0-.281.089c.206-2.027.825-4.692,2.571-6.425a11.96,11.96,0,0,1,7.145-3.131A10.817,10.817,0,0,1,164.813,117.642Z" transform="translate(407.585 334.408)" fill="#fdfdfd" stroke="#fdfdfd" stroke-width="0.5"/>
            </g>
          </g>
          <rect id="사각형_25169" data-name="사각형 25169" width="28" height="28" fill="none" opacity="0.5"/>
          <path id="패스_8644" data-name="패스 8644" d="M6623.06,3887.449l4.547-2.9s-3.256,4.845-.456,4.845,11.653-4.845,11.653-4.845" transform="translate(-6619.06 -3865.87)" fill="none" stroke="#fdfdfd" stroke-linecap="round" stroke-linejoin="round" stroke-width="1.3"/>
        </g>
      </g>
      <text id="그리기" transform="translate(8 32)" fill="#fdfdfd" font-size="12" font-family="Pretendard Variable"><tspan x="4.443" y="11">그리기</tspan></text>
    </g>
  </g>
</svg>
