<svg id="구성_요소_52_4" data-name="구성 요소 52 – 4" xmlns="http://www.w3.org/2000/svg" xmlns:xlink="http://www.w3.org/1999/xlink" width="28" height="28" viewBox="0 0 28 28">
  <defs>
    <linearGradient id="linear-gradient" x2="1" y2="1" gradientUnits="objectBoundingBox">
      <stop offset="0" stop-color="#9ea9ff"/>
      <stop offset="1" stop-color="#1dafff"/>
    </linearGradient>
    <clipPath id="clip-path">
      <rect id="사각형_25709" data-name="사각형 25709" width="22.506" height="18.44" transform="translate(0 0)" fill="url(#linear-gradient)"/>
    </clipPath>
  </defs>
  <rect id="사각형_25704" data-name="사각형 25704" width="28" height="28" fill="none"/>
  <g id="그룹_21276" data-name="그룹 21276" transform="translate(3 7)">
    <g id="그룹_21275" data-name="그룹 21275" clip-path="url(#clip-path)">
      <path id="패스_9133" data-name="패스 9133" d="M4.585,8.638v9.8H3.139A2.929,2.929,0,0,1,0,15.78V8.638ZM4.585,0H3.139A2.929,2.929,0,0,0,0,2.66V4.638H4.585ZM22.506,4.638V2.66A2.929,2.929,0,0,0,19.367,0H8.585V4.638ZM8.585,18.44H19.367a2.929,2.929,0,0,0,3.139-2.66V8.638H8.585Z" fill="url(#linear-gradient)"/>
    </g>
  </g>
</svg>
