<svg xmlns="http://www.w3.org/2000/svg" width="28" height="28" viewBox="0 0 28 28">
  <g id="그룹_20574" data-name="그룹 20574" transform="translate(-149 -726)">
    <g id="그룹_20496" data-name="그룹 20496" transform="translate(0 -95)">
      <g id="그룹_18844" data-name="그룹 18844" transform="translate(149.706 822.465)">
        <g id="그룹_18838" data-name="그룹 18838">
          <path id="아이콘ᄎ_종-02" data-name="아이콘최종-02" d="M193.6,181.372a8.644,8.644,0,1,0,2.532,6.112A8.588,8.588,0,0,0,193.6,181.372Zm-.9,11.323a7.369,7.369,0,1,1,0-10.421,7.471,7.471,0,0,1,.832.99l-7.7,6.813-3.028-4-1.017.769,3.859,5.1,8.535-7.553a7.381,7.381,0,0,1-1.482,8.3Z" transform="translate(-174.546 -175.305)" fill="#646464"/>
        </g>
      </g>
      <rect id="사각형_25075" data-name="사각형 25075" width="28" height="28" transform="translate(149 821)" fill="none" opacity="0.5"/>
    </g>
  </g>
</svg>
