<svg id="구성_요소_44_30" data-name="구성 요소 44 – 30" xmlns="http://www.w3.org/2000/svg" width="28" height="28" viewBox="0 0 28 28">
  <g id="my_설정" transform="translate(-0.52 -0.51)">
    <path id="패스_8730" data-name="패스 8730" d="M24.52,15.437V13.583a.872.872,0,0,0-.875-.875H22.4a.893.893,0,0,1-.832-.622,6.456,6.456,0,0,0-.348-.843.893.893,0,0,1,.148-1.033l.875-.875a.871.871,0,0,0,0-1.243L20.937,6.786a.871.871,0,0,0-1.243,0l-.875.875a.893.893,0,0,1-1.033.148,5.906,5.906,0,0,0-.843-.348.889.889,0,0,1-.622-.832V5.385a.872.872,0,0,0-.875-.875H13.593a.872.872,0,0,0-.875.875V6.628a.893.893,0,0,1-.622.832,6.457,6.457,0,0,0-.843.348.893.893,0,0,1-1.033-.148l-.875-.875a.871.871,0,0,0-1.243,0L6.8,8.093a.871.871,0,0,0,0,1.243l.875.875a.893.893,0,0,1,.148,1.033,5.906,5.906,0,0,0-.348.843.889.889,0,0,1-.832.622H5.395a.872.872,0,0,0-.875.875v1.855a.872.872,0,0,0,.875.875H6.638a.893.893,0,0,1,.832.622,6.457,6.457,0,0,0,.348.843.893.893,0,0,1-.148,1.033l-.875.875a.871.871,0,0,0,0,1.243L8.1,22.234a.871.871,0,0,0,1.243,0l.875-.875a.893.893,0,0,1,1.033-.148,5.907,5.907,0,0,0,.843.348.889.889,0,0,1,.622.832v1.243a.872.872,0,0,0,.875.875h1.855a.872.872,0,0,0,.875-.875V22.392a.893.893,0,0,1,.622-.832,6.457,6.457,0,0,0,.843-.348.893.893,0,0,1,1.033.148l.875.875a.871.871,0,0,0,1.243,0l1.307-1.307a.871.871,0,0,0,0-1.243l-.875-.875a.893.893,0,0,1-.148-1.033,5.906,5.906,0,0,0,.348-.843.889.889,0,0,1,.832-.622h1.243a.872.872,0,0,0,.875-.875Z" fill="none" stroke="#191919" stroke-linecap="round" stroke-linejoin="round" stroke-width="1.3"/>
    <circle id="타원_418" data-name="타원 418" cx="2.63" cy="2.63" r="2.63" transform="translate(11.879 11.88)" fill="none" stroke="#191919" stroke-linecap="round" stroke-linejoin="round" stroke-width="1.3"/>
  </g>
  <rect id="사각형_25678" data-name="사각형 25678" width="28" height="28" fill="none"/>
</svg>
