<svg xmlns="http://www.w3.org/2000/svg" xmlns:xlink="http://www.w3.org/1999/xlink" width="56" height="56" viewBox="0 0 56 56">
  <defs>
    <linearGradient id="linear-gradient" x2="1" y2="1" gradientUnits="objectBoundingBox">
      <stop offset="0" stop-color="#d2d7ff"/>
      <stop offset="1" stop-color="#aad7ff"/>
    </linearGradient>
  </defs>
  <g id="그룹_21261" data-name="그룹 21261" transform="translate(-1212 -457)">
    <g id="추가버튼" transform="translate(1212 457)">
      <g id="그룹_18815" data-name="그룹 18815" transform="translate(-11926 -1082)">
        <circle id="타원_58" data-name="타원 58" cx="28" cy="28" r="28" transform="translate(11926 1082)" fill="url(#linear-gradient)"/>
        <g id="그룹_21311" data-name="그룹 21311" transform="translate(11942 1097)">
          <rect id="사각형_25169" data-name="사각형 25169" width="28" height="28" fill="none" opacity="0.5"/>
          <path id="패스_8644" data-name="패스 8644" d="M6623.06,3887.449l4.547-2.9s-3.256,4.845-.456,4.845,11.653-4.845,11.653-4.845" transform="translate(-6622.06 -3862.87)" fill="none" stroke="#fdfdfd" stroke-linecap="round" stroke-linejoin="round" stroke-width="1.3"/>
          <g id="그룹_21360" data-name="그룹 21360" transform="translate(-546.477 -447)">
            <path id="패스_7840" data-name="패스 7840" d="M171.041,113.914a.676.676,0,0,0-.493-.214,17.441,17.441,0,0,0-3.988.59,16.711,16.711,0,0,0-7.56,4.154c-1.978,1.964-3.3,4.979-3.818,8.72a24.8,24.8,0,0,0-.195,5.077.672.672,0,0,0,.671.611l.059,0a.67.67,0,0,0,.613-.724,22.121,22.121,0,0,1,.005-2.875.672.672,0,0,0,.469.189c6.867,0,10.488-2.333,11.364-7.335a11.217,11.217,0,0,0,1.563-2.4,16.027,16.027,0,0,0,1.49-5.287A.674.674,0,0,0,171.041,113.914Zm-2.523,5.206a10.062,10.062,0,0,1-1.265,1.991l-.343.389a7.213,7.213,0,0,1-5.5,2.287.669.669,0,1,0,0,1.337,8.805,8.805,0,0,0,4.887-1.375,6,6,0,0,1-2.192,2.7c-1.643,1.114-4.033,1.655-7.306,1.655a.671.671,0,0,0-.386.122c.283-2.787,1.134-6.452,3.535-8.836a16.447,16.447,0,0,1,9.825-4.306A14.874,14.874,0,0,1,168.518,119.12Z" transform="translate(403.143 334.183)" fill="#fdfdfd" stroke="#fdfdfd" stroke-width="0.5"/>
          </g>
        </g>
      </g>
      <rect id="사각형_25734" data-name="사각형 25734" width="1.3" height="12" rx="0.65" transform="translate(19.35 13.533)" fill="#fdfdfd"/>
      <rect id="사각형_25735" data-name="사각형 25735" width="1.3" height="12" rx="0.65" transform="translate(26 18.883) rotate(90)" fill="#fdfdfd"/>
    </g>
  </g>
</svg>
