<svg xmlns="http://www.w3.org/2000/svg" xmlns:xlink="http://www.w3.org/1999/xlink" width="162.136" height="194.655" viewBox="0 0 162.136 194.655">
  <defs>
    <radialGradient id="radial-gradient" cx="0.5" cy="0.5" r="0.386" gradientUnits="objectBoundingBox">
      <stop offset="0" stop-color="#aad7ff"/>
      <stop offset="1" stop-color="#d2d7ff"/>
    </radialGradient>
    <radialGradient id="radial-gradient-2" cx="0.5" cy="0.5" r="0.46" xlink:href="#radial-gradient"/>
    <radialGradient id="radial-gradient-3" cx="0.5" cy="0.5" r="0.49" xlink:href="#radial-gradient"/>
  </defs>
  <g id="그룹_21197" data-name="그룹 21197" transform="translate(1.356 1.376)">
    <g id="캐릭터_포즈3" transform="translate(0 0)">
      <path id="패스_8975" data-name="패스 8975" d="M291.406,264.958a19.479,19.479,0,0,1-3.063-.275,1.069,1.069,0,0,1-.928-.647c-1.529-3.275,3.309-14.33,7.964-22.707a58.907,58.907,0,0,1,2.09,12.55c.366,4.9-.16,8.038-1.6,9.6-.922,1-2.382,1.477-4.46,1.477Z" transform="translate(-168.643 -144.62)" fill="url(#radial-gradient)"/>
      <path id="패스_8976" data-name="패스 8976" d="M293.5,243.2a71.253,71.253,0,0,1,.985,7.844c.4,5.4-.406,7.494-1.151,8.3-.212.229-.865.927-3.2.927a17.384,17.384,0,0,1-2.5-.206c-.132-.893-.132-4.139,3.882-12.808.653-1.414,1.334-2.788,1.981-4.065m.9-8.788s-16.518,27.579-7.6,29a21.352,21.352,0,0,0,3.332.3c6.327,0,8.445-3.968,7.775-12.922-.893-12.017-3.5-16.38-3.5-16.38h0Z" transform="translate(-167.374 -141.662)" fill="#fff"/>
      <path id="패스_8977" data-name="패스 8977" d="M294.412,234.42s2.611,4.363,3.5,16.38c.773,10.374-2.193,14.05-11.107,12.624S294.412,234.42,294.412,234.42Z" transform="translate(-167.378 -141.666)" fill="none" stroke="#577aca" stroke-linecap="round" stroke-linejoin="round" stroke-width="2"/>
      <path id="패스_8978" data-name="패스 8978" d="M236.16,311.5s10,21.985-.384,25.46c0,0-6.63-2.347-6.7-2.788s-2.342-14.182-2.342-14.182l9.424-8.491" transform="translate(-142.825 -174.616)" fill="#fff" stroke="#577aca" stroke-linecap="round" stroke-linejoin="round" stroke-width="2"/>
      <path id="패스_8979" data-name="패스 8979" d="M137.98,327.224c4.809.08,9.6.756,12.911,2.554a88.892,88.892,0,0,1,9.922,5.96l33.5,11.422s16.844-14.955-3.183-20.291c0,0,6.722-13.89,5.554-23.388s-40.346-9.063-40.346-9.063l-17.376,11.708" transform="translate(-104.888 -167.312)" fill="#fff" stroke="#577aca" stroke-linecap="round" stroke-linejoin="round" stroke-width="2"/>
      <path id="패스_8980" data-name="패스 8980" d="M155.492,290.15,136.621,304.3s-8.954,15.561-.515,21.1" transform="translate(-102.538 -165.489)" fill="#fff" stroke="#577aca" stroke-linecap="round" stroke-linejoin="round" stroke-width="2"/>
      <path id="패스_8981" data-name="패스 8981" d="M158.495,293.768c-1.122,3.859-5.239,8.811-14.542,5.645-9.9-3.372-12.716-8.307-12.418-15.086.16-3.727,4.672-10.827,4.672-10.827s6.332-7.666,16.214-1.889Z" transform="translate(-102.123 -156.643)" fill="#fff" stroke="#577aca" stroke-linecap="round" stroke-linejoin="round" stroke-width="2"/>
      <path id="패스_8982" data-name="패스 8982" d="M193.807,242.527c.16.023.361.046.59.063,10.592.79,18.842-2.519,25.375-14.914,1.334-2.525,4.62-10.666,5.41-14.64.04-.218,1.449-7.311,1.489-7.523a39.47,39.47,0,0,0-13.678-37.879l-27.23-14.445c-9.83-4.838-25.552-1.992-37.913,5.256l-19.959,35.091a30.827,30.827,0,0,0,8.5,27.487l57.4,21.5Z" transform="translate(-100.341 -105.917)" fill="#fff" stroke="#577aca" stroke-linecap="round" stroke-linejoin="round" stroke-width="2"/>
      <path id="패스_8983" data-name="패스 8983" d="M204.206,284.069l-4.283.813-11.88-1.632c-7.048-7.643-22.243-8.17-22.243-8.17l-4.431,7.38c-2.874,8.869,5.989,16.684,15.3,17.016h.115c2.319.074,6.825-1.214,8.113-3.138l1.981-4.174,11.657.836,4.695,2.742.968-11.685Z" transform="translate(-114.65 -159.047)" fill="#aad7ff" stroke="#577aca" stroke-linecap="round" stroke-linejoin="round" stroke-width="2"/>
      <path id="패스_8984" data-name="패스 8984" d="M211.478,212.526s-6.183-2.594-11.038.269" transform="translate(-131.587 -131.847)" fill="none" stroke="#577aca" stroke-linecap="round" stroke-linejoin="round" stroke-width="2"/>
      <path id="패스_8985" data-name="패스 8985" d="M279.87,244.97a8.416,8.416,0,0,1,4.088,6.773" transform="translate(-165.541 -146.176)" fill="none" stroke="#577aca" stroke-linecap="round" stroke-linejoin="round" stroke-width="2"/>
      <path id="패스_8989" data-name="패스 8989" d="M237.474,149.19s-14.68,2.714-11.285,11.147a12.317,12.317,0,0,0,8.691,7.019c5,1.065,5.914-6.034,5.914-6.034Z" transform="translate(-142.376 -105.233)" fill="#d2d7ff" stroke="#577aca" stroke-linecap="round" stroke-linejoin="round" stroke-width="2"/>
      <path id="패스_8990" data-name="패스 8990" d="M272.007,169.2s-6.069,4.952-17.737-3.206a19.034,19.034,0,0,1-8.027-16.815L272.007,169.2Z" transform="translate(-151.145 -105.229)" fill="#aad7ff" stroke="#577aca" stroke-linecap="round" stroke-linejoin="round" stroke-width="2"/>
      <path id="패스_8991" data-name="패스 8991" d="M277.794,186.174c-4.449,3.372-5.433,11.342,2.25,12.573s10.964-4.678,6.017-13.277Z" transform="translate(-163.184 -120.742)" fill="#d2d7ff" stroke="#577aca" stroke-linecap="round" stroke-linejoin="round" stroke-width="2"/>
      <path id="패스_8992" data-name="패스 8992" d="M221.053,112.42s2.176,8.365-.939,11.107-8.771,6.464-4.592,10.867" transform="translate(-137.4 -89.515)" fill="none" stroke="#577aca" stroke-linecap="round" stroke-linejoin="round" stroke-width="2"/>
      <path id="패스_8993" data-name="패스 8993" d="M269.227,359.407a17.07,17.07,0,0,1-1.924-.114c-3.149-.361-5.428-1.815-6.418-4.1-1.282-2.954-.315-7.054,2.588-10.958a34.625,34.625,0,0,1,6.447-6.4c1.179.664,4.758,4,7.695,11.222a7.142,7.142,0,0,1-.389,6.848c-1.494,2.221-4.409,3.5-8,3.5h0Z" transform="translate(-157.188 -185.875)" fill="url(#radial-gradient-2)"/>
      <path id="패스_8994" data-name="패스 8994" d="M269.675,337.917h0m-1.013.807a28.312,28.312,0,0,1,6.075,9.7,5.492,5.492,0,0,1-.223,5.239c-1.168,1.741-3.567,2.737-6.573,2.737a15.041,15.041,0,0,1-1.729-.1c-1.775-.206-4.094-.9-5.033-3.074-1.036-2.382-.137-5.846,2.393-9.252a31.788,31.788,0,0,1,5.1-5.244m0-3.9a1.8,1.8,0,0,0-1.082.366,36.272,36.272,0,0,0-6.779,6.733c-6.309,8.5-3.71,16.792,5.01,17.789a18.174,18.174,0,0,0,2.118.126c8.307,0,12.71-6.012,9.979-12.7-2.989-7.346-6.762-11.107-8.353-12.058a1.758,1.758,0,0,0-.9-.246h0Z" transform="translate(-155.901 -184.584)" fill="#fff"/>
      <path id="패스_8995" data-name="패스 8995" d="M269.566,335.065a1.765,1.765,0,0,0-1.981.12,36.269,36.269,0,0,0-6.779,6.733c-6.309,8.5-3.71,16.792,5.01,17.789,9.653,1.105,15.052-5.336,12.1-12.584C274.931,339.777,271.158,336.015,269.566,335.065Z" transform="translate(-155.901 -184.583)" fill="none" stroke="#577aca" stroke-linecap="round" stroke-linejoin="round" stroke-width="2"/>
      <path id="패스_8996" data-name="패스 8996" d="M276.01,378.51a134.165,134.165,0,0,1,.727,15.653s3.739,2.559,6.544.281a9.388,9.388,0,0,0,3.332-4.357s-6.687-.326-9.882,4.076" transform="translate(-163.891 -203.26)" fill="none" stroke="#577aca" stroke-linecap="round" stroke-linejoin="round" stroke-width="2"/>
      <path id="패스_8997" data-name="패스 8997" d="M268.474,398.746c-1.225-5.273-11.794-9.516-11.794-9.516s.389,9.991,11.794,9.516" transform="translate(-155.628 -207.843)" fill="none" stroke="#577aca" stroke-linecap="round" stroke-linejoin="round" stroke-width="2"/>
      <path id="패스_8998" data-name="패스 8998" d="M289.65,404.51c7.34-.263,4.42-1.975,11.073-1.162,6.109.744,3.63,1.534,12.67,1.534h12.166" transform="translate(-169.721 -213.785)" fill="none" stroke="#577aca" stroke-linecap="round" stroke-linejoin="round" stroke-width="2"/>
      <path id="패스_8999" data-name="패스 8999" d="M248.455,390.805s-8.536-4.3-12.075-4.265" transform="translate(-146.95 -206.692)" fill="none" stroke="#577aca" stroke-linecap="round" stroke-linejoin="round" stroke-width="2"/>
      <path id="패스_9000" data-name="패스 9000" d="M80.18,346.71c4.735,2.565,16.6,4.214,23.577,3.384a72.03,72.03,0,0,1,9.515-.515" transform="translate(-80.18 -189.667)" fill="none" stroke="#577aca" stroke-linecap="round" stroke-linejoin="round" stroke-width="2"/>
      <path id="패스_9001" data-name="패스 9001" d="M221.419,94.891,222.9,97.7a.718.718,0,0,0,.538.366l3.315.452a.659.659,0,0,1,.4,1.145l-2.4,2.181a.641.641,0,0,0-.206.6l.567,3.08a.706.706,0,0,1-1.042.7l-2.966-1.454a.764.764,0,0,0-.67,0l-2.966,1.454a.71.71,0,0,1-1.042-.7l.567-3.08a.655.655,0,0,0-.206-.6l-2.4-2.181a.662.662,0,0,1,.4-1.145l3.315-.452a.708.708,0,0,0,.538-.366l1.483-2.805a.742.742,0,0,1,1.288,0Z" transform="translate(-137.457 -81.863)" fill="#aad7ff" stroke="#577aca" stroke-linecap="round" stroke-linejoin="round" stroke-width="2"/>
      <path id="패스_9002" data-name="패스 9002" d="M184.27,336.18c16.271,2.473,20.417,4.351,11.336,21.831" transform="translate(-124.675 -185.165)" fill="#fff" stroke="#577aca" stroke-linecap="round" stroke-linejoin="round" stroke-width="2"/>
      <ellipse id="타원_629" data-name="타원 629" cx="3.933" cy="5.931" rx="3.933" ry="5.931" transform="translate(85.622 125.022)" fill="#aad7ff" stroke="#577aca" stroke-linecap="round" stroke-linejoin="round" stroke-width="2"/>
      <ellipse id="타원_630" data-name="타원 630" cx="26.239" cy="28.398" rx="26.239" ry="28.398" transform="matrix(0.524, -0.852, 0.852, 0.524, 83.532, 44.697)" fill="#d2d7ff" stroke="#577aca" stroke-linecap="round" stroke-linejoin="round" stroke-width="2"/>
      <path id="패스_9003" data-name="패스 9003" d="M250.8,139.421s7.311-9.842,8.857-10.523c2.084-.916,28.993,19.283,28.506,20.737s-10.489,9.138-10.489,9.138-19.73-.338-26.875-19.357Z" transform="translate(-153.114 -96.546)" fill="#fff" stroke="#577aca" stroke-linecap="round" stroke-linejoin="round" stroke-width="2"/>
      <path id="패스_9004" data-name="패스 9004" d="M273.12,137.23s.813,4.632,2.032,5.33" transform="translate(-162.655 -100.121)" fill="none" stroke="#577aca" stroke-linecap="round" stroke-linejoin="round" stroke-width="2"/>
      <g id="그룹_21183" data-name="그룹 21183" transform="translate(66.456 42.344)">
        <path id="패스_8986" data-name="패스 8986" d="M273.815,254.47a2.151,2.151,0,0,0-3.7.263c-1.849,3.452-1.151,6.922.189,7.872,2.7,1.924,4.672-.492,4.672-2.347A11.1,11.1,0,0,0,273.815,254.47Z" transform="translate(-227.345 -192.18)" fill="#577aca"/>
        <path id="패스_8987" data-name="패스 8987" d="M204.245,222.909c1.752.08,2.267,1.884,1.391,3.693-1.254,2.588-4.626,5.857-6.4,4.992-3.561-1.735-3.79-5.176-1.466-7.088,2.387-1.958,4.517-1.689,6.464-1.6Z" transform="translate(-196.255 -179.061)" fill="#577aca"/>
        <path id="패스_8988" data-name="패스 8988" d="M239.11,258.778c1.746-.67,3.87.378,3.985,2.181s-1.517,1.987-3.212,1.111-2.657-2.565-.767-3.292Z" transform="translate(-214.133 -194.335)" fill="#577aca"/>
        <ellipse id="타원_631" data-name="타원 631" cx="3.109" cy="1.769" rx="3.109" ry="1.769" transform="matrix(0.511, -0.859, 0.859, 0.511, 38.262, 5.343)" fill="#577aca" stroke="#577aca" stroke-width="1"/>
        <ellipse id="타원_632" data-name="타원 632" cx="2.96" cy="1.769" rx="2.96" ry="1.769" transform="matrix(0.511, -0.859, 0.859, 0.511, 52.598, 14.226)" fill="#577aca" stroke="#577aca" stroke-width="1"/>
      </g>
      <path id="패스_9005" data-name="패스 9005" d="M273.53,165.44h2.616v1.969" transform="translate(-162.831 -112.18)" fill="none" stroke="#577aca" stroke-linecap="round" stroke-linejoin="round" stroke-width="2"/>
      <path id="패스_9006" data-name="패스 9006" d="M126.739,199.446a11.507,11.507,0,0,1-5.508-1.271,14.89,14.89,0,0,1-6.819-9.069c-1.128-4.426-.143-9.1,2.931-13.907,4.357-6.807,13.89-8.239,21.121-8.239a57.838,57.838,0,0,1,6.063.326.674.674,0,0,1,.487.281.691.691,0,0,1,.12.55c-2.639,12.825-5.388,22.449-7.357,25.758-2.01,3.378-6.344,5.565-11.044,5.565h0Z" transform="translate(-94.62 -112.83)" fill="url(#radial-gradient-3)"/>
      <path id="패스_9007" data-name="패스 9007" d="M137.187,167.391c1.832,0,3.481.1,4.758.206-2.5,11.914-5.13,21.1-6.922,24.115-1.706,2.868-5.462,4.723-9.567,4.723a9.959,9.959,0,0,1-4.683-1.059,13.084,13.084,0,0,1-5.977-7.987c-1.008-3.945-.1-8.17,2.714-12.556,3.939-6.155,12.871-7.449,19.678-7.449m0-3.435c-7.494,0-17.76,1.517-22.569,9.029-8.056,12.59-1.042,22.363,4.512,25.409a13.254,13.254,0,0,0,6.332,1.483c4.8,0,9.985-2.136,12.521-6.407,2.983-5.015,6.315-20.228,7.563-26.291a2.409,2.409,0,0,0-2.107-2.886,58.467,58.467,0,0,0-6.246-.338h0Z" transform="translate(-93.342 -111.543)" fill="#fff"/>
      <path id="패스_9008" data-name="패스 9008" d="M145.546,167.184a2.409,2.409,0,0,0-2.107-2.886c-6.326-.681-22.415-1.317-28.821,8.691-8.056,12.59-1.042,22.363,4.512,25.409s15.1,1.391,18.854-4.924c2.983-5.015,6.315-20.228,7.563-26.291Z" transform="translate(-93.342 -111.548)" fill="none" stroke="#577aca" stroke-linecap="round" stroke-linejoin="round" stroke-width="2"/>
    </g>
  </g>
</svg>
