<svg id="구성_요소_50_4" data-name="구성 요소 50 – 4" xmlns="http://www.w3.org/2000/svg" xmlns:xlink="http://www.w3.org/1999/xlink" width="28" height="28" viewBox="0 0 28 28">
  <defs>
    <linearGradient id="linear-gradient" x1="0.5" x2="0.5" y2="1" gradientUnits="objectBoundingBox">
      <stop offset="0" stop-color="#acacac"/>
      <stop offset="1" stop-color="#565656"/>
    </linearGradient>
    <clipPath id="clip-path">
      <rect id="사각형_25707" data-name="사각형 25707" width="22.806" height="21.231" transform="translate(0 0)" fill="url(#linear-gradient)"/>
    </clipPath>
    <linearGradient id="linear-gradient-2" x2="1" y2="1" gradientUnits="objectBoundingBox">
      <stop offset="0" stop-color="#9ea9ff"/>
      <stop offset="1" stop-color="#1dafff"/>
    </linearGradient>
  </defs>
  <rect id="사각형_25703" data-name="사각형 25703" width="28" height="28" fill="none"/>
  <g id="그룹_21272" data-name="그룹 21272" transform="translate(3 3)">
    <g id="그룹_21271" data-name="그룹 21271" clip-path="url(#clip-path)">
      <path id="합치기_18" data-name="합치기 18" d="M-12204.39-2879.561l-5.939-6.347a2.509,2.509,0,0,1,.119-3.537,2.54,2.54,0,0,1,1.79-.671,2.487,2.487,0,0,1,1.744.791l4.284,4.582,10.052-8.814a2.5,2.5,0,0,1,3.527.233,2.5,2.5,0,0,1-.229,3.524l-11.876,10.414a2.507,2.507,0,0,1-1.648.619A2.5,2.5,0,0,1-12204.39-2879.561Zm-.086-11.192v-6.745a2.5,2.5,0,0,1,2.5-2.5,2.5,2.5,0,0,1,2.5,2.5v6.745a2.5,2.5,0,0,1-2.5,2.5A2.5,2.5,0,0,1-12204.476-2890.753Z" transform="translate(12211 2900)" stroke="rgba(0,0,0,0)" stroke-width="1" fill="url(#linear-gradient-2)"/>
    </g>
  </g>
</svg>
