<svg id="보기" xmlns="http://www.w3.org/2000/svg" width="28" height="28" viewBox="0 0 28 28">
  <g id="하루아이콘_sns코멘트편집64_사본" data-name="하루아이콘_sns코멘트편집64 사본" transform="translate(-0.512)">
    <path id="패스_9182" data-name="패스 9182" d="M7.99,18.27a11.44,11.44,0,0,1-3.17-4.31c.42-1.05,2.95-6.54,9.5-6.54a10.444,10.444,0,0,1,3.82.71l.3-.3.68-.68a11.35,11.35,0,0,0-4.79-1.03c-8.02,0-10.77,7.5-10.79,7.58a.6.6,0,0,0-.03.26.772.772,0,0,0,.03.26,13.272,13.272,0,0,0,3.57,4.95l.7-.7L8,18.28Z" fill="#acacac"/>
    <path id="패스_9183" data-name="패스 9183" d="M25.47,13.67a14.248,14.248,0,0,0-3.53-4.69l-.81.81-.09.09a12.49,12.49,0,0,1,3.13,4.08c-.51,1.11-3.34,6.54-9.86,6.54a10.3,10.3,0,0,1-3.34-.54l-.49.49-.5.5a11.023,11.023,0,0,0,4.33.85c8,0,11.13-7.48,11.16-7.55a.586.586,0,0,0,.04-.29.728.728,0,0,0-.04-.29Z" fill="#acacac"/>
    <path id="패스_9184" data-name="패스 9184" d="M22.87,5.72a.652.652,0,0,0-.92,0L20.18,7.49l-.14.14-.9.9-.04.04-1.48,1.48-.92.92-5.14,5.14-.92.92L8.8,18.87l-.3.3-.61.61-.33.33L6.31,21.36a.658.658,0,0,0,0,.92.652.652,0,0,0,.92,0l1.53-1.53.26-.26.75-.75.2-.2,1.59-1.59.92-.92,5.14-5.14.92-.92,1.71-1.71.18-.18.73-.73.19-.19,1.52-1.52a.658.658,0,0,0,0-.92Z" fill="#acacac"/>
    <path id="패스_9185" data-name="패스 9185" d="M18.29,14a3.7,3.7,0,0,1-3.7,3.7,3.455,3.455,0,0,1-1.16-.21l-1,1a4.906,4.906,0,0,0,2.16.51,5,5,0,0,0,5-5,4.906,4.906,0,0,0-.51-2.16l-1,1A3.723,3.723,0,0,1,18.29,14Z" fill="#acacac"/>
    <path id="패스_9186" data-name="패스 9186" d="M10.89,14a3.665,3.665,0,0,1,4.86-3.5l1-1a4.906,4.906,0,0,0-2.16-.51,5,5,0,0,0-5,5,4.906,4.906,0,0,0,.51,2.16l1-1a3.716,3.716,0,0,1-.2-1.16Z" fill="#acacac"/>
  </g>
  <rect id="사각형_25771" data-name="사각형 25771" width="28" height="28" fill="none"/>
</svg>
