<svg xmlns="http://www.w3.org/2000/svg" width="28" height="28" viewBox="0 0 28 28">
  <g id="그룹_20718" data-name="그룹 20718" transform="translate(-929 -475)">
    <circle id="타원_396" data-name="타원 396" cx="14" cy="14" r="14" transform="translate(929 475)" fill="#1dafff"/>
    <g id="구성_요소_32_17" data-name="구성 요소 32 – 17" transform="translate(933 479)">
      <rect id="사각형_25170" data-name="사각형 25170" width="20" height="20" fill="none" opacity="0.5"/>
      <g id="레이어_4" transform="translate(-87.5 -108.77)">
        <g id="그룹_20598" data-name="그룹 20598" transform="translate(88.5 110.77)">
          <path id="패스_7843" data-name="패스 7843" d="M103.834,112.946h-.387v-1.573a.6.6,0,0,0-.6-.6H97.951a.6.6,0,0,0-.6.6v1.573H90.794A2.3,2.3,0,0,0,88.5,115.24v7.88a2.3,2.3,0,0,0,2.294,2.294h13.041a2.3,2.3,0,0,0,2.294-2.294v-7.88A2.3,2.3,0,0,0,103.834,112.946Zm-5.28-.971h3.686v.735H98.554Zm6.368,11.144a1.089,1.089,0,0,1-1.087,1.087H90.794a1.089,1.089,0,0,1-1.087-1.087v-7.88a1.089,1.089,0,0,1,1.087-1.087h13.041a1.089,1.089,0,0,1,1.087,1.087Z" transform="translate(-88.5 -110.77)" fill="#fdfdfd"/>
          <path id="패스_7844" data-name="패스 7844" d="M182.756,172.74A4.256,4.256,0,1,0,187.012,177,4.261,4.261,0,0,0,182.756,172.74Zm0,7.306a3.05,3.05,0,1,1,3.05-3.05A3.053,3.053,0,0,1,182.756,180.046Z" transform="translate(-172.468 -168.586)" fill="#fdfdfd"/>
        </g>
      </g>
    </g>
  </g>
</svg>
