<?xml version="1.0" encoding="UTF-8"?>
<svg id="_레이어_2" data-name="레이어 2" xmlns="http://www.w3.org/2000/svg" xmlns:xlink="http://www.w3.org/1999/xlink" viewBox="0 0 402.38 401.71">
  <defs>
    <style>
      .cls-1 {
        fill: #d0d0cf;
      }

      .cls-2 {
        fill: #fff;
      }

      .cls-3 {
        fill: #c5cbff;
      }

      .cls-4 {
        fill: url(#_무제_그라디언트_5-2);
      }

      .cls-5 {
        fill: #b2b1b1;
      }

      .cls-6 {
        fill: #f5d242;
      }

      .cls-7 {
        fill: #bddbf0;
      }

      .cls-8 {
        stroke-linecap: round;
        stroke-width: 1.5px;
      }

      .cls-8, .cls-9 {
        fill: none;
        stroke: #231815;
        stroke-linejoin: round;
      }

      .cls-9 {
        stroke-width: 1.8px;
      }

      .cls-10 {
        fill: url(#_무제_그라디언트_5);
      }

      .cls-11 {
        fill: url(#_무제_그라디언트_6);
      }
    </style>
    <linearGradient id="_무제_그라디언트_5" data-name="무제 그라디언트 5" x1="247.97" y1="189.16" x2="275.39" y2="189.16" gradientUnits="userSpaceOnUse">
      <stop offset="0" stop-color="#d9f1ff"/>
      <stop offset="1" stop-color="#c5cbff"/>
    </linearGradient>
    <linearGradient id="_무제_그라디언트_5-2" data-name="무제 그라디언트 5" x1="118.07" y1="183.73" x2="147.43" y2="183.73" xlink:href="#_무제_그라디언트_5"/>
    <linearGradient id="_무제_그라디언트_6" data-name="무제 그라디언트 6" x1="270.02" y1="325.32" x2="286.13" y2="325.32" gradientUnits="userSpaceOnUse">
      <stop offset="0" stop-color="#97d7ff"/>
      <stop offset="1" stop-color="#c5cbff"/>
    </linearGradient>
  </defs>
  <g>
    <path class="cls-10" d="m261.61,210c-1.67,0-3.4-.29-5.15-.87-9.37-3.07-9.04-28.68-7.94-40.8,10.67,2.65,18.95,8.07,23.44,15.43,3.17,5.18,4.2,11.02,2.83,16.01-1.36,4.93-6.06,10.24-13.18,10.24,0,0,0,0,0,0Z"/>
    <path class="cls-2" d="m250.31,170.88c9.06,2.69,16.05,7.54,19.95,13.91,2.88,4.71,3.83,9.98,2.6,14.43-1.16,4.22-5.18,8.77-11.25,8.77-1.45,0-2.98-.26-4.53-.77-6.55-2.15-7.86-21.5-6.77-36.34m-3.55-5.01s-4.66,40.65,9.08,45.15c2.03.66,3.96.97,5.77.97,7.78,0,13.4-5.53,15.11-11.71,3.3-11.96-5.43-29.34-29.96-34.41h0Z"/>
  </g>
  <g>
    <path class="cls-4" d="m131.87,203.89c-7.92,0-12.58-5.96-13.56-11.49-.9-5.09.67-10.81,4.32-15.67,5.17-6.9,13.92-11.52,24.79-13.16-.04,12.18-2.12,37.7-11.74,39.88-1.3.29-2.58.44-3.81.44h0Z"/>
    <path class="cls-2" d="m145.4,165.95c-.32,14.88-3.43,34.02-10.16,35.55-1.15.26-2.29.39-3.37.39-6.77,0-10.75-5.1-11.59-9.84-.8-4.55.63-9.7,3.95-14.12,4.48-5.98,11.9-10.15,21.17-11.98m4.01-4.65c-24.9,2.75-35.22,19.23-33.06,31.45,1.19,6.73,6.9,13.15,15.53,13.15,1.35,0,2.77-.16,4.25-.49,14.1-3.2,13.28-44.1,13.28-44.1h0Z"/>
  </g>
  <path class="cls-3" d="m302.26,240.84c.18,1.22.27,2.43.27,3.63,0,9.64-5.62,18.39-14.11,22.53-2.25,1.1-4.71,1.88-7.32,2.26l-10.55,1.55c-3.21.47-6.37.3-9.35-.41-5.04-1.2-9.58-3.94-13-7.76-2.02-2.26-3.64-4.9-4.74-7.83.25-8.63-.43-15.9-.43-15.9h-.11v-.03c.68-2.26,1.67-4.4,2.93-6.37h0c1.67-1.48,3.31-3.28,4.75-5.47h0c3.49-3.01,7.82-5.1,12.69-5.81l10.55-1.55c13.63-2,26.42,7.52,28.42,21.16Z"/>
  <path class="cls-3" d="m293.17,271.14c.91,1.14,10.91,13.94,2.31,16.97h-.05c.09-2.08.06-4.26-.06-6.48-.28-5.14-.87-8.26-2.2-10.49Z"/>
  <path class="cls-3" d="m293.12,271.08s.02.03.05.06c1.33,2.23,1.92,5.35,2.2,10.49.12,2.22.15,4.4.06,6.48-.24,6.13-1.46,11.35-4.18,13.94-1.45,1.39-4.91,1.32-7.19,1.33-5,0-1.2-1.03-6.97-1.18-5.76-.15-2,2.1-12.74.5-1.41-.21-2.63-1.06-3.66-2.36-1.71-2.14-2.91-5.5-3.65-9.18-1.16-5.82-1.16-12.46-.14-16.36t.01-.02c.6-2.25,4.25-4.11,4.25-4.11,0,0,5.61,3.62,13.85,3.17,8.24-.46,13.41-6.84,13.41-6.84,2.16,1.19,3.65,2.37,4.7,4.08Z"/>
  <path class="cls-11" d="m285.37,323.01c.72.1,1.01.92.49,1.4l-2.93,2.66c-.21.19-.3.46-.25.72l.69,3.77c.12.66-.63,1.17-1.27.86l-3.62-1.78c-.26-.12-.56-.12-.82,0l-3.61,1.78c-.65.31-1.4-.2-1.28-.86l.7-3.77c.04-.26-.05-.53-.26-.72l-2.92-2.66c-.52-.48-.24-1.3.48-1.4l4.05-.55c.28-.04.53-.2.66-.45l1.81-3.42c.32-.61,1.25-.61,1.57,0l1.81,3.42c.12.25.37.41.66.45l4.04.55Z"/>
  <path class="cls-7" d="m288.42,267s-5.17,6.38-13.41,6.84c-8.24.45-13.85-3.17-13.85-3.17l.04-.27c2.98.71,6.14.88,9.35.41l10.55-1.55c2.61-.38,5.07-1.16,7.32-2.26Z"/>
  <path class="cls-3" d="m256.9,274.8c-1.02,3.9-1.02,10.54.14,16.36-6.76-3.23-.4-15.84-.14-16.36Z"/>
  <path class="cls-2" d="m255.84,211.03c-.64,6.88-2.65,12.08-5.24,16h0c-1.44,2.2-3.08,4-4.75,5.47-6.42,5.61-13.5,6.41-13.5,6.41h-37.8l-37.64-3.55s-20.82-4.38-20.77-29.96c14.1-3.2,13.28-44.1,13.28-44.1-.16.02-.31.04-.47.06v-.11s13.49-21.84,50.01-19.31c36.59.91,48.29,23.94,48.29,23.94l-.02.1c-.15-.04-.31-.07-.46-.1,0,0-4.67,40.65,9.08,45.15Z"/>
  <path class="cls-2" d="m248.2,262.64s4.98,11.71-7.68,18.13h-.01c-.03-1.81-.12-3.69-.28-5.64,2.23-5.6,3.03-13.4,3.23-20.32,1.1,2.93,2.72,5.57,4.74,7.83Z"/>
  <path class="cls-1" d="m243.03,238.91s.68,7.27.43,15.9c-.2,6.92-1,14.72-3.23,20.32-5.02,12.58-14.34,16.39-45.69,16.01-31.25-2.57-45.08-7.47-48.89-20.47-1.89-6.43-1.76-15.4-1.14-22.8.62-7.56,1.75-13.51,1.75-13.51l10.64,1,37.64,3.55h48.49Zm-26.63,44.05c9.73,0,17.61-7.45,17.61-16.65s-7.88-16.64-17.61-16.64-17.61,7.45-17.61,16.64,7.89,16.65,17.61,16.65Z"/>
  <path class="cls-2" d="m148.92,296.87s0,.01-.01,0c-3.49-5.57-3.11-13.89-3.26-26.2,3.81,13,17.64,17.9,48.89,20.47,31.35.38,40.67-3.43,45.69-16.01.16,1.95.25,3.83.28,5.64.13,7.62-1,14.02-4.49,18.69-3.33,4.44-8.8,7.31-17.39,8.2-8.27.85-13.8.23-17.44-.77-5.09-1.41-10.41-1.82-15.63-1.03-5.17.79-12.42,1.04-21.46-.77-8.15-1.62-12.67-4.21-15.18-8.22Z"/>
  <path class="cls-5" d="m203.28,268.09c.65,5.76,5.45,10.35,11.52,11.04.53.06,1.06.09,1.6.09,1.98,0,3.86-.41,5.54-1.15,4.53-1.98,7.66-6.31,7.66-11.33,0-1.04-.14-2.05-.39-3.02h-.01c-1.42-5.44-6.61-9.46-12.8-9.46-7.29,0-13.2,5.59-13.2,12.48,0,.46.03.91.08,1.35Zm30.73-1.78c0,9.2-7.88,16.65-17.61,16.65s-17.61-7.45-17.61-16.65,7.89-16.64,17.61-16.64,17.61,7.45,17.61,16.64Z"/>
  <path class="cls-6" d="m229.21,263.72c.25.97.39,1.98.39,3.02,0,5.02-3.13,9.35-7.66,11.33l-1.21-2.51c-.14-.28-.41-.48-.72-.52l-4.4-.67c-.78-.12-1.09-1.08-.52-1.63l3.21-3.09c.23-.22.33-.53.28-.84l-.73-4.4c-.13-.78.7-1.37,1.4-1l3.92,2.1c.28.15.61.15.89,0l3.96-2.05c.44-.23.91-.08,1.18.24h.01Z"/>
  <path class="cls-5" d="m229.2,263.71c-.27-.32-.74-.47-1.18-.24l-3.96,2.05c-.28.14-.61.14-.89,0l-3.92-2.1c-.7-.37-1.53.22-1.4,1l.73,4.4c.05.31-.05.62-.28.84l-3.21,3.09-.03-.03,2.79-2.72c.56-.55.25-1.52-.53-1.63l-4.41-.64c-.31-.05-.58-.24-.72-.52l-1.97-4c-.35-.71-1.36-.71-1.71,0l-1.97,4c-.14.28-.41.47-.72.52l-2.54.37c-.05-.44-.08-.89-.08-1.35,0-6.89,5.91-12.48,13.2-12.48,6.19,0,11.38,4.02,12.8,9.45Z"/>
  <path class="cls-5" d="m220.73,275.56l1.21,2.51c-1.68.74-3.56,1.15-5.54,1.15-.54,0-1.07-.03-1.6-.09.07-.16.37-.6.33-.8l-.75-4.39c-.05-.31.05-.62.28-.84l.4-.39.03.03c-.57.55-.26,1.51.52,1.63l4.4.67c.31.04.58.24.72.52Z"/>
  <path class="cls-6" d="m217.32,268.36c.78.11,1.09,1.08.53,1.63l-2.79,2.72-.4.39c-.23.22-.33.53-.28.84l.75,4.39c.04.2-.26.64-.33.8-6.07-.69-10.87-5.28-11.52-11.04l2.54-.37c.31-.05.58-.24.72-.52l1.97-4c.35-.71,1.36-.71,1.71,0l1.97,4c.14.28.41.47.72.52l4.41.64Z"/>
  <path class="cls-2" d="m144.51,247.87c-.62,7.4-.75,16.37,1.14,22.8,0,0-15.34-4.02-1.14-22.8Z"/>
  <path class="cls-8" d="m246.76,165.88s-4.67,40.65,9.08,45.15c10.7,3.52,18.78-3.12,20.88-10.74,3.27-11.87-5.32-29.12-29.5-34.31-.15-.04-.31-.07-.46-.1"/>
  <path class="cls-8" d="m198.95,141.94c36.59.91,48.29,23.94,48.29,23.94"/>
  <path class="cls-8" d="m250.6,227.03c2.59-3.92,4.6-9.12,5.24-16"/>
  <path class="cls-8" d="m232.34,238.91s7.08-.8,13.5-6.41c1.67-1.47,3.31-3.27,4.75-5.46"/>
  <path class="cls-8" d="m194.54,291.14c31.35.38,40.67-3.43,45.69-16.01,2.23-5.6,3.03-13.4,3.23-20.32.25-8.63-.43-15.9-.43-15.9h-48.49"/>
  <path class="cls-8" d="m293.12,271.08c-1.05-1.71-2.54-2.89-4.7-4.08"/>
  <path class="cls-8" d="m256.9,274.8c-1.02,3.9-1.02,10.54.14,16.36.74,3.68,1.94,7.04,3.65,9.18,1.03,1.3,2.25,2.15,3.66,2.36,10.74,1.6,6.98-.65,12.74-.5,5.77.15,1.97,1.18,6.97,1.18,2.28-.01,5.74.06,7.19-1.33,2.72-2.59,3.94-7.81,4.18-13.94.09-2.08.06-4.26-.06-6.48-.28-5.14-.87-8.26-2.2-10.49"/>
  <path class="cls-8" d="m288.42,267s-5.17,6.38-13.41,6.84c-8.24.45-13.85-3.17-13.85-3.17,0,0-3.65,1.86-4.25,4.11"/>
  <path class="cls-8" d="m256.91,274.78s0,.01-.01.02c-.26.52-6.62,13.13.14,16.36"/>
  <path class="cls-8" d="m293.1,271.06l.02.02s.02.03.05.06c.91,1.14,10.91,13.94,2.31,16.97"/>
  <path class="cls-8" d="m248.2,262.64s4.98,11.71-7.68,18.13"/>
  <path class="cls-8" d="m145.65,270.67s-15.34-4.02-1.14-22.8"/>
  <path class="cls-8" d="m281.87,303.38s20.72,11.91-.54,18.55"/>
  <path class="cls-8" d="m234.01,266.31c0,9.2-7.88,16.65-17.61,16.65s-17.61-7.45-17.61-16.65,7.89-16.64,17.61-16.64,17.61,7.45,17.61,16.64Z"/>
  <path class="cls-8" d="m229.21,263.72c.25.97.39,1.98.39,3.02,0,5.02-3.13,9.35-7.66,11.33-1.68.74-3.56,1.15-5.54,1.15-.54,0-1.07-.03-1.6-.09-6.07-.69-10.87-5.28-11.52-11.04-.05-.44-.08-.89-.08-1.35,0-6.89,5.91-12.48,13.2-12.48,6.19,0,11.38,4.02,12.8,9.45"/>
  <path class="cls-8" d="m149.41,161.3s.82,40.9-13.28,44.1c-10.99,2.49-18.41-4.87-19.78-12.65-2.15-12.14,8.03-28.5,32.59-31.39.16-.02.31-.04.47-.06"/>
  <path class="cls-8" d="m198.95,141.94c-36.52-2.53-50.02,19.31-50.02,19.31"/>
  <path class="cls-8" d="m156.9,235.36s-20.82-4.38-20.77-29.96"/>
  <path class="cls-8" d="m194.54,291.14c-31.25-2.57-45.08-7.47-48.89-20.47-1.89-6.43-1.76-15.4-1.14-22.8.62-7.56,1.75-13.51,1.75-13.51l10.64,1,37.64,3.55"/>
  <path class="cls-8" d="m148.92,296.87c2.51,4.01,7.03,6.6,15.18,8.22,9.04,1.81,16.29,1.56,21.46.77,5.22-.79,10.54-.38,15.63,1.03,3.64,1,9.17,1.62,17.44.77,8.59-.89,14.06-3.76,17.39-8.2,3.49-4.67,4.62-11.07,4.49-18.69-.03-1.81-.12-3.69-.28-5.64"/>
  <path class="cls-8" d="m145.65,270.67c.15,12.31-.23,20.63,3.26,26.2"/>
  <line class="cls-8" x1="237.06" y1="299.48" x2="260.11" y2="300.41"/>
  <path class="cls-8" d="m293.1,301.23s21.41,2.1,34-.84"/>
  <path class="cls-8" d="m278.86,318.59l1.81,3.42c.12.25.37.41.66.45l4.04.55c.72.1,1.01.92.49,1.4l-2.93,2.66c-.21.19-.3.46-.25.72l.69,3.77c.12.66-.63,1.17-1.27.86l-3.62-1.78c-.26-.12-.56-.12-.82,0l-3.61,1.78c-.65.31-1.4-.2-1.28-.86l.7-3.77c.04-.26-.05-.53-.26-.72l-2.92-2.66c-.52-.48-.24-1.3.48-1.4l4.05-.55c.28-.04.53-.2.66-.45l1.81-3.42c.32-.61,1.25-.61,1.57,0Z"/>
  <path class="cls-8" d="m250.59,227.04h0c3.49-3.01,7.82-5.1,12.69-5.81l10.55-1.55c13.63-2,26.42,7.52,28.42,21.16.18,1.22.27,2.43.27,3.63,0,9.64-5.62,18.39-14.11,22.53-2.25,1.1-4.71,1.88-7.32,2.26l-10.55,1.55c-3.21.47-6.37.3-9.35-.41-5.04-1.2-9.58-3.94-13-7.76-2.02-2.26-3.64-4.9-4.74-7.83"/>
  <path class="cls-8" d="m242.92,238.88c.68-2.26,1.67-4.4,2.93-6.37"/>
  <path class="cls-8" d="m148.93,296.88h-.01s0,0-.01-.01c-.65-.14-16.31-3.53-32.84.01-16.88,3.61-40.79.19-40.79.19"/>
  <path class="cls-9" d="m203.27,268.09h0l2.54-.37c.31-.05.58-.24.72-.52l1.97-4c.35-.71,1.36-.71,1.71,0l1.97,4c.14.28.41.47.72.52l4.41.64c.78.11,1.09,1.08.53,1.63l-2.79,2.72-.4.39c-.23.22-.33.53-.28.84l.75,4.39c.04.2-.26.64-.33.8"/>
  <path class="cls-9" d="m221.94,278.07l-1.21-2.51c-.14-.28-.41-.48-.72-.52l-4.4-.67c-.78-.12-1.09-1.08-.52-1.63l3.21-3.09c.23-.22.33-.53.28-.84l-.73-4.4c-.13-.78.7-1.37,1.4-1l3.92,2.1c.28.15.61.15.89,0l3.96-2.05c.44-.23.91-.08,1.18.24h.01"/>
  <path class="cls-9" d="m229.21,263.72l-.59,5.14c-.06.31.24.96.46,1.18"/>
</svg>