<?xml version="1.0" encoding="utf-8"?>
<!-- Generator: Adobe Illustrator 27.5.0, SVG Export Plug-In . SVG Version: 6.00 Build 0)  -->
<svg version="1.1" id="레이어_1" xmlns="http://www.w3.org/2000/svg" xmlns:xlink="http://www.w3.org/1999/xlink" x="0px"
	 y="0px" viewBox="0 0 402.4 401.7" style="enable-background:new 0 0 402.4 401.7;" xml:space="preserve">
<style type="text/css">
	.st0{fill:url(#SVGID_1_);}
	.st1{fill:#FFFFFF;}
	.st2{fill:#D0D0CF;}
	.st3{fill:#C5CBFF;}
	.st4{fill:#83BF32;}
	.st5{clip-path:url(#SVGID_00000044161179820298904070000011925337733347162272_);}
	.st6{fill:#97D7FF;}
	.st7{fill:#98D7FF;}
	.st8{fill:#99D6FF;}
	.st9{fill:#9AD6FF;}
	.st10{fill:#9BD6FF;}
	.st11{fill:#9CD6FF;}
	.st12{fill:#9DD5FF;}
	.st13{fill:#9ED5FF;}
	.st14{fill:#9FD5FF;}
	.st15{fill:#A0D5FF;}
	.st16{fill:#A1D4FF;}
	.st17{fill:#A2D4FF;}
	.st18{fill:#A3D4FF;}
	.st19{fill:#A4D4FF;}
	.st20{fill:#A5D3FF;}
	.st21{fill:#A6D3FF;}
	.st22{fill:#A7D3FF;}
	.st23{fill:#A8D2FF;}
	.st24{fill:#A9D2FF;}
	.st25{fill:#AAD2FF;}
	.st26{fill:#ABD2FF;}
	.st27{fill:#ACD1FF;}
	.st28{fill:#ADD1FF;}
	.st29{fill:#AFD1FF;}
	.st30{fill:#B0D1FF;}
	.st31{fill:#B1D0FF;}
	.st32{fill:#B2D0FF;}
	.st33{fill:#B3D0FF;}
	.st34{fill:#B4D0FF;}
	.st35{fill:#B5CFFF;}
	.st36{fill:#B6CFFF;}
	.st37{fill:#B7CFFF;}
	.st38{fill:#B8CEFF;}
	.st39{fill:#B9CEFF;}
	.st40{fill:#BACEFF;}
	.st41{fill:#BBCEFF;}
	.st42{fill:#BCCDFF;}
	.st43{fill:#BDCDFF;}
	.st44{fill:#BECDFF;}
	.st45{fill:#BFCDFF;}
	.st46{fill:#C0CCFF;}
	.st47{fill:#C1CCFF;}
	.st48{fill:#C2CCFF;}
	.st49{fill:#C3CCFF;}
	.st50{fill:#C4CBFF;}
	.st51{fill:#231815;}
	.st52{fill:#BDDBF0;}
	.st53{fill:#D9F1FF;}
	.st54{clip-path:url(#SVGID_00000073679865499533963200000006779551687815526806_);}
	.st55{fill:#D8F0FF;}
	.st56{fill:#D8EFFF;}
	.st57{fill:#D7EEFF;}
	.st58{fill:#D7EDFF;}
	.st59{fill:#D6ECFF;}
	.st60{fill:#D6EBFF;}
	.st61{fill:#D5EAFF;}
	.st62{fill:#D5E9FF;}
	.st63{fill:#D4E8FF;}
	.st64{fill:#D4E7FF;}
	.st65{fill:#D3E6FF;}
	.st66{fill:#D3E5FF;}
	.st67{fill:#D2E4FF;}
	.st68{fill:#D1E3FF;}
	.st69{fill:#D1E2FF;}
	.st70{fill:#D0E1FF;}
	.st71{fill:#D0E0FF;}
	.st72{fill:#CFDFFF;}
	.st73{fill:#CFDDFF;}
	.st74{fill:#CEDCFF;}
	.st75{fill:#CEDBFF;}
	.st76{fill:#CDDAFF;}
	.st77{fill:#CDD9FF;}
	.st78{fill:#CCD8FF;}
	.st79{fill:#CBD7FF;}
	.st80{fill:#CBD6FF;}
	.st81{fill:#CAD5FF;}
	.st82{fill:#CAD4FF;}
	.st83{fill:#C9D3FF;}
	.st84{fill:#C9D2FF;}
	.st85{fill:#C8D1FF;}
	.st86{fill:#C8D0FF;}
	.st87{fill:#C7CFFF;}
	.st88{fill:#C7CEFF;}
	.st89{fill:#C6CDFF;}
	.st90{fill:#C6CCFF;}
</style>
<g>
	<g id="_레이어_2">
		<g>
			<g>
				
					<linearGradient id="SVGID_1_" gradientUnits="userSpaceOnUse" x1="101.3419" y1="248.4648" x2="139.81" y2="248.4648" gradientTransform="matrix(1 0 0 -1 0 401.8898)">
					<stop  offset="0" style="stop-color:#D9F1FF"/>
					<stop  offset="1" style="stop-color:#C5CBFF"/>
				</linearGradient>
				<path class="st0" d="M117,173.3c-2.6,0-4.9-0.5-6.8-1.6c-3-1.6-6.9-5.5-8.4-11.1c-1.4-5.4-0.2-11.2,3.6-17.1
					c5.3-8.4,17-10.1,25.9-10.1c3.6,0,6.6,0.3,8.4,0.5c-1.3,6.5-5.6,26.4-9.2,32.5C128.1,170.7,122.8,173.3,117,173.3L117,173.3
					L117,173.3z"/>
				<path class="st1" d="M131.4,135.5c2.3,0,4.4,0.1,6.1,0.3c-1.9,9.2-5.6,24.8-8.5,29.7c-2.1,3.6-6.8,5.9-11.8,5.9
					c-2.2,0-4.3-0.5-5.8-1.3c-2.6-1.4-6.1-4.9-7.4-9.9c-1.2-4.9-0.1-10.1,3.3-15.5C112,137.1,123,135.5,131.4,135.5 M131.4,131.5
					c-9.2,0-21.7,1.9-27.6,11c-9.8,15.4-1.3,27.3,5.5,31c2.2,1.2,4.9,1.8,7.7,1.8c5.9,0,12.2-2.6,15.3-7.8
					c4.6-7.7,9.9-35.2,9.9-35.2S137.5,131.5,131.4,131.5L131.4,131.5L131.4,131.5z"/>
			</g>
			<path class="st2" d="M335.7,286l6.7,32.3h-58.5l-11.5-41.1c0,0,0.1,0,0.1,0c3.4-1,45.3,3.2,58.5,4.5
				C333.3,282,335.2,283.7,335.7,286L335.7,286z"/>
			<path class="st2" d="M342.4,318.3c0,0,7.8,6.7-7.1,9s-51.4-9-51.4-9h12.3c0,0,25.9,7.2,36.4,5.8c10.5-1.4,5-5.8,5-5.8H342.4z"/>
			<path class="st2" d="M272.4,277.2l11.5,41.1h-17.6c-3.9,0-6.3-0.1-8-0.3c-0.2-0.8-6-29.2-4.1-33.5c1.1-2.6,15.1-6.6,17.7-7.4
				l0.5,0C272.5,277.2,272.4,277.2,272.4,277.2L272.4,277.2z"/>
			<path class="st3" d="M244.6,86.8c15.7,10.9,20.2,31.5,9.9,45.9c-6.2,8.7-16.2,13.2-26.7,13c-0.8,0-1.6-0.1-2.5-0.1
				c-6.1-0.5-12.3-2.7-17.8-6.5c-6.7-4.6-11.3-11-13.7-17.9c-3.2-9.3-2.1-19.7,3.7-28C207.9,78.8,228.9,75.9,244.6,86.8L244.6,86.8z
				 M242.7,132.3c0.6-1.8-32.2-26.4-34.8-25.3c-1.9,0.8-10.8,12.8-10.8,12.8c8.7,23.2,32.8,23.6,32.8,23.6S242.1,134.1,242.7,132.3
				L242.7,132.3z"/>
			<path class="st1" d="M207.9,107c2.6-1.1,35.4,23.5,34.8,25.3c-0.6,1.8-12.8,11.1-12.8,11.1s-24.1-0.4-32.8-23.6
				C197.1,119.8,206,107.8,207.9,107z M228.7,135.7c1-1.7,1-3.6,0-4.2s-2.7,0.3-3.7,2c-1,1.7-1,3.6,0,4.2
				C226.1,138.3,227.7,137.4,228.7,135.7L228.7,135.7z M211.3,124.7c1.1-1.8,1.1-3.8,0.1-4.4c-1-0.6-2.7,0.3-3.8,2.2
				c-1.1,1.8-1.1,3.8-0.1,4.4C208.5,127.4,210.2,126.5,211.3,124.7L211.3,124.7z"/>
			<path class="st1" d="M237.2,200.7c0.9,12.7-6.4,14.6-11.8,15c1.5-3.1,3.9-12.6,4.9-17.5c1.5-7.6,1.9-13.8,1.6-18.8h0.1
				C231.9,179.5,236.1,186.1,237.2,200.7L237.2,200.7z"/>
			<path class="st4" d="M217.3,314.1c6.1-6.4,18.9-5.9,18.9-5.9s-1,3-6.4,6.3C224.5,317.8,217.3,314.1,217.3,314.1L217.3,314.1z"/>
			<path class="st1" d="M231.9,179.5c0.3,5-0.1,11.2-1.6,18.8c-1,4.9-3.4,14.3-4.9,17.5c-5.6,11.7-19.8,19.6-32.7,18.6
				c-0.3,0-0.5-0.1-0.7-0.1c1.2-1.6,1.9-3.9,1.9-6.4c0-4.7-2.6-8.6-5.7-8.6c-0.5,0-1,0.1-1.4,0.3l-4.8,0.9l-17.2-2.4
				c-10.2-11-32.1-11.8-32.1-11.8l-1.2,2.1c-4.2-2.4-7.9-3.2-11.1-3.1l0,0c-15-15.5-8.9-30.8-8.9-30.8l0,0c6.9,2.3,16.7,0,20.8-6.9
				c4.6-7.7,9.9-35.2,9.9-35.2s-2.5-0.5-6.4-0.7c15.1-8.8,34.3-12.3,46.3-6.4l0.5,0.8c-2.5,2.1-4,4.9-2.4,8.7
				c2,4.9,6.8,7.8,10.6,8.6c6.1,1.3,7.2-7.4,7.2-7.4c1.4,2,3.3,4,5.7,5.7c5.8,4.1,10.5,5.5,14,5.7c-5.4,4.1-6.6,13.9,2.8,15.3
				c2.6,0.4,4.7,0.2,6.4-0.6C226.9,162.1,231.2,167.1,231.9,179.5L231.9,179.5z M217.1,202.3c0-3.3-0.4-5.3-1.4-7.1
				c-0.9-1.6-3.5-1.6-4.5,0.3c-2.2,4.2-1.4,8.4,0.2,9.6C214.7,207.5,217.1,204.6,217.1,202.3z M190.4,201.9c2.1,1.1,4.1,0.9,3.9-1.4
				c-0.1-2.2-2.7-3.5-4.9-2.7C187.2,198.8,188.3,200.8,190.4,201.9z M170.4,177.2c1.1-2.2,0.4-4.4-1.7-4.5c-2.4-0.1-5-0.4-7.9,2
				c-2.8,2.3-2.6,6.5,1.8,8.6C164.8,184.4,168.9,180.4,170.4,177.2z"/>
			<g>
				<defs>
					<path id="SVGID_00000028296926588880315220000008917323542154687396_" d="M231.1,277.1c4.3,10.5-3.5,19.8-17.5,18.2
						c-12.6-1.4-16.4-13.4-7.2-25.7c3.4-4.5,7.7-8.1,9.8-9.7c0.8-0.6,2-0.7,2.9-0.2C221.4,261,226.8,266.4,231.1,277.1z"/>
				</defs>
				<clipPath id="SVGID_00000065765592343346387060000007675542236608727432_">
					<use xlink:href="#SVGID_00000028296926588880315220000008917323542154687396_"  style="overflow:visible;"/>
				</clipPath>
				<g style="clip-path:url(#SVGID_00000065765592343346387060000007675542236608727432_);">
					<rect x="197.3" y="259.1" class="st6" width="4.1" height="37.7"/>
					<rect x="201.4" y="259.1" class="st6" width="0.7" height="37.7"/>
					<rect x="202" y="259.1" class="st7" width="0.7" height="37.7"/>
					<rect x="202.7" y="259.1" class="st8" width="0.7" height="37.7"/>
					<rect x="203.4" y="259.1" class="st9" width="0.7" height="37.7"/>
					<rect x="204.1" y="259.1" class="st10" width="0.7" height="37.7"/>
					<rect x="204.7" y="259.1" class="st11" width="0.7" height="37.7"/>
					<rect x="205.4" y="259.1" class="st12" width="0.7" height="37.7"/>
					<rect x="206.1" y="259.1" class="st13" width="0.7" height="37.7"/>
					<rect x="206.7" y="259.1" class="st14" width="0.7" height="37.7"/>
					<rect x="207.4" y="259.1" class="st15" width="0.7" height="37.7"/>
					<rect x="208.1" y="259.1" class="st16" width="0.7" height="37.7"/>
					<rect x="208.8" y="259.1" class="st17" width="0.7" height="37.7"/>
					<rect x="209.4" y="259.1" class="st18" width="0.7" height="37.7"/>
					<rect x="210.1" y="259.1" class="st19" width="0.7" height="37.7"/>
					<rect x="210.8" y="259.1" class="st20" width="0.7" height="37.7"/>
					<rect x="211.4" y="259.1" class="st21" width="0.7" height="37.7"/>
					<rect x="212.1" y="259.1" class="st22" width="0.7" height="37.7"/>
					<rect x="212.8" y="259.1" class="st23" width="0.7" height="37.7"/>
					<rect x="213.5" y="259.1" class="st24" width="0.7" height="37.7"/>
					<rect x="214.1" y="259.1" class="st25" width="0.7" height="37.7"/>
					<rect x="214.8" y="259.1" class="st26" width="0.7" height="37.7"/>
					<rect x="215.5" y="259.1" class="st27" width="0.7" height="37.7"/>
					<rect x="216.1" y="259.1" class="st28" width="0.7" height="37.7"/>
					<rect x="216.8" y="259.1" class="st29" width="0.7" height="37.7"/>
					<rect x="217.5" y="259.1" class="st30" width="0.7" height="37.7"/>
					<rect x="218.2" y="259.1" class="st31" width="0.7" height="37.7"/>
					<rect x="218.8" y="259.1" class="st32" width="0.7" height="37.7"/>
					<rect x="219.5" y="259.1" class="st33" width="0.7" height="37.7"/>
					<rect x="220.2" y="259.1" class="st34" width="0.7" height="37.7"/>
					<rect x="220.9" y="259.1" class="st35" width="0.7" height="37.7"/>
					<rect x="221.5" y="259.1" class="st36" width="0.7" height="37.7"/>
					<rect x="222.2" y="259.1" class="st37" width="0.7" height="37.7"/>
					<rect x="222.9" y="259.1" class="st38" width="0.7" height="37.7"/>
					<rect x="223.5" y="259.1" class="st39" width="0.7" height="37.7"/>
					<rect x="224.2" y="259.1" class="st40" width="0.7" height="37.7"/>
					<rect x="224.9" y="259.1" class="st41" width="0.7" height="37.7"/>
					<rect x="225.6" y="259.1" class="st42" width="0.7" height="37.7"/>
					<rect x="226.2" y="259.1" class="st43" width="0.7" height="37.7"/>
					<rect x="226.9" y="259.1" class="st44" width="0.7" height="37.7"/>
					<rect x="227.6" y="259.1" class="st45" width="0.7" height="37.7"/>
					<rect x="228.2" y="259.1" class="st46" width="0.7" height="37.7"/>
					<rect x="228.9" y="259.1" class="st47" width="0.7" height="37.7"/>
					<rect x="229.6" y="259.1" class="st48" width="0.7" height="37.7"/>
					<rect x="230.3" y="259.1" class="st49" width="0.7" height="37.7"/>
					<rect x="230.9" y="259.1" class="st50" width="0.7" height="37.7"/>
					<rect x="231.6" y="259.1" class="st3" width="0.7" height="37.7"/>
					<rect x="232.3" y="259.1" class="st3" width="3.1" height="37.7"/>
				</g>
			</g>
			<path class="st51" d="M228.7,131.4c1,0.6,1,2.5,0,4.2c-1,1.7-2.7,2.6-3.7,2c-1-0.6-1-2.5,0-4.2
				C226,131.7,227.7,130.8,228.7,131.4L228.7,131.4z"/>
			<path class="st3" d="M227.8,146.5c4.4,7.6,3.5,13.5-1,15.6c-1.7,0.8-3.8,1-6.4,0.6c-9.4-1.5-8.2-11.2-2.8-15.3
				c5.1,0.3,7.6-1.8,7.6-1.8l0,0c0.8,0.1,1.7,0.1,2.5,0.1L227.8,146.5L227.8,146.5z"/>
			<path class="st52" d="M225.4,145.6L225.4,145.6c0,0-2.6,2.1-7.6,1.8c-3.5-0.2-8.2-1.6-14-5.7c-2.5-1.7-4.3-3.7-5.7-5.7
				c-4.9-7.1-4.1-14.8-4.1-14.8h0c2.3,6.9,7,13.3,13.7,17.9C213.1,142.9,219.3,145.1,225.4,145.6L225.4,145.6z"/>
			<path class="st4" d="M217.3,314.1c-12.5,0.7-12.4-13.7-12.4-13.7S216,306.5,217.3,314.1z"/>
			<path class="st51" d="M215.7,195.2c1,1.7,1.4,3.8,1.4,7.1c0,2.3-2.4,5.2-5.7,2.9c-1.6-1.2-2.5-5.4-0.2-9.6
				C212.2,193.7,214.8,193.7,215.7,195.2z"/>
			<path class="st51" d="M211.4,120.3c1,0.6,1,2.6-0.1,4.4s-2.8,2.8-3.8,2.2c-1-0.6-1-2.6,0.1-4.4
				C208.7,120.7,210.4,119.7,211.4,120.3L211.4,120.3z"/>
			<path class="st51" d="M194.3,200.5c0.1,2.2-1.8,2.4-3.9,1.4c-2.1-1.1-3.2-3.1-0.9-4C191.6,197,194.2,198.3,194.3,200.5z"/>
			<path class="st3" d="M193.9,121.2c0,0-0.9,7.7,4.1,14.8c0,0-1.1,8.7-7.2,7.4c-3.8-0.8-8.6-3.7-10.6-8.6c-1.5-3.8-0.1-6.7,2.4-8.7
				C186.8,122.5,193.9,121.2,193.9,121.2L193.9,121.2z"/>
			<path class="st53" d="M188.2,219.3c3.1,0,5.7,3.8,5.7,8.6c0,2.6-0.8,4.9-1.9,6.4c-1,1.3-2.3,2.1-3.7,2.1c-0.5,0-0.9-0.1-1.4-0.3
				c0,0,0,0,0,0l-1.3-0.7c0,0,0,0,0,0c-1.8-1.4-3-4.3-3-7.5c0-4,1.8-7.4,4.3-8.3L188.2,219.3L188.2,219.3z"/>
			<path class="st1" d="M189.7,273.2c4.1,5.5,5.2,14.3-1.7,28.9c-4,0-24.9-9.9-29.3-13.2c-0.3-0.2-0.6-0.4-1-0.6
				c-5.1-2.6-16.7-1.6-18.1-2.8c-1.5-1.2-6.2-4.2-14.3-8.6c-4.6-2.5-11.3-3.5-18-3.7c-12.2-8,0.7-30.5,0.7-30.5
				c2.7,2.2,6.4,4.1,11.2,5.7c13.4,4.6,19.4-2.6,21-8.1l0.1-0.4c2.6,0.9,5.3,1.5,8,1.6h0.2c3.4,0.1,9.9-1.8,11.7-4.5l2.9-6l16.8,1.2
				l5.5,3.2c0,0,0,0,0,0c0.4,0.3,0.8,0.6,1.3,0.7c0,0,0,0,0,0c0.4,0.2,0.9,0.3,1.4,0.3h2.1C190.3,236.4,204.7,268.2,189.7,273.2z"/>
			<path class="st6" d="M186.8,87.8c0.7,0.1,1,0.9,0.5,1.4l-2.9,2.7c-0.2,0.2-0.3,0.4-0.2,0.7l0.7,3.8c0.1,0.7-0.6,1.2-1.3,0.9
				l-3.6-1.8c-0.3-0.1-0.6-0.1-0.8,0l-3.6,1.8c-0.6,0.3-1.4-0.2-1.3-0.9l0.7-3.8c0-0.3-0.1-0.5-0.3-0.7l-2.9-2.7
				c-0.5-0.5-0.2-1.3,0.5-1.4l4.1-0.6c0.3,0,0.5-0.2,0.7-0.4l1.8-3.4c0.3-0.6,1.2-0.6,1.6,0l1.8,3.4c0.1,0.2,0.4,0.4,0.7,0.4
				L186.8,87.8L186.8,87.8z"/>
			<path class="st53" d="M182,220.4l4.8-0.9c-2.4,0.9-4.3,4.3-4.3,8.3c0,3.3,1.2,6.1,3,7.5l-5.5-3.2l-16.8-1.2l-2.9,6
				c-1.9,2.8-8.4,4.6-11.7,4.5h-0.2c-2.8-0.1-5.5-0.6-8-1.6c-9.9-3.6-17.4-12.8-14.1-23l5.2-8.6l1.2-2.1c0,0,21.9,0.8,32.1,11.8
				L182,220.4L182,220.4z"/>
			<path class="st51" d="M168.7,172.7c2.1,0.1,2.8,2.3,1.7,4.5c-1.5,3.2-5.6,7.1-7.8,6.1c-4.4-2.1-4.6-6.3-1.8-8.6
				C163.7,172.3,166.3,172.6,168.7,172.7z"/>
			<path class="st1" d="M140.4,240l-0.1,0.4c-1.6,5.6-7.6,12.7-21,8.1c-4.8-1.6-8.5-3.5-11.2-5.7c-5.3-4.3-7-9.6-6.7-16.1
				c0.2-5.4,6.7-15.6,6.7-15.6s4.6-5.5,12.3-5.8c3.2-0.1,6.9,0.6,11.1,3.1l-5.2,8.6C123,227.1,130.4,236.4,140.4,240L140.4,240z"/>
			<path class="st51" d="M161.9,167.1c-0.3,0-0.5-0.1-0.6-0.4c-0.2-0.4-0.1-0.8,0.3-1c6.2-3.6,13.8-0.5,14.1-0.4
				c0.4,0.2,0.6,0.6,0.4,1s-0.6,0.6-1,0.4c-0.1,0-7.3-3-12.8,0.3C162.1,167,162,167.1,161.9,167.1L161.9,167.1z"/>
			<path class="st51" d="M222.4,197.1c-0.4,0-0.7-0.3-0.8-0.7c-0.2-5.2-4.4-7.5-4.6-7.6c-0.4-0.2-0.5-0.6-0.3-1
				c0.2-0.4,0.6-0.5,1-0.3c0.2,0.1,5.1,2.8,5.4,8.9C223.1,196.8,222.8,197.1,222.4,197.1C222.4,197.1,222.4,197.1,222.4,197.1
				L222.4,197.1z"/>
			<path class="st51" d="M117.1,176.1c-2.1,0-4.1-0.3-5.9-0.9c-0.8-0.3-1.6-0.6-2.3-1c-3.6-2-8.1-6.4-9.7-12.9
				c-1.6-6.1-0.2-12.8,3.9-19.2c7.1-11.1,23.6-11.8,32.7-11.2c3.8,0.2,6.3,0.7,6.4,0.7c0.2,0,0.4,0.1,0.5,0.3
				c0.1,0.2,0.2,0.4,0.1,0.6c-0.2,1.1-5.4,27.7-9.9,35.4C129.6,173.5,123.1,176.1,117.1,176.1L117.1,176.1z M131.3,132.2
				c-9,0-21.2,1.8-26.9,10.7c-3.9,6.1-5.2,12.3-3.7,18c1.5,6,5.6,10.1,9,11.9c0.6,0.3,1.3,0.6,2,0.9l0,0c6.4,2.2,16,0,20-6.6
				c4.1-6.8,8.7-29.7,9.6-34.2c-1-0.1-3-0.4-5.5-0.6C134.4,132.3,132.9,132.2,131.3,132.2L131.3,132.2z"/>
			<path class="st51" d="M120.4,206c-0.2,0-0.4-0.1-0.5-0.2c-15.2-15.6-9.1-31.4-9.1-31.6c0.2-0.4,0.6-0.6,1-0.4
				c0.4,0.1,0.6,0.6,0.4,1c-0.1,0.1-5.7,15,8.7,30c0.3,0.3,0.3,0.8,0,1.1C120.7,205.9,120.5,206,120.4,206L120.4,206z"/>
			<path class="st51" d="M127.2,250.7c-2.5,0-5.2-0.5-8.2-1.5c-4.8-1.6-8.6-3.6-11.4-5.8c-5.1-4.1-7.3-9.4-7-16.7
				c0.2-5.5,6.6-15.6,6.9-16c0.2-0.3,4.9-5.9,12.9-6.2c3.8-0.2,7.6,0.9,11.5,3.2c0.4,0.2,0.5,0.7,0.3,1c-0.2,0.4-0.7,0.5-1,0.3
				c-3.6-2.1-7.2-3.1-10.7-3c-7.3,0.3-11.7,5.5-11.8,5.6c0,0-6.3,10.1-6.6,15.2c-0.3,6.9,1.7,11.6,6.5,15.5c2.7,2.2,6.3,4,11,5.6
				c5.6,1.9,10.3,1.9,13.9,0c4.1-2.1,5.6-6.1,6.1-7.6c0.1-0.4,0.5-0.6,0.9-0.5c0.4,0.1,0.6,0.5,0.5,0.9c-1.1,3.7-3.6,6.9-6.9,8.6
				C132.1,250.2,129.8,250.7,127.2,250.7L127.2,250.7z"/>
			<path class="st51" d="M135.8,132.4c-0.3,0-0.5-0.1-0.6-0.4c-0.2-0.4-0.1-0.8,0.3-1c16.1-9.5,35.5-12.1,47-6.4
				c0.4,0.2,0.5,0.6,0.3,1c-0.2,0.4-0.6,0.5-1,0.3c-11.1-5.5-29.8-2.8-45.6,6.4C136.1,132.3,136,132.4,135.8,132.4L135.8,132.4z"/>
			<path class="st51" d="M225.4,216.5c-0.4,0-0.7-0.3-0.8-0.7c0-0.4,0.3-0.8,0.7-0.8c5.6-0.5,12-2.5,11.1-14.2
				c-1.1-14.3-5.1-20.9-5.1-20.9c-0.2-0.4-0.1-0.8,0.2-1c0.4-0.2,0.8-0.1,1,0.2c0.2,0.3,4.3,6.9,5.4,21.6
				C238.9,213.8,231.3,216,225.4,216.5C225.4,216.5,225.4,216.5,225.4,216.5L225.4,216.5z"/>
			<path class="st51" d="M186.8,236.9c-0.1,0-0.3,0-0.4-0.1l-1.3-0.7c-0.4-0.2-0.5-0.7-0.3-1c0.2-0.4,0.7-0.5,1-0.3l1.3,0.7
				c0.4,0.2,0.5,0.7,0.3,1C187.3,236.8,187,236.9,186.8,236.9L186.8,236.9z"/>
			<path class="st51" d="M148.9,242.3c-0.1,0-0.2,0-0.3,0h-0.1c-2.8-0.1-5.6-0.6-8.3-1.6c-9.9-3.6-18.1-13-14.5-23.9
				c0-0.1,0-0.1,0.1-0.1l6.4-10.7c0.1-0.2,0.4-0.4,0.7-0.4c0.9,0,22.1,0.9,32.5,11.8l16.8,2.3l6.1-1.2c0.4-0.1,0.8,0.2,0.9,0.6
				s-0.2,0.8-0.6,0.9l-6.2,1.2c-0.1,0-0.2,0-0.2,0l-17.2-2.4c-0.2,0-0.3-0.1-0.4-0.2c-9.1-9.8-28-11.4-31.2-11.5l-6.1,10.2
				c-3.2,10.1,4.4,18.7,13.7,22c2.6,0.9,5.2,1.4,7.8,1.5h0.1c3.2,0.1,9.4-1.7,11.1-4.2l2.8-6c0.1-0.3,0.4-0.4,0.7-0.4l16.8,1.2
				c0.1,0,0.2,0,0.3,0.1l5.5,3.2c0.4,0.2,0.5,0.7,0.3,1c-0.2,0.4-0.7,0.5-1,0.3l-5.3-3.1l-16.1-1.2l-2.6,5.6c0,0,0,0.1-0.1,0.1
				C158.9,240.4,152.5,242.3,148.9,242.3L148.9,242.3z"/>
			<path class="st51" d="M107.3,274c-0.1,0-0.3,0-0.4-0.1c-12.6-8.3,0-30.5,0.5-31.5c0.2-0.4,0.7-0.5,1-0.3c0.4,0.2,0.5,0.7,0.3,1
				c-0.1,0.2-12.4,22-1,29.5c0.3,0.2,0.4,0.7,0.2,1C107.8,273.9,107.5,274,107.3,274L107.3,274z"/>
			<path class="st51" d="M157.7,289.1c-0.1,0-0.1,0-0.2,0c-0.4-0.1-0.6-0.5-0.5-0.9c3.9-12.3,3.7-21-0.7-26.1
				c-5.2-6-14.8-4.5-14.9-4.5c-0.4,0.1-0.8-0.2-0.9-0.6s0.2-0.8,0.6-0.9c0.4-0.1,10.5-1.7,16.2,5c4.7,5.5,5.1,14.7,1,27.5
				C158.3,288.9,158,289.1,157.7,289.1L157.7,289.1z"/>
			<path class="st51" d="M188,302.8c-0.1,0-0.2,0-0.3-0.1c-0.4-0.2-0.5-0.6-0.4-1c5.9-12.4,6.5-21.8,1.8-28.1
				c-1.5-2-3.6-3.8-6.3-5.3c-0.6-0.4-1.3-0.7-1.9-1c-6.3-2.9-11.1-2.8-11.2-2.8c-0.4,0-0.8-0.3-0.8-0.7c0-0.4,0.3-0.8,0.7-0.8
				c0.2,0,5.2-0.1,11.8,2.9c0.7,0.3,1.4,0.6,2,1c2.9,1.6,5.1,3.5,6.8,5.7c5,6.8,4.5,16.7-1.6,29.6
				C188.5,302.7,188.3,302.8,188,302.8L188,302.8z"/>
			<path class="st51" d="M189.7,273.9c-0.3,0-0.6-0.2-0.7-0.5c-0.1-0.4,0.1-0.8,0.5-1c2.4-0.8,4.1-2.4,5.1-4.7
				c4.4-10.1-4.9-30.8-5-31c-0.2-0.4,0-0.8,0.4-1c0.4-0.2,0.8,0,1,0.4c0.4,0.9,9.7,21.5,5,32.2c-1.2,2.8-3.2,4.6-6,5.6
				C189.9,273.9,189.8,273.9,189.7,273.9L189.7,273.9z"/>
			<path class="st51" d="M183.2,268.5c-0.1,0-0.2,0-0.3,0c-0.4-0.2-0.6-0.6-0.4-1c3.8-9.3,4.3-20.3,4.3-20.4c0-0.4,0.4-0.8,0.8-0.7
				c0.4,0,0.7,0.4,0.7,0.8c0,0.5-0.5,11.4-4.4,20.9C183.8,268.3,183.5,268.5,183.2,268.5L183.2,268.5z"/>
			<path class="st51" d="M228.5,146.5c-0.2,0-0.4,0-0.7,0c-0.9,0-1.7-0.1-2.5-0.1c-6.4-0.6-12.7-2.9-18.1-6.6
				c-6.6-4.6-11.5-10.9-13.9-18.3c-3.4-10-2-20.4,3.8-28.6c10.4-14.8,32-17.7,48-6.6c8.1,5.6,13.6,14.1,15.3,23.4
				c1.5,8.4-0.4,16.8-5.1,23.6C249.3,141.5,239.4,146.5,228.5,146.5L228.5,146.5z M223.8,80.9c-10,0-19.6,4.4-25.5,12.7
				c-5.6,7.8-6.9,17.8-3.6,27.3l0,0c2.4,7.1,7,13.1,13.4,17.6c5.2,3.6,11.2,5.8,17.4,6.4c0.8,0.1,1.6,0.1,2.4,0.1c0.2,0,0.4,0,0.6,0
				c10.3,0,19.8-4.7,25.5-12.7c4.6-6.4,6.3-14.4,4.9-22.4c-1.6-8.9-6.9-17-14.6-22.4C237.9,83,230.8,80.9,223.8,80.9L223.8,80.9z"/>
			<path class="st51" d="M229.9,144.2L229.9,144.2c-0.3,0-24.7-0.7-33.5-24.1c-0.1-0.2-0.1-0.5,0.1-0.7c1.5-2,9.1-12.2,11.1-13.1
				c3-1.3,28.3,18.2,33.4,22.8c2.3,2.1,2.7,2.8,2.4,3.4c-0.6,1.8-10.1,9.3-13.1,11.5C230.2,144.2,230.1,144.2,229.9,144.2z
				 M197.9,120c8.1,20.8,29.2,22.6,31.7,22.8c5.5-4.2,11.4-9.1,12.2-10.5c-0.9-1.3-7-6.6-16.1-13.3c-10.1-7.4-16.5-11.3-17.6-11.3
				c0,0,0,0,0,0C207,108.2,201.6,115.1,197.9,120L197.9,120z"/>
			<path class="st51" d="M192,144.2c-0.4,0-0.9-0.1-1.4-0.1c-3.8-0.8-9-3.7-11.1-9c-1.4-3.6-0.5-6.9,2.6-9.6c4.3-3.6,11.4-5,11.7-5
				c0.4-0.1,0.8,0.2,0.9,0.6c0.1,0.4-0.2,0.8-0.6,0.9c-0.1,0-7,1.3-11,4.7c-2.7,2.3-3.4,4.8-2.2,7.9c1.9,4.8,6.6,7.4,10.1,8.1
				c1.3,0.3,2.3,0.1,3.3-0.6c2.5-1.8,3.1-6.1,3.1-6.1c0.1-0.4,0.4-0.7,0.8-0.6s0.7,0.4,0.6,0.8c0,0.2-0.7,5.1-3.7,7.2
				C194.1,143.9,193.1,144.2,192,144.2L192,144.2z"/>
			<path class="st51" d="M218.8,148.2c-0.4,0-0.7,0-1.1,0c-4.4-0.3-9.3-2.2-14.4-5.8c-2.4-1.6-4.3-3.6-5.9-5.9
				c-5-7.3-4.2-15-4.2-15.3c0.1-0.4,0.4-0.7,0.8-0.7c0.4,0.1,0.7,0.4,0.7,0.8c0,0.1-0.8,7.5,3.9,14.3c1.5,2.1,3.4,4,5.6,5.5
				c4.9,3.4,9.5,5.3,13.6,5.6c4.7,0.3,7.1-1.6,7.1-1.6c0.3-0.3,0.8-0.2,1.1,0.1c0.3,0.3,0.2,0.8-0.1,1.1
				C225.7,146.3,223.4,148.2,218.8,148.2L218.8,148.2z"/>
			<path class="st51" d="M222.8,163.7c-0.8,0-1.6-0.1-2.5-0.2c-3.9-0.6-6.5-2.7-7.3-5.9c-0.9-3.7,0.9-8.2,4.2-10.8
				c0.3-0.2,0.8-0.2,1.1,0.1c0.2,0.3,0.2,0.8-0.1,1.1c-2.9,2.2-4.5,6.1-3.7,9.2c0.4,1.8,1.9,4.1,6.1,4.8c2.3,0.4,4.4,0.2,5.9-0.6
				c1.5-0.7,2.5-1.9,3.1-3.5c0.9-2.9,0.1-6.8-2.4-11.1c-0.2-0.4-0.1-0.8,0.3-1c0.4-0.2,0.8-0.1,1,0.3c2.7,4.6,3.6,9,2.5,12.3
				c-0.6,2-2,3.5-3.8,4.4C226,163.4,224.5,163.7,222.8,163.7L222.8,163.7z"/>
			<path class="st51" d="M173.2,123.1c-0.2,0-0.4-0.1-0.5-0.2c-1.4-1.5-2.1-3.1-2-4.7c0.2-3.3,3.6-6.2,6.3-8.4
				c0.5-0.4,1-0.8,1.4-1.2c2.8-2.5,1.6-10.1,0.9-12.8c-0.1-0.4,0.1-0.8,0.5-0.9c0.4-0.1,0.8,0.1,0.9,0.5c0.1,0.4,2.7,10.7-1.4,14.3
				c-0.4,0.4-0.9,0.8-1.4,1.2c-2.5,2.1-5.6,4.7-5.7,7.4c-0.1,1.2,0.4,2.4,1.6,3.6c0.3,0.3,0.3,0.8,0,1.1
				C173.6,123,173.4,123.1,173.2,123.1L173.2,123.1z"/>
			<path class="st51" d="M216.7,296.2c-1,0-2.1-0.1-3.2-0.2c-5.7-0.7-9.9-3.4-11.9-7.9c-2.4-5.4-0.9-12.4,4.1-19
				c3.4-4.5,7.7-8.1,9.9-9.9c1.1-0.8,2.5-0.9,3.7-0.2l0,0c2.4,1.4,7.9,6.9,12.4,17.8c2,4.9,1.5,9.8-1.3,13.5
				C227.6,294.1,222.7,296.1,216.7,296.2L216.7,296.2z M217.8,260c-0.4,0-0.8,0.1-1.1,0.4c-2.2,1.7-6.4,5.2-9.7,9.6
				c-4.6,6.2-6.1,12.6-3.9,17.5c1.7,3.9,5.5,6.4,10.7,7c6.9,0.8,12.5-1.1,15.6-5.1c2.5-3.3,2.9-7.6,1.1-12
				c-4.3-10.5-9.6-15.7-11.8-17.1C218.4,260.1,218.1,260,217.8,260L217.8,260z"/>
			<path class="st51" d="M224.6,316.6c-3.9,0-7.3-1.7-7.6-1.9c-0.1,0-0.1-0.1-0.2-0.1c0,0,0,0-0.1-0.1c-0.1-0.1-0.2-0.3-0.2-0.4l0,0
				c0,0,0-0.1,0-0.1l0,0c0.2-6.1-0.2-9.2-1-14.7c-0.1-1.1-0.3-2.4-0.5-3.8c-0.1-0.4,0.2-0.8,0.6-0.8c0.4,0,0.8,0.2,0.8,0.6
				c0.2,1.4,0.3,2.6,0.5,3.8c0.7,5.1,1.1,8.1,1,13.2c6.6-5.3,17.6-4.9,18.1-4.9c0.2,0,0.4,0.1,0.6,0.3c0.1,0.2,0.2,0.4,0.1,0.7
				c0,0.1-1.2,3.3-6.7,6.7C228.4,316.2,226.4,316.6,224.6,316.6L224.6,316.6z M218.6,313.8c2.1,0.8,7,2.3,10.8,0
				c3.2-2,4.8-3.8,5.5-4.9C231.8,309,223.5,309.6,218.6,313.8z"/>
			<path class="st51" d="M216.5,314.8c-3.2,0-5.8-1-7.9-2.9c-4.4-4.2-4.4-11.3-4.4-11.6c0-0.3,0.1-0.5,0.4-0.6
				c0.2-0.1,0.5-0.1,0.7,0c0.5,0.3,11.4,6.4,12.8,14.3c0,0.2,0,0.4-0.1,0.6c-0.1,0.2-0.3,0.3-0.6,0.3
				C217.1,314.8,216.8,314.9,216.5,314.8L216.5,314.8z M205.7,301.7c0.2,2.2,1,6.4,3.9,9.1c1.7,1.6,4,2.5,6.8,2.5
				C214.9,308,208.4,303.4,205.7,301.7L205.7,301.7z"/>
			<path class="st51" d="M342.4,319.1h-58.5c-0.3,0-0.6-0.2-0.7-0.5l-11.5-41.1c-0.1-0.3,0-0.7,0.3-0.8c0,0,0.2-0.1,0.2-0.1
				c3.4-0.9,38.3,2.4,58.8,4.5c2.7,0.3,4.8,2.2,5.4,4.9l6.7,32.3c0,0.2,0,0.5-0.1,0.6C342.9,319,342.7,319.1,342.4,319.1
				L342.4,319.1z M284.5,317.6h57l-6.5-31.4c-0.4-2-2-3.5-4.1-3.7c-32.2-3.2-53.3-5-57.6-4.6L284.5,317.6L284.5,317.6z"/>
			<path class="st51" d="M258.4,318.8c-0.3,0-0.6-0.2-0.7-0.6c-0.1-0.3-6.1-29.3-4.1-34c1.2-2.8,13.1-6.4,18.2-7.8
				c0.3-0.1,0.4-0.1,0.4-0.1c0.4-0.1,0.8,0.1,0.9,0.5c0.1,0.4-0.1,0.8-0.5,0.9c0,0-0.1,0-0.4,0.1c-8,2.2-16.5,5.4-17.2,6.9
				c-1.7,3.9,3.6,30.9,4.1,33c0.1,0.4-0.2,0.8-0.6,0.9C258.5,318.8,258.5,318.8,258.4,318.8z"/>
			<path class="st51" d="M258.4,318.8c-0.4,0-0.8-0.3-0.8-0.8s0.3-0.8,0.8-0.8s0.8,0.3,0.8,0.7v0
				C259.1,318.5,258.8,318.8,258.4,318.8L258.4,318.8z"/>
			<path class="st51" d="M329.4,325c-11.8,0-32.4-5.7-33.4-6c-0.4-0.1-0.6-0.5-0.5-0.9s0.5-0.6,0.9-0.5c0.3,0.1,25.8,7.1,36.1,5.7
				c4.8-0.7,5.6-1.9,5.8-2.3c0.2-0.8-0.8-1.8-1.1-2.1c-0.3-0.3-0.4-0.7-0.1-1c0.2-0.3,0.7-0.4,1-0.1c0.1,0.1,2.2,1.7,1.6,3.6
				c-0.5,1.7-2.8,2.9-7,3.4C331.7,324.9,330.6,325,329.4,325L329.4,325z"/>
			<path class="st51" d="M330.7,328.3c-16.5,0-45.6-8.9-47-9.3c-0.4-0.1-0.6-0.5-0.5-0.9c0.1-0.4,0.5-0.6,0.9-0.5
				c0.4,0.1,36.5,11.1,51,9c6.3-1,8-2.6,8.4-3.9c0.5-1.8-1.7-3.8-1.7-3.8c-0.3-0.3-0.4-0.8-0.1-1.1c0.3-0.3,0.7-0.4,1.1-0.1
				c0.1,0.1,3,2.6,2.2,5.4c-0.7,2.5-3.9,4.1-9.6,4.9C334,328.2,332.4,328.3,330.7,328.3L330.7,328.3z"/>
			<path class="st51" d="M283.9,319.1h-17.6c-3.6,0-6.2-0.1-8-0.3c-2-0.2-3-0.5-4.2-0.8c-1.4-0.4-2.9-0.8-6.1-1.2s-5.2-0.8-6.8-1
				c-2.9-0.5-4.4-0.8-11.4-0.6c-0.4,0-0.8-0.3-0.8-0.7s0.3-0.8,0.7-0.8c7.1-0.2,8.6,0,11.7,0.6c1.5,0.3,3.4,0.6,6.7,1
				c3.4,0.4,4.9,0.8,6.3,1.2c1.1,0.3,2.1,0.6,4,0.8c1.8,0.2,4.3,0.3,7.9,0.3h17.6c0.4,0,0.8,0.3,0.8,0.8S284.3,319.1,283.9,319.1
				L283.9,319.1z"/>
			<path class="st51" d="M206.7,310c-0.1,0-0.2,0-0.4-0.1c-0.1-0.1-13.4-7.1-18.3-7.1H188c-4.3,0-25.2-9.9-29.8-13.3
				c-0.3-0.2-0.6-0.4-0.8-0.5c-2.9-1.5-8.3-1.8-12.2-2c-3.5-0.2-5.2-0.3-6-0.9c-1.6-1.3-6.6-4.4-14.2-8.5c-4-2.2-10.1-3.4-17.6-3.6
				c-5.5-0.1-10.8,0.3-14.3,0.7c-10.5,1.2-27.6-1.2-34.5-5c-0.4-0.2-0.5-0.6-0.3-1s0.7-0.5,1-0.3c6.6,3.6,23.5,6,33.6,4.8
				c3.5-0.4,8.9-0.9,14.5-0.7c7.9,0.2,14.1,1.5,18.3,3.8c8.2,4.5,12.9,7.5,14.4,8.7c0.4,0.3,3,0.4,5.1,0.5c4.3,0.2,9.6,0.5,12.8,2.1
				c0.4,0.2,0.7,0.4,1.1,0.6c4.6,3.5,25.2,13,28.9,13c0,0,0.1,0,0.1,0c5.3,0,18.4,7,19,7.3c0.4,0.2,0.5,0.6,0.3,1
				C207.2,309.8,207,310,206.7,310L206.7,310z"/>
			<path class="st51" d="M215.2,120.1c-0.1,0-0.2,0-0.4-0.1c-1.6-0.9-2.6-5.6-2.8-7c-0.1-0.4,0.2-0.8,0.6-0.9s0.8,0.2,0.9,0.6
				c0.4,2.6,1.4,5.6,2.1,6c0.4,0.2,0.5,0.7,0.3,1C215.7,119.9,215.4,120.1,215.2,120.1L215.2,120.1z"/>
			<path class="st51" d="M216.2,135.7c-0.4,0-0.8-0.3-0.8-0.8v-1.6H213c-0.4,0-0.8-0.3-0.8-0.8s0.3-0.8,0.8-0.8h3.2
				c0.4,0,0.8,0.3,0.8,0.8v2.4C216.9,135.3,216.6,135.7,216.2,135.7z"/>
			<path class="st51" d="M184,98.1c-0.2,0-0.5-0.1-0.8-0.2l-3.6-1.8c-0.1,0-0.1,0-0.2,0l-3.6,1.8c-0.6,0.3-1.2,0.2-1.8-0.2
				c-0.5-0.4-0.7-0.9-0.6-1.5l0.7-3.8l-2.9-2.7c-0.4-0.4-0.6-1-0.4-1.6c0.2-0.6,0.7-1,1.3-1.1l4-0.6c0,0,0.1,0,0.1-0.1l1.8-3.4
				c0.3-0.5,0.8-0.9,1.4-0.9s1.2,0.3,1.4,0.9l1.8,3.4c0,0,0.1,0.1,0.1,0.1l4,0.6c0.6,0.1,1.1,0.5,1.3,1.1c0.2,0.6,0,1.2-0.4,1.6
				l-2.9,2.7l0.7,3.8c0.1,0.6-0.1,1.2-0.6,1.5C184.7,98,184.3,98.1,184,98.1L184,98.1z M179.6,94.6c0.2,0,0.5,0.1,0.8,0.2l3.6,1.8
				c0.1,0.1,0.2,0,0.2,0l-0.7-3.8c-0.1-0.5,0.1-1.1,0.5-1.4l2.9-2.7c0,0-0.1-0.1-0.1-0.1l-4-0.6c-0.5-0.1-1-0.4-1.2-0.9l-1.8-3.4
				l0,0c-0.1-0.1-0.2-0.1-0.2,0l-1.8,3.4c-0.2,0.5-0.7,0.8-1.2,0.8l-4.1,0.6c-0.1,0-0.1,0-0.1,0.1l2.9,2.7c0.4,0.3,0.6,0.8,0.5,1.4
				l-0.7,3.8c0.1,0.1,0.1,0.1,0.2,0.1l3.6-1.8C179,94.7,179.3,94.6,179.6,94.6L179.6,94.6z"/>
			<path class="st51" d="M188.2,237.2c-0.6,0-1.1-0.1-1.7-0.3l0,0c0,0,0,0-0.1,0c-0.5-0.2-0.9-0.5-1.4-0.8c0,0,0,0-0.1-0.1
				c-2-1.6-3.2-4.7-3.2-8.1c0-4.2,1.9-7.9,4.7-9c0.5-0.2,1.1-0.3,1.7-0.3c3.5,0,6.4,4.2,6.4,9.3c0,2.6-0.8,5.1-2.1,6.9
				C191.4,236.3,189.8,237.2,188.2,237.2L188.2,237.2z M187.1,235.5c1.5,0.5,3.1-0.1,4.2-1.6c1.1-1.5,1.8-3.7,1.8-6
				c0-4.2-2.3-7.8-4.9-7.8c-0.4,0-0.8,0.1-1.1,0.2c-2.2,0.9-3.8,4.1-3.8,7.6c0,2.9,1,5.6,2.7,7l0,0c0,0,0.1,0.1,0.1,0.1
				C186.4,235.1,186.7,235.3,187.1,235.5L187.1,235.5C187,235.4,187.1,235.4,187.1,235.5L187.1,235.5z"/>
			<g>
				<g>
					<defs>
						<path id="SVGID_00000052803748133605189000000014891882190233204611_" d="M231.3,186c0,0,3.5,8.9,2.6,16.5
							c-1,8.8-6.5,9.8-6.5,9.8S232.5,197.7,231.3,186L231.3,186z"/>
					</defs>
					<clipPath id="SVGID_00000067202476656179622840000014488435979860581008_">
						<use xlink:href="#SVGID_00000052803748133605189000000014891882190233204611_"  style="overflow:visible;"/>
					</clipPath>
					<g style="clip-path:url(#SVGID_00000067202476656179622840000014488435979860581008_);">
						<rect x="227.4" y="186" class="st53" width="0.2" height="26.2"/>
						<rect x="227.6" y="186" class="st55" width="0.2" height="26.2"/>
						<rect x="227.8" y="186" class="st56" width="0.2" height="26.2"/>
						<rect x="228" y="186" class="st57" width="0.2" height="26.2"/>
						<rect x="228.1" y="186" class="st58" width="0.2" height="26.2"/>
						<rect x="228.3" y="186" class="st59" width="0.2" height="26.2"/>
						<rect x="228.5" y="186" class="st60" width="0.2" height="26.2"/>
						<rect x="228.7" y="186" class="st61" width="0.2" height="26.2"/>
						<rect x="228.8" y="186" class="st62" width="0.2" height="26.2"/>
						<rect x="229" y="186" class="st63" width="0.2" height="26.2"/>
						<rect x="229.2" y="186" class="st64" width="0.2" height="26.2"/>
						<rect x="229.4" y="186" class="st65" width="0.2" height="26.2"/>
						<rect x="229.6" y="186" class="st66" width="0.2" height="26.2"/>
						<rect x="229.7" y="186" class="st67" width="0.2" height="26.2"/>
						<rect x="229.9" y="186" class="st68" width="0.2" height="26.2"/>
						<rect x="230.1" y="186" class="st69" width="0.2" height="26.2"/>
						<rect x="230.2" y="186" class="st70" width="0.2" height="26.2"/>
						<rect x="230.4" y="186" class="st71" width="0.2" height="26.2"/>
						<rect x="230.6" y="186" class="st72" width="0.2" height="26.2"/>
						<rect x="230.8" y="186" class="st73" width="0.2" height="26.2"/>
						<rect x="230.9" y="186" class="st74" width="0.2" height="26.2"/>
						<rect x="231.1" y="186" class="st75" width="0.2" height="26.2"/>
						<rect x="231.3" y="186" class="st76" width="0.2" height="26.2"/>
						<rect x="231.5" y="186" class="st77" width="0.2" height="26.2"/>
						<rect x="231.6" y="186" class="st78" width="0.2" height="26.2"/>
						<rect x="231.8" y="186" class="st79" width="0.2" height="26.2"/>
						<rect x="232" y="186" class="st80" width="0.2" height="26.2"/>
						<rect x="232.2" y="186" class="st81" width="0.2" height="26.2"/>
						<rect x="232.4" y="186" class="st82" width="0.2" height="26.2"/>
						<rect x="232.5" y="186" class="st83" width="0.2" height="26.2"/>
						<rect x="232.7" y="186" class="st84" width="0.2" height="26.2"/>
						<rect x="232.9" y="186" class="st85" width="0.2" height="26.2"/>
						<rect x="233.1" y="186" class="st86" width="0.2" height="26.2"/>
						<rect x="233.2" y="186" class="st87" width="0.2" height="26.2"/>
						<rect x="233.4" y="186" class="st88" width="0.2" height="26.2"/>
						<rect x="233.6" y="186" class="st89" width="0.2" height="26.2"/>
						<rect x="233.8" y="186" class="st90" width="0.2" height="26.2"/>
						<rect x="233.9" y="186" class="st3" width="0.2" height="26.2"/>
						<rect x="234.1" y="186" class="st3" width="0.8" height="26.2"/>
					</g>
				</g>
			</g>
			<path class="st51" d="M194.8,235.2c-0.8,0-1.5,0-2.2-0.1l-0.3,0c-0.2,0-0.4,0-0.5-0.1c-0.4-0.1-0.7-0.4-0.6-0.9s0.4-0.7,0.9-0.6
				c0.1,0,0.3,0,0.4,0.1l0.3,0c12.9,1,26.6-6.9,32-18.2c1.4-3,3.8-12.2,4.8-17.3c1.4-6.8,1.9-13,1.6-18.6
				c-0.6-11.9-4.8-16.9-4.8-16.9c-0.3-0.3-0.2-0.8,0.1-1.1c0.3-0.3,0.8-0.2,1.1,0.1c0.2,0.2,4.5,5.4,5.2,17.8
				c0.3,5.7-0.2,12.1-1.6,19c-0.9,4.5-3.3,14.3-4.9,17.6C220.8,227.2,207.6,235.2,194.8,235.2L194.8,235.2z"/>
		</g>
	</g>
</g>
</svg>
