<svg xmlns="http://www.w3.org/2000/svg" width="28" height="28" viewBox="0 0 28 28">
  <g id="그룹_20755" data-name="그룹 20755" transform="translate(-11 -170)">
    <rect id="사각형_25188" data-name="사각형 25188" width="28" height="28" transform="translate(11 170)" fill="none"/>
    <g id="그룹_20736" data-name="그룹 20736" transform="translate(-8 4)">
      <g id="레이어_4" transform="translate(-85 88.51)">
        <g id="그룹_20723" data-name="그룹 20723" transform="translate(110 80.49)">
          <path id="패스_7849" data-name="패스 7849" d="M123.47,88.715V85.874a5.9,5.9,0,0,0-11.751,0v2.841A2.458,2.458,0,0,0,110,91.056V98.3a2.457,2.457,0,0,0,2.454,2.454h10.28a2.457,2.457,0,0,0,2.454-2.454V91.057A2.457,2.457,0,0,0,123.47,88.715Zm-5.876-7.12a4.551,4.551,0,0,1,4.771,4.28V88.6h-1.056V86.52a3.719,3.719,0,1,0-7.431,0V88.6h-1.056V85.875A4.551,4.551,0,0,1,117.594,81.6ZM120.2,88.6h-5.222V86.52a2.616,2.616,0,1,1,5.222,0Zm3.878,9.7a1.351,1.351,0,0,1-1.349,1.35H112.454A1.351,1.351,0,0,1,111.1,98.3V91.057a1.351,1.351,0,0,1,1.349-1.35h10.28a1.351,1.351,0,0,1,1.349,1.35V98.3Z" transform="translate(-110 -80.49)" fill="#646464" stroke="#646464" stroke-width="0.3"/>
          <path id="패스_7850" data-name="패스 7850" d="M202.312,253.5a1.311,1.311,0,0,0-.587,2.483v1.037a.346.346,0,0,0,.346.346h.482a.346.346,0,0,0,.346-.346v-1.037a1.311,1.311,0,0,0-.587-2.483Z" transform="translate(-194.718 -241.556)" fill="#646464" stroke="#646464" stroke-width="0.3"/>
        </g>
      </g>
    </g>
  </g>
</svg>
