<svg xmlns="http://www.w3.org/2000/svg" width="28" height="28" viewBox="0 0 28 28">
  <g id="그룹_21266" data-name="그룹 21266" transform="translate(-1208 -228)">
    <g id="구성_요소_25_119" data-name="구성 요소 25 – 119" transform="translate(1208 228)">
      <g id="그룹_20379" data-name="그룹 20379" transform="translate(-266 -2715)">
        <g id="다각형_34" data-name="다각형 34" transform="translate(269 2718)" fill="none">
          <path d="M9.63,3.065a1.5,1.5,0,0,1,2.739,0L13.958,6.62a1.5,1.5,0,0,0,1.173.875L18.96,8a1.5,1.5,0,0,1,.857,2.555L16.9,13.429a1.5,1.5,0,0,0-.422,1.337l.736,4.042a1.5,1.5,0,0,1-2.227,1.567L11.751,18.5a1.5,1.5,0,0,0-1.5,0L7.01,20.374a1.5,1.5,0,0,1-2.227-1.567l.736-4.042A1.5,1.5,0,0,0,5.1,13.429L2.183,10.557A1.5,1.5,0,0,1,3.04,8L6.869,7.5A1.5,1.5,0,0,0,8.042,6.62Z" stroke="none"/>
          <path d="M 11 3.476911544799805 C 10.87030982971191 3.476911544799805 10.83187007904053 3.56294059753418 10.8173999786377 3.595321655273438 L 9.228859901428223 7.150521278381348 C 8.835129737854004 8.031711578369141 7.996150016784668 8.657670974731445 7.039349555969238 8.784121513366699 L 3.210470199584961 9.29021167755127 C 3.176630020141602 9.294681549072266 3.086740493774414 9.306571006774902 3.047060012817383 9.424911499023438 C 3.007379531860352 9.543251037597656 3.071939468383789 9.606911659240723 3.096250534057617 9.630890846252441 L 6.008830070495605 12.50321102142334 C 6.668620109558105 13.15388107299805 6.96343994140625 14.0866117477417 6.797490119934082 14.99828147888184 L 6.06173038482666 19.04029083251953 C 6.049759864807129 19.10607147216797 6.060660362243652 19.1533317565918 6.098179817199707 19.19830131530762 C 6.13955020904541 19.24787139892578 6.202949523925781 19.27991104125977 6.259690284729004 19.27991104125977 C 6.290599822998047 19.27991104125977 6.322990417480469 19.26986122131348 6.358710289001465 19.24918174743652 L 9.597220420837402 17.37446212768555 C 10.02297973632812 17.12800216674805 10.50806045532227 16.99772071838379 11 16.99772071838379 C 11.49193954467773 16.99772071838379 11.97702026367188 17.12800216674805 12.4027795791626 17.37446212768555 L 15.64130973815918 19.24919128417969 C 15.68886947631836 19.27673149108887 15.72059059143066 19.27991104125977 15.74031066894531 19.27991104125977 C 15.79701042175293 19.27991104125977 15.86038970947266 19.24786186218262 15.90176963806152 19.19827079772949 C 15.93931007385254 19.15328216552734 15.95022010803223 19.10603141784668 15.93826007843018 19.04028129577637 L 15.20250988006592 14.99828147888184 C 15.03656005859375 14.0866117477417 15.33137989044189 13.15388107299805 15.99116992950439 12.50321102142334 L 18.90374946594238 9.630881309509277 C 18.92806053161621 9.606911659240723 18.99262046813965 9.543251037597656 18.95293998718262 9.424911499023438 C 18.91325950622559 9.306571006774902 18.8233699798584 9.294681549072266 18.78952026367188 9.29021167755127 L 14.96064949035645 8.784121513366699 C 14.00382995605469 8.657650947570801 13.16485977172852 8.031691551208496 12.77114009857178 7.150521278381348 L 11.18260955810547 3.595340728759766 C 11.16814041137695 3.562952041625977 11.12969017028809 3.476911544799805 11 3.476911544799805 M 10.99999618530273 2.176916122436523 C 11.55247974395752 2.176916122436523 12.10496520996094 2.472940444946289 12.36950969696045 3.064990997314453 L 13.95804977416992 6.62019157409668 C 14.1705493927002 7.095781326293945 14.61458015441895 7.427071571350098 15.13100051879883 7.495331764221191 L 18.95986938476562 8.001420974731445 C 20.1972599029541 8.164971351623535 20.70527076721191 9.68009090423584 19.81657028198242 10.5565013885498 L 16.90398979187012 13.4288215637207 C 16.55081939697266 13.7771110534668 16.39266014099121 14.2774715423584 16.48149108886719 14.76547145843506 L 17.21723937988281 18.80747222900391 C 17.44626045227051 20.06562995910645 16.09677124023438 21.01497077941895 14.98999977111816 20.37427139282227 L 11.75148963928223 18.49955177307129 C 11.28663063049316 18.2304515838623 10.71336936950684 18.2304515838623 10.24851036071777 18.49955177307129 L 7.010000228881836 20.37427139282227 C 5.903230667114258 21.01496887207031 4.553730010986328 20.06563186645508 4.782749176025391 18.80747222900391 L 5.518510818481445 14.76547145843506 C 5.607339859008789 14.2774715423584 5.449180603027344 13.7771110534668 5.096010208129883 13.4288215637207 L 2.183429718017578 10.5565013885498 C 1.294729232788086 9.68009090423584 1.802740097045898 8.164971351623535 3.040130615234375 8.001420974731445 L 6.869000434875488 7.495331764221191 C 7.385419845581055 7.427081108093262 7.829449653625488 7.095781326293945 8.041950225830078 6.62019157409668 L 9.630490303039551 3.064990997314453 C 9.89503002166748 2.472940444946289 10.44751262664795 2.176916122436523 10.99999618530273 2.176916122436523 Z" stroke="none" fill="#acacac"/>
        </g>
      </g>
      <rect id="사각형_25051" data-name="사각형 25051" width="28" height="28" fill="none" opacity="0.5"/>
    </g>
  </g>
</svg>
