<svg id="메모" xmlns="http://www.w3.org/2000/svg" width="20" height="20" viewBox="0 0 20 20">
  <g id="그룹_18941" data-name="그룹 18941" transform="translate(6.258 5.743)">
    <g id="그룹_18924" data-name="그룹 18924" transform="translate(0 0)">
      <g id="나ᄋ_하루_아이콘-06" data-name="나의하루 아이콘-06">
        <path id="패스_7756" data-name="패스 7756" d="M177.11,175.43v5.942a1.02,1.02,0,0,0,1.02,1.02H180.3a1.019,1.019,0,0,0,.779-.362l3.3-3.9a1.017,1.017,0,0,0,.241-.658V175.43a1.02,1.02,0,0,0-1.02-1.02h-5.47A1.02,1.02,0,0,0,177.11,175.43Z" transform="translate(-177.11 -174.41)" fill="none" stroke="#acacac" stroke-miterlimit="10" stroke-width="1"/>
        <path id="패스_7757" data-name="패스 7757" d="M219,219.392v-4a.434.434,0,0,1,.433-.433h3.309" transform="translate(-215.333 -211.41)" fill="none" stroke="#acacac" stroke-miterlimit="10" stroke-width="1"/>
      </g>
    </g>
  </g>
  <rect id="사각형_24264" data-name="사각형 24264" width="20" height="20" fill="none" opacity="0.5"/>
</svg>
