<?xml version="1.0" encoding="UTF-8"?>
<svg xmlns="http://www.w3.org/2000/svg" xmlns:xlink="http://www.w3.org/1999/xlink" viewBox="0 0 402.38 401.71">
  <defs>
    <style>
      .cls-1 {
        fill: #d0d0cf;
      }

      .cls-2 {
        fill: #fff;
      }

      .cls-3 {
        fill: #c5cbff;
      }

      .cls-4 {
        isolation: isolate;
      }

      .cls-5 {
        fill: #b2b1b1;
      }

      .cls-6 {
        fill: #f5d242;
      }

      .cls-7, .cls-8 {
        fill: none;
        stroke: #231815;
        stroke-linejoin: round;
        stroke-width: 1.5px;
      }

      .cls-9 {
        fill: #bddbf0;
      }

      .cls-8 {
        stroke-linecap: round;
      }

      .cls-10 {
        fill: url(#_무제_그라디언트_5-2);
        mix-blend-mode: multiply;
      }

      .cls-11 {
        fill: #f6bcac;
      }

      .cls-12 {
        fill: url(#_무제_그라디언트_5);
      }

      .cls-13 {
        fill: #231815;
      }

      .cls-14 {
        fill: url(#_무제_그라디언트_6);
      }
    </style>
    <linearGradient id="_무제_그라디언트_5" data-name="무제 그라디언트 5" x1="81.98" y1="192.67" x2="117.14" y2="192.67" gradientUnits="userSpaceOnUse">
      <stop offset="0" stop-color="#d9f1ff"/>
      <stop offset="1" stop-color="#c5cbff"/>
    </linearGradient>
    <linearGradient id="_무제_그라디언트_6" data-name="무제 그라디언트 6" x1="332.68" y1="153.19" x2="347.46" y2="153.19" gradientUnits="userSpaceOnUse">
      <stop offset="0" stop-color="#97d7ff"/>
      <stop offset="1" stop-color="#c5cbff"/>
    </linearGradient>
    <linearGradient id="_무제_그라디언트_5-2" data-name="무제 그라디언트 5" x1="210.72" y1="195.33" x2="229.85" y2="195.33" xlink:href="#_무제_그라디언트_5"/>
  </defs>
  <g class="cls-4">
    <g id="_레이어_2" data-name="레이어 2">
      <g>
        <g>
          <path class="cls-12" d="m97.1,214.21c-2.98,0-5.8-.69-8.39-2.06-3.45-1.83-5.68-4.75-6.44-8.46-1.01-4.96.73-10.67,4.77-15.66,10.46-12.91,22.13-16.15,26.05-16.9,1.09,2.53,3.31,8.17,3.85,12.99.74,6.66-.66,13.97-4.05,21.16-2.48,5.26-8.98,8.93-15.8,8.93h0Z"/>
          <path class="cls-2" d="m111.89,173.41c1.18,2.97,2.67,7.32,3.07,10.92.7,6.29-.64,13.23-3.88,20.08-2.13,4.51-8.01,7.79-13.99,7.79-2.65,0-5.16-.62-7.46-1.83-2.91-1.54-4.78-3.99-5.41-7.09-.89-4.37.7-9.47,4.37-14,9-11.11,18.67-14.72,23.29-15.87m2.42-4.5s-15.32,1.19-28.81,17.85c-8.08,9.97-7.21,22.13,2.28,27.15,3,1.59,6.2,2.29,9.33,2.29,7.65,0,14.85-4.23,17.61-10.08,3.61-7.65,4.99-15.4,4.23-22.23s-4.63-14.98-4.63-14.98h0Z"/>
        </g>
        <path class="cls-14" d="m346.77,150.92c.66.09.92.9.45,1.37l-2.69,2.62c-.19.18-.27.45-.23.71l.63,3.7c.12.65-.57,1.16-1.16.85l-3.32-1.75c-.24-.12-.52-.12-.75,0l-3.32,1.75c-.59.31-1.28-.2-1.17-.85l.64-3.7c.04-.26-.05-.53-.24-.71l-.85-.83h0s-1.83-1.79-1.83-1.79c-.48-.47-.22-1.28.44-1.37l3.72-.54c.26-.04.48-.2.6-.44l1.66-3.36c.3-.6,1.15-.6,1.44,0l1.66,3.36c.12.24.35.4.61.44l3.71.54Z"/>
        <path class="cls-3" d="m320.34,150.61l-.07.24s3.42,4.18,5.68,7.54c.98,1.46,1.75,2.77,1.91,3.5.54,2.42,1.34,8.46-6.6,10.44-7.94,1.99-14.75-5.46-14.75-5.46-1.6.65-3.55.98-5.22,1.16,0,0,.58,3.78-1.1,6.5-1.67,2.71-10.83,6.58-16.41-.84-3.95-5.26-7.97-23.02-13.31-24.77-12.57-4.12-15.4-10.71-14.11-13.99,2.68-6.85,9.29-2.19,9.29-2.19.4.65.83,1.3,1.3,1.94,3.56,4.91,7.56,8.05,11.74,9.9l-.06.14s6.27,6.34,15.35,6.13c9.08-.22,14.41-8.62,15.08-9.01.79-.37,1.57-.74,2.31-1.12,1.64-.83,3.12-1.73,4.45-2.7,0,0,10.15-.58,12.71.96,4.86,2.96,4.76,9.51-.35,11.87-2.41,1.11-5.37.6-7.84-.24Z"/>
        <path class="cls-3" d="m323.39,108.69c3.13,13.92.86,23.15-7.57,29.33-1.33.97-2.81,1.87-4.45,2.7-.74.38-1.52.75-2.31,1.12-8.65,4.03-20.06,7.32-30.37,2.74-4.18-1.85-8.18-4.99-11.74-9.9-.47-.64-.9-1.29-1.3-1.94-10.95-17.54,1.09-35.55,11.73-40.51,9.11-4.25,19.64-4.83,25.22-3.02,5.59,1.81,17.94,6.85,20.79,19.48Zm-31.81,35.6c9.36-.34,16.15-3.88,15.94-5-.86-4.42-3.13-15.5-4.62-16.83-1.88-1.68-36.61-4.11-36.7-3.4l-.09.71s.12,14.42,8.53,20.6c0,0,5.54,4.33,16.94,3.92Z"/>
        <path class="cls-2" d="m307.52,139.29c.21,1.12-6.58,4.66-15.94,5-11.4.41-16.94-3.92-16.94-3.92-8.41-6.18-8.53-20.6-8.53-20.6l.09-.71c.09-.71,34.82,1.72,36.7,3.4,1.49,1.33,3.76,12.41,4.62,16.83Zm-12.05-5.17c1.22-.27,2-1.83,1.74-3.5-.27-1.66-1.48-2.8-2.7-2.53-1.23.27-2.01,1.83-1.74,3.5.27,1.66,1.48,2.8,2.7,2.53Zm-19.02-.25c1.23-.23,1.94-1.76,1.6-3.42-.34-1.65-1.62-2.81-2.84-2.57-1.23.23-1.95,1.76-1.6,3.41.34,1.66,1.61,2.81,2.84,2.58Z"/>
        <path class="cls-9" d="m309.06,141.84c-.67.39-6,8.79-15.08,9.01-9.08.21-15.35-6.13-15.35-6.13l.06-.14c10.31,4.58,21.72,1.29,30.37-2.74Z"/>
        <path class="cls-13" d="m297.21,130.62c.26,1.67-.52,3.23-1.74,3.5s-2.43-.87-2.7-2.53c-.27-1.67.51-3.23,1.74-3.5,1.22-.27,2.43.87,2.7,2.53Z"/>
        <path class="cls-13" d="m278.05,130.45c.34,1.66-.37,3.19-1.6,3.42s-2.5-.92-2.84-2.58c-.35-1.65.37-3.18,1.6-3.41,1.22-.24,2.5.92,2.84,2.57Z"/>
        <path class="cls-6" d="m255.01,175.35c.4.53.03,1.29-.63,1.3l-3.75.03c-.27,0-.52.13-.66.35l-2.11,3.11c-.37.55-1.22.43-1.43-.2l-1.18-3.56c-.09-.25-.29-.44-.54-.52l-3.61-1.04c-.64-.18-.79-1.02-.25-1.42l3.02-2.23c.21-.15.33-.41.32-.67l-.12-3.75c-.02-.66.73-1.07,1.27-.68l3.05,2.18c.22.16.5.19.74.1l3.53-1.27c.63-.23,1.24.36,1.04,1l-1.13,3.57c-.08.26-.03.53.13.74l2.31,2.96Z"/>
        <path class="cls-6" d="m249.69,142.96c.41.53.04,1.3-.63,1.3l-3.75.03c-.27,0-.51.13-.66.35l-2.1,3.11c-.38.55-1.22.43-1.43-.2l-1.19-3.56c-.08-.25-.28-.44-.54-.51l-3.6-1.05c-.64-.18-.79-1.02-.26-1.42l3.02-2.22c.21-.16.34-.41.33-.68l-.13-3.75c-.02-.66.73-1.06,1.28-.68l3.05,2.19c.21.15.49.19.74.1l3.53-1.28c.62-.23,1.24.37,1.04,1l-1.14,3.58c-.08.25-.03.52.14.73l2.3,2.96Z"/>
        <path class="cls-5" d="m238.65,215.93s10.26,3.16,7.77,15.78l-14.64,4.77c-2.28,1.04-4.27.9-5.77.13-1.46-.75-2.44-2.09-2.74-3.52-.33-1.56.14-3.23,1.67-4.35l13.71-12.81Z"/>
        <path class="cls-2" d="m220.6,180.2c7.62,7,17.48,20.21,9.45,31.91-4.74,6.91-10.54,5.82-10.54,5.82h-.11c.2-2.55.14-5.27-.24-8.19-1.89-14.52-3.67-29.18-12.92-40.75.4.26,6.99,4.42,14.36,11.21Z"/>
        <path class="cls-6" d="m224.8,149.19c.64.17.8,1.01.27,1.41l-3,2.26c-.21.16-.33.41-.32.68l.16,3.74c.03.67-.71,1.08-1.26.7l-3.07-2.16c-.22-.15-.5-.18-.74-.09l-3.52,1.31c-.62.23-1.24-.35-1.05-.99l1.1-3.59c.08-.25.02-.52-.14-.73l-2.33-2.94c-.42-.52-.05-1.29.61-1.3l3.75-.07c.27,0,.51-.14.66-.36l2.07-3.12c.37-.56,1.22-.45,1.43.18l1.22,3.55c.09.25.29.44.55.51l3.61,1.01Z"/>
        <path class="cls-1" d="m223.27,233.09c.3,1.43,1.28,2.77,2.74,3.52-2.81,1.99-5.51,4.83-7.3,7.71h0c-1.45.53-3.05,2.03-4.09,3.86l-.62-.26c1.27-2.5.87-4.11.37-4.98,3.4-4.87,8.9-9.85,8.9-9.85Z"/>
        <path class="cls-2" d="m214.85,255.35h0c-1.92-2.08-1.52-4.88-.23-7.17,1.04-1.83,2.64-3.33,4.09-3.85.33-.13.65-.2.95-.21,0,0,2.21-.81,3.06,1.7,1.25,3.7.71,11.56-4.81,15.02-1.8,1.13-3.65,2.11-5.5,3,.98-2.69,1.81-5.52,2.44-8.49Z"/>
        <path class="cls-2" d="m161.31,296.58c-6.8,1.19-11.68-.97-12.15-1.18l-.05.08c-.97,4.89-5.72,11.5-20.42,8.03-14.7-3.48-11.93-15.65-11.93-15.65,0,0,.17-7.14,5.6-10.04h0c.04-3.2.14-6.06.14-6.06l-.04-.05c1.5-1.1,2.53-1.84,2.53-1.84l.02-.02c.34-.32,5.89-5.67,6.66-16.21.27-3.61-.15-5.94-.15-5.94l-4.15-.41s-1.85-1.25-4.31-2.43c-1.69-.81-6.57-1.72-11.14-5.85-4.34-3.93-8.4-10.76-9.21-23.19l-1.39-.04c5.96-1.21,11.13-4.9,13.37-9.65,3.62-7.65,5-15.4,4.24-22.23-.76-6.84-4.64-14.98-4.64-14.98,0,0-3.05.24-7.62,1.98,5.18-6.81,14.3-11.15,29.28-16.91,6.2-2.39,15.73-4.42,28.92-5.21,9.27-.56,18.46-10.62,18.46-10.62.93,4.47-.26,8-2.6,11.01l8.37-3.56c.85.88-4.93,7.43-4.93,7.43,0,0,4.16-1.08,17.48,11.07,1.7,1.55,3.21,3.18,4.56,4.87,0,0,.01,0,.02.01,9.25,11.57,11.03,26.23,12.92,40.75.38,2.92.44,5.64.24,8.18-1.19,14.72-11.34,23.38-20.69,28.35-3.31,1.76-6.53,3.05-9.21,3.99,0,0,1.76,12.07,2.42,17.97.11.98.23,2.08.34,3.53.02.23.04.47.05.72.17,2.45.34,5.84.47,11.03.03,1.35.04,2.85,0,4.44-.03,1.79-.12,3.71-.27,5.69h-.01c-.66,8.7-2.52,18.51-6.65,23.87-5.91,7.68-18.87,3.62-23.49,1.4-4.61-2.21-7.53-5.64-6.59-7.52,2.89-5.73,5.39-14.28,5.54-14.81Zm39.62-93.44c4.76,1.31,5.38-3.67,4.65-5.86-.67-2-2.71-3.65-4.86-4.45-.55-.21-1.22-.38-1.83-.51-2.15-.47-4.18,1.38-3.79,3.54.01.02.01.05.02.08.6,2.99,1.06,5.9,5.81,7.2Zm-25.18,19.89c3.93.45,10.22-3.56,8.5-6.91-.97-1.9-13-1.72-14.1.53-1.55,3.16,1.23,5.89,5.6,6.38Zm2.79-16.53c2.52-.33,4.03-1.5,2.33-2.95-1.7-1.46-4.8-1.01-6.01.66-1.3,1.8,1.17,2.62,3.68,2.29Zm-30.95-1.09c2.95-2.06,3.31-11.37-.28-11.39-3.35-.02-4.41.58-6.13,2.2-1.42,1.32-4.2,6.14-2.19,8.83,2,2.69,5.66,2.41,8.6.36Z"/>
        <path class="cls-1" d="m206.98,266.3c2.17-4.69,3.95-9.83,4.7-15.07,1.08-1.24,1.82-2.34,2.32-3.31l.62.26c-1.29,2.29-1.69,5.09.23,7.16h0c-.63,2.98-1.46,5.81-2.44,8.5h-.01c-6.52,17.94-19.43,29.39-19.89,29.8.15-1.98.24-3.9.27-5.69h.03s8.46-9.29,14.17-21.65Z"/>
        <path class="cls-2" d="m214.37,242.94c.5.87.9,2.48-.37,4.98-.5.97-1.24,2.07-2.32,3.31-.75,5.24-2.53,10.38-4.7,15.07-1.64.71-3.17,1.39-4.54,2.07-4.09,2.03-7.41,3.1-9.88,3.36,3.95-12.04,2.66-23.1,2.66-23.1,0,0,1.46-.96,3.59-2.18,4.43-2.51,11.77-6.1,14.89-4.32,0,0,.36.26.67.81Z"/>
        <path class="cls-13" d="m205.58,197.28c.73,2.19.11,7.17-4.65,5.86-4.75-1.3-5.21-4.21-5.81-7.2,0-.03,0-.06-.02-.08-.39-2.16,1.64-4.01,3.79-3.54.61.13,1.28.3,1.83.51,2.15.8,4.19,2.45,4.86,4.45Z"/>
        <path class="cls-1" d="m198.71,246.27l.1.18c-2.13,1.22-3.59,2.18-3.59,2.18,0,0,1.29,11.06-2.66,23.1l-.3.03c-.11-1.45-.23-2.55-.34-3.53-.66-5.9-2.42-17.97-2.42-17.97,2.68-.94,5.9-2.23,9.21-3.99Z"/>
        <path class="cls-11" d="m184.25,216.12c1.72,3.35-4.57,7.36-8.5,6.91-4.37-.49-7.15-3.22-5.6-6.38,1.1-2.25,13.13-2.43,14.1-.53Z"/>
        <path class="cls-13" d="m180.87,203.55c1.7,1.45.19,2.62-2.33,2.95-2.51.33-4.98-.49-3.68-2.29,1.21-1.67,4.31-2.12,6.01-.66Z"/>
        <path class="cls-13" d="m147.31,194.02c3.59.02,3.23,9.33.28,11.39-2.94,2.05-6.6,2.33-8.6-.36-2.01-2.69.77-7.51,2.19-8.83,1.72-1.62,2.78-2.22,6.13-2.2Z"/>
        <path class="cls-1" d="m131.53,247.7s.42,2.33.15,5.94c-.77,10.54-6.32,15.89-6.66,16.21,1.93-1.8,1.43-10.29,1.33-16.86-.04-2.62.5-4.4.82-5.21.12-.32.21-.49.21-.49l4.15.41Z"/>
        <path class="cls-1" d="m127.38,247.29s-.09.17-.21.49h-.01s-10.98-.32-23.8,7.03c-.13-.45-2.18-7.49-.38-10.17,1.86-2.77,8.95-5.63,8.95-5.63,4.57,4.13,9.45,5.04,11.14,5.85,2.46,1.18,4.31,2.43,4.31,2.43Z"/>
        <path class="cls-2" d="m103.36,254.81c12.82-7.35,23.8-7.03,23.8-7.03h.01c-.32.81-.86,2.59-.82,5.21.1,6.57.6,15.06-1.33,16.86l-.02.02s-1.03.74-2.53,1.84c-1.89,1.39-4.53,3.36-6.78,5.17-7.14,5.75-14.23,3.04-20.39-2.96-6.17-5.99-1.74-12.64,4.28-16.74,1.27-.87,2.53-1.65,3.78-2.37Z"/>
        <path class="cls-8" d="m114.3,168.92s-3.05.24-7.62,1.98c-5.68,2.16-13.71,6.64-21.19,15.87-8.08,9.97-7.21,22.13,2.28,27.15,4.38,2.32,9.18,2.76,13.56,1.86,5.96-1.21,11.13-4.9,13.37-9.65,3.62-7.65,5-15.4,4.24-22.23-.76-6.84-4.64-14.98-4.64-14.98"/>
        <path class="cls-8" d="m206.22,168.98c-1.35-1.69-2.86-3.32-4.56-4.87-13.32-12.15-17.48-11.07-17.48-11.07,0,0,5.78-6.55,4.93-7.43l-8.37,3.56c2.34-3.01,3.53-6.54,2.6-11.01,0,0-9.19,10.06-18.46,10.62-13.19.79-22.72,2.82-28.92,5.21-14.98,5.76-24.1,10.1-29.28,16.91h-.01"/>
        <path class="cls-8" d="m127.38,247.29s-1.85-1.25-4.31-2.43c-1.69-.81-6.57-1.72-11.14-5.85-4.34-3.93-8.4-10.76-9.21-23.19"/>
        <path class="cls-8" d="m146.85,181.4s-8.88,1.48-12.07,7.67"/>
        <path class="cls-8" d="m197.68,180.62s6.8.63,9.27,5.97"/>
        <path class="cls-8" d="m170.15,216.65c1.1-2.25,13.13-2.43,14.1-.53,1.72,3.35-4.57,7.36-8.5,6.91-4.37-.49-7.15-3.22-5.6-6.38Z"/>
        <path class="cls-8" d="m206.22,168.98s.01,0,.02.01c.4.26,6.99,4.42,14.36,11.21,7.62,7,17.48,20.21,9.45,31.91-4.74,6.91-10.54,5.82-10.54,5.82"/>
        <path class="cls-8" d="m125,269.87l.02-.02c.34-.32,5.89-5.67,6.66-16.21.27-3.61-.15-5.94-.15-5.94l-4.15-.41s-.09.17-.21.49c-.32.81-.86,2.59-.82,5.21.1,6.57.6,15.06-1.33,16.86"/>
        <path class="cls-8" d="m127.16,247.78s-10.98-.32-23.8,7.03c-1.25.72-2.51,1.5-3.78,2.37-6.02,4.1-10.45,10.75-4.28,16.74,6.16,6,13.25,8.71,20.39,2.96,2.25-1.81,4.89-3.78,6.78-5.17,1.5-1.1,2.53-1.84,2.53-1.84"/>
        <path class="cls-8" d="m149.11,295.48c-.97,4.89-5.72,11.5-20.42,8.03-14.7-3.48-11.93-15.65-11.93-15.65,0,0,.17-7.14,5.6-10.04"/>
        <path class="cls-7" d="m207.13,266.23c-.05.02-.1.04-.15.07-1.64.71-3.17,1.39-4.54,2.07-4.09,2.03-7.41,3.1-9.88,3.36l-.3.03"/>
        <path class="cls-8" d="m219.66,244.12s2.21-.81,3.06,1.7c1.25,3.7.71,11.56-4.81,15.02-1.8,1.13-3.65,2.11-5.5,3"/>
        <path class="cls-8" d="m192.31,272.48c.09-.25.17-.5.25-.75,3.95-12.04,2.66-23.1,2.66-23.1,0,0,1.46-.96,3.59-2.18,4.43-2.51,11.77-6.1,14.89-4.32,0,0,.36.26.67.81.5.87.9,2.48-.37,4.98-.5.97-1.24,2.07-2.32,3.31"/>
        <path class="cls-8" d="m226.01,236.61c1.5.77,3.49.91,5.77-.13l14.64-4.77c2.49-12.62-7.77-15.78-7.77-15.78l-13.71,12.81c-1.53,1.12-2,2.79-1.67,4.35.3,1.43,1.28,2.77,2.74,3.52Z"/>
        <path class="cls-8" d="m161.31,296.57s.01-.02.01-.02"/>
        <path class="cls-8" d="m192.5,293.65c-.66,8.69-2.52,18.5-6.65,23.86-5.91,7.68-18.87,3.62-23.49,1.4-4.61-2.21-7.53-5.64-6.59-7.52,2.89-5.73,5.39-14.28,5.54-14.81"/>
        <path class="cls-8" d="m189.5,250.26s1.76,12.07,2.42,17.97c.11.98.23,2.08.34,3.53.02.23.04.47.05.72.17,2.45.34,5.84.47,11.03.03,1.35.04,2.85,0,4.44-.03,1.79-.12,3.71-.27,5.69"/>
        <path class="cls-8" d="m111.93,239.01s-7.09,2.86-8.95,5.63c-1.8,2.68.25,9.72.38,10.17,0,.01,0,.02,0,.02"/>
        <path class="cls-8" d="m149.12,295.38s.01,0,.04.02c.47.21,5.35,2.37,12.15,1.18h0c.99-.17,2.01-.41,3.07-.74"/>
        <path class="cls-8" d="m265.65,132.74c-10.95-17.54,1.09-35.55,11.73-40.51,9.11-4.25,19.64-4.83,25.22-3.02,5.59,1.81,17.94,6.85,20.79,19.48,3.13,13.92.86,23.15-7.57,29.33-1.33.97-2.81,1.87-4.45,2.7-.74.38-1.52.75-2.31,1.12-8.65,4.03-20.06,7.32-30.37,2.74-4.18-1.85-8.18-4.99-11.74-9.9-.47-.64-.9-1.29-1.3-1.94Z"/>
        <path class="cls-8" d="m266.11,119.77s.12,14.42,8.53,20.6c0,0,5.54,4.33,16.94,3.92,9.36-.34,16.15-3.88,15.94-5-.86-4.42-3.13-15.5-4.62-16.83-1.88-1.68-36.61-4.11-36.7-3.4l-.09.71Z"/>
        <path class="cls-8" d="m271.89,122.3c1.5,1.88,2.43,2.63,3.94,3.14"/>
        <polyline class="cls-8" points="284.87 138.02 285.58 135.25 288.79 138.02"/>
        <path class="cls-8" d="m278.63,144.72s6.27,6.34,15.35,6.13c9.08-.22,14.41-8.62,15.08-9.01"/>
        <path class="cls-8" d="m265.65,132.74s-6.61-4.66-9.29,2.19c-1.29,3.28,1.54,9.87,14.11,13.99,5.34,1.75,9.36,19.51,13.31,24.77,5.58,7.42,14.74,3.55,16.41.84,1.68-2.72,1.1-6.5,1.1-6.5"/>
        <path class="cls-8" d="m306.51,166.87s6.81,7.45,14.75,5.46c7.94-1.98,7.14-8.02,6.6-10.44-.16-.73-.93-2.04-1.91-3.5-2.26-3.36-5.68-7.54-5.68-7.54"/>
        <path class="cls-8" d="m315.82,138.02s10.15-.58,12.71.96c4.86,2.96,4.76,9.51-.35,11.87-2.41,1.11-5.37.6-7.84-.24-2.78-.96-4.93-2.35-4.93-2.35"/>
        <path class="cls-8" d="m297.52,168.2s1.67.04,3.77-.17c1.67-.18,3.62-.51,5.22-1.16"/>
        <path class="cls-8" d="m325.95,158.39s1.13-3.11,3.01-3.2c1.88-.08,5.5-.43,5.8-1.11"/>
        <path class="cls-8" d="m334.76,154.07l-1.83-1.78c-.48-.47-.22-1.28.44-1.37l3.72-.54c.26-.04.48-.2.6-.44l1.66-3.36c.3-.6,1.15-.6,1.44,0l1.66,3.36c.12.24.35.4.61.44l3.71.54c.66.09.92.9.45,1.37l-2.69,2.62c-.19.18-.27.45-.23.71l.63,3.7c.12.65-.57,1.16-1.16.85l-3.32-1.75c-.24-.12-.52-.12-.75,0l-3.32,1.75c-.59.31-1.28-.2-1.17-.85l.64-3.7c.04-.26-.05-.53-.24-.71l-.85-.83h0Z"/>
        <path class="cls-8" d="m219.42,144.12l1.22,3.55c.09.25.29.44.55.51l3.61,1.01c.64.17.8,1.01.27,1.41l-3,2.26c-.21.16-.33.41-.32.68l.16,3.74c.03.67-.71,1.08-1.26.7l-3.07-2.16c-.22-.15-.5-.18-.74-.09l-3.52,1.31c-.62.23-1.24-.35-1.05-.99l1.1-3.59c.08-.25.02-.52-.14-.73l-2.33-2.94c-.42-.52-.05-1.29.61-1.3l3.75-.07c.27,0,.51-.14.66-.36l2.07-3.12c.37-.56,1.22-.45,1.43.18Z"/>
        <path class="cls-8" d="m245.34,166.07l3.05,2.18c.22.16.5.19.74.1l3.53-1.27c.63-.23,1.24.36,1.04,1l-1.13,3.57c-.08.26-.03.53.13.74l2.31,2.96c.4.53.03,1.29-.63,1.3l-3.75.03c-.27,0-.52.13-.66.35l-2.11,3.11c-.37.55-1.22.43-1.43-.2l-1.18-3.56c-.09-.25-.29-.44-.54-.52l-3.61-1.04c-.64-.18-.79-1.02-.25-1.42l3.02-2.23c.21-.15.33-.41.32-.67l-.12-3.75c-.02-.66.73-1.07,1.27-.68Z"/>
        <path class="cls-8" d="m240.03,133.68l3.05,2.19c.21.15.49.19.74.1l3.53-1.28c.62-.23,1.24.37,1.04,1l-1.14,3.58c-.08.25-.03.52.14.73l2.3,2.96c.41.53.04,1.3-.63,1.3l-3.75.03c-.27,0-.51.13-.66.35l-2.1,3.11c-.38.55-1.22.43-1.43-.2l-1.19-3.56c-.08-.25-.28-.44-.54-.51l-3.6-1.05c-.64-.18-.79-1.02-.26-1.42l3.02-2.22c.21-.16.34-.41.33-.68l-.13-3.75c-.02-.66.73-1.06,1.28-.68Z"/>
        <path class="cls-8" d="m122.51,271.76s-.1,2.86-.14,6.06c-.03,2.69-.02,5.62.14,7.32"/>
        <path class="cls-8" d="m218.71,244.32c1.79-2.88,4.49-5.72,7.3-7.71"/>
        <path class="cls-8" d="m223.27,233.09s-5.5,4.98-8.9,9.85"/>
        <path class="cls-8" d="m192.5,293.65h.01c.46-.42,13.37-11.87,19.89-29.81h.01c.98-2.69,1.81-5.52,2.44-8.49"/>
        <path class="cls-8" d="m192.81,287.95s8.46-9.29,14.17-21.65c2.17-4.69,3.95-9.83,4.7-15.07"/>
        <path class="cls-8" d="m219.66,244.12c-.3.01-.62.08-.95.21-1.45.52-3.05,2.02-4.09,3.85-1.29,2.29-1.69,5.09.23,7.16h0c.23.25.49.49.78.71"/>
        <path class="cls-10" d="m210.72,175.84s20.38,15.84,19.07,27.8c-1.12,10.23-10.16,11.17-10.16,11.17,0,0-1.3-22.22-8.91-38.97Z"/>
        <path class="cls-8" d="m189.5,250.26c2.68-.94,5.9-2.23,9.21-3.99,9.35-4.97,19.5-13.63,20.69-28.35.2-2.54.14-5.26-.24-8.18-1.89-14.52-3.67-29.18-12.92-40.75"/>
      </g>
    </g>
  </g>
</svg>