<svg xmlns="http://www.w3.org/2000/svg" xmlns:xlink="http://www.w3.org/1999/xlink" width="310.823" height="278.675" viewBox="0 0 310.823 278.675">
  <defs>
    <radialGradient id="radial-gradient" cx="0.5" cy="0.5" r="0.395" gradientUnits="objectBoundingBox">
      <stop offset="0" stop-color="#aad7ff"/>
      <stop offset="1" stop-color="#d2d7ff"/>
    </radialGradient>
    <radialGradient id="radial-gradient-2" cx="0.5" cy="0.5" r="0.457" xlink:href="#radial-gradient"/>
  </defs>
  <g id="그룹_21187" data-name="그룹 21187" transform="translate(1.509 1.52)">
    <g id="캐릭터-포즈1" transform="translate(0 0)">
      <path id="패스_8765" data-name="패스 8765" d="M360.266,166.217s9.344,11.588,10.042,14.731,1.737,10.957-8.554,13.525-19.1-7.083-19.1-7.083C338,189.3,331,189.119,331,189.119l4.9-.224s.74,4.9-1.422,8.421-14.032,8.537-21.256-1.081c-5.129-6.825-10.325-29.819-17.258-32.1-10.774-3.533-16.028-8.471-17.856-12.636l2.71-9.56c3.907-2.294,8.912,1.23,8.912,1.23l65.008,6.833s13.151-.748,16.46,1.255c6.31,3.824,6.177,12.32-.449,15.371s-16.543-3.358-16.543-3.358" transform="translate(-87.916 -85.517)" fill="#d2d7ff" stroke="#577aca" stroke-linecap="round" stroke-linejoin="round" stroke-width="3"/>
      <path id="패스_8766" data-name="패스 8766" d="M233.252,287.255s3.616-2.369,5.711.482c2.61,3.558,5.387,13.135-7.357,24.033a43.184,43.184,0,0,1-6.551,4.314v.033c-1.9,1.006-3.7,1.962-5.3,2.918-4.813,2.893-8.687,4.364-11.522,4.639l-12,4.023-1.563-22.287,1.022-.291a72.208,72.208,0,0,0,28.921-16.177c2.585-2.361,5.154-4.09,6.891-3.733,0,0,4.09,2-.333,6.451" transform="translate(-73.843 -109.809)" fill="#fff" stroke="#577aca" stroke-linecap="round" stroke-linejoin="round" stroke-width="3"/>
      <path id="패스_8767" data-name="패스 8767" d="M312.29,161.493s8.122,8.222,19.885,7.939,18.679-11.173,19.544-11.671l-39.429,3.733Z" transform="translate(-93.683 -88.317)" fill="#aad7ff" stroke="#577aca" stroke-linecap="round" stroke-linejoin="round" stroke-width="3"/>
      <path id="패스_8768" data-name="패스 8768" d="M386.04,182.426s1.463-4.032,3.907-4.14,7.174-.565,7.507-1.446" transform="translate(-106.125 -91.535)" fill="none" stroke="#577aca" stroke-linecap="round" stroke-linejoin="round" stroke-width="3"/>
      <path id="패스_8769" data-name="패스 8769" d="M407.045,165.032l2.153,4.356a1.051,1.051,0,0,0,.781.574l4.813.7a1.04,1.04,0,0,1,.574,1.779l-3.483,3.392a1.031,1.031,0,0,0-.3.923l.823,4.788a1.043,1.043,0,0,1-1.513,1.1l-4.306-2.261a1.057,1.057,0,0,0-.973,0l-4.306,2.261a1.044,1.044,0,0,1-1.513-1.1l.823-4.788a1.053,1.053,0,0,0-.3-.923l-3.483-3.392a1.045,1.045,0,0,1,.574-1.779l4.813-.7a1.036,1.036,0,0,0,.781-.574l2.153-4.356a1.044,1.044,0,0,1,1.87,0Z" transform="translate(-107.893 -89.446)" fill="#aad7ff" stroke="#577aca" stroke-linecap="round" stroke-linejoin="round" stroke-width="3"/>
      <path id="패스_8770" data-name="패스 8770" d="M278.984,138.645l-4.414-11.6-11.829,5.586,7.39,19.029,11.372-6.4-2.519-6.609" transform="translate(-85.324 -83.134)" fill="#fff" stroke="#577aca" stroke-linecap="round" stroke-linejoin="round" stroke-width="3"/>
      <path id="패스_8771" data-name="패스 8771" d="M306.12,79.391c11.813-5.5,25.446-6.26,32.687-3.915s23.235,8.87,26.926,25.238c4.705,20.882,0,33.626-15.57,41.5-15.745,7.964-40.518,15.662-57.543-7.831s-.781-48.349,13.509-55Z" transform="translate(-89.135 -74.224)" fill="#d2d7ff" stroke="#577aca" stroke-linecap="round" stroke-linejoin="round" stroke-width="3"/>
      <path id="패스_8772" data-name="패스 8772" d="M292.78,123.151s.15,18.688,11.048,26.693c0,0,22.088,7.864,40.293,1.962a3.01,3.01,0,0,0,2.3-3.358c-1.106-5.728-4.048-20.084-5.985-21.813-2.436-2.17-47.434-5.32-47.542-4.4l-.116.923Z" transform="translate(-90.392 -82.296)" fill="#fff" stroke="#577aca" stroke-linecap="round" stroke-linejoin="round" stroke-width="3"/>
      <path id="패스_8773" data-name="패스 8773" d="M301.79,127.31c1.937,2.427,3.142,3.408,5.1,4.065" transform="translate(-91.912 -83.18)" fill="none" stroke="#577aca" stroke-linecap="round" stroke-linejoin="round" stroke-width="3"/>
      <path id="패스_8774" data-name="패스 8774" d="M322.49,151.868l1.862-2.278,3.217,2.278Z" transform="translate(-95.404 -86.938)" fill="none" stroke="#577aca" stroke-linecap="round" stroke-linejoin="round" stroke-width="3"/>
      <path id="패스_8775" data-name="패스 8775" d="M233.79,198.368a136.268,136.268,0,0,1,12.2,9.951c4.988,4.589,20.517,20.65,10.873,34.7-3.641,5.3-11.929,7.374-16.011,8.089L233.79,198.36Z" transform="translate(-80.441 -95.166)" fill="url(#radial-gradient)"/>
      <path id="패스_8776" data-name="패스 8776" d="M236.4,202.922c2.22,1.762,4.7,3.841,7.241,6.185,4.614,4.248,19.02,19.053,10.508,31.456-2.4,3.5-7.665,5.512-11.838,6.526L236.4,202.922M229.92,192.09l8.138,60.8s14.556-1.272,20.209-9.5c9.543-13.908-2.178-29.619-11.239-37.949a129.761,129.761,0,0,0-17.1-13.342h0Z" transform="translate(-79.788 -94.108)" fill="#fff"/>
      <path id="패스_8777" data-name="패스 8777" d="M229.918,192.08a129.76,129.76,0,0,1,17.1,13.342c9.061,8.33,20.791,24.041,11.239,37.949-5.653,8.23-12.544,6.933-12.544,6.933l-15.8-58.224Z" transform="translate(-79.786 -94.106)" fill="none" stroke="#577aca" stroke-linecap="round" stroke-linejoin="round" stroke-width="3"/>
      <path id="패스_8778" data-name="패스 8778" d="M202.158,272.714a37.862,37.862,0,0,0,17.191-35.339c-.05-.482-.108-.973-.166-1.463-2.585-19.793-4.98-39.811-20.816-54.259a58.016,58.016,0,0,0-13.517-8.945,82.65,82.65,0,0,0-57.244-5.42,67.488,67.488,0,0,0-7.382,2.328c-17.823,6.858-24.39,9.726-30.55,17.831,0,0-15.18,32.462-14.648,56.479.707,31.614,23.942,35.156,28.14,36.261a41.434,41.434,0,0,0,8.587,1.089l2.668-.108s-14.939-.441-31.2,10.641c-6.8,4.639-11.813,12.162-4.838,18.937s14.988,9.851,23.06,3.342c4.564-3.683,10.533-7.922,10.533-7.922l-2.818,2.136s-.391,10.915,0,15.13l-.175-8.28c-6.143,3.284-6.326,11.356-6.326,11.356s-3.142,13.775,13.492,17.7,22-3.55,23.1-9.078l.017-.108s7.365,3.583,17.258.515l-3.458.8s-2.91,10.109-6.276,16.792c-1.064,2.12,2.228,5.994,7.457,8.5s19.876,7.1,26.56-1.579,8.105-27.632,7.839-38.464c-.258-10.233-.632-14.282-.964-17.283-.748-6.667-2.743-20.317-2.743-20.317l17.233-11.256Z" transform="translate(-53.656 -89.457)" fill="#fff" stroke="#577aca" stroke-linecap="round" stroke-linejoin="round" stroke-width="3"/>
      <path id="패스_8779" data-name="패스 8779" d="M142.065,209.86s-10.558,1.762-14.365,9.119" transform="translate(-62.544 -97.106)" fill="none" stroke="#577aca" stroke-linecap="round" stroke-linejoin="round" stroke-width="3"/>
      <path id="패스_8780" data-name="패스 8780" d="M217.7,208.74s8.089.756,11.023,7.1" transform="translate(-77.726 -96.917)" fill="none" stroke="#577aca" stroke-linecap="round" stroke-linejoin="round" stroke-width="3"/>
      <g id="그룹_21177" data-name="그룹 21177">
        <ellipse id="타원_419" data-name="타원 419" cx="2.353" cy="3.699" rx="2.353" ry="3.699" transform="matrix(0.992, -0.125, 0.125, 0.992, 213.272, 52.821)" fill="#577aca" stroke="#577aca" stroke-linecap="round" stroke-linejoin="round" stroke-width="3"/>
        <ellipse id="타원_420" data-name="타원 420" cx="2.361" cy="3.691" rx="2.361" ry="3.691" transform="translate(237.625 55.469) rotate(-13.15)" fill="#577aca" stroke="#577aca" stroke-linecap="round" stroke-linejoin="round" stroke-width="3"/>
        <path id="패스_8781" data-name="패스 8781" d="M143.451,227.91c4.273.033,3.849,11.1.341,13.55s-7.856,2.777-10.242-.424.923-8.928,2.6-10.508c2.045-1.92,3.3-2.644,7.291-2.619Z" transform="translate(-63.389 -100.151)" fill="#577aca"/>
        <path id="패스_8782" data-name="패스 8782" d="M218.5,225.462A3.73,3.73,0,0,0,214,229.669c0,.033.017.067.017.108.715,3.558,1.264,7.008,6.916,8.562s6.4-4.364,5.528-6.966c-.8-2.386-3.225-4.348-5.786-5.3a17.029,17.029,0,0,0-2.178-.607Z" transform="translate(-77.092 -99.723)" fill="#577aca"/>
        <path id="패스_8783" data-name="패스 8783" d="M184.973,242.119a5.291,5.291,0,0,1,7.141-.79c2.02,1.729.216,3.126-2.768,3.516S183.418,244.264,184.973,242.119Z" transform="translate(-72.133 -102.239)" fill="#577aca"/>
      </g>
      <path id="패스_8784" data-name="패스 8784" d="M178.206,259.849c1.305-2.668,15.62-2.885,16.776-.632,2.037,3.982-5.445,8.754-10.109,8.222-5.2-.59-8.5-3.832-6.667-7.6Z" transform="translate(-70.977 -105.172)" fill="none" stroke="#577aca" stroke-linecap="round" stroke-linejoin="round" stroke-width="3"/>
      <path id="패스_8785" data-name="패스 8785" d="M70.166,246.348a21.074,21.074,0,0,1-9.926-2.436,14.262,14.262,0,0,1-7.6-9.984c-1.2-5.861.865-12.619,5.653-18.53,11.73-14.481,24.74-18.7,29.786-19.835a1.545,1.545,0,0,1,.274-.033,1.305,1.305,0,0,1,1.189.815c1.289,3.126,3.541,9.144,4.115,14.34.881,7.9-.79,16.576-4.813,25.105-2.935,6.218-10.616,10.558-18.679,10.558h0Z" transform="translate(-49.825 -94.688)" fill="url(#radial-gradient-2)"/>
      <path id="패스_8786" data-name="패스 8786" d="M88.135,197.48h0m-1.006.241a54.13,54.13,0,0,1,3.558,12.719c.823,7.44-.756,15.653-4.589,23.767-2.494,5.287-9.41,9.128-16.427,9.128a18.518,18.518,0,0,1-8.762-2.153,11.839,11.839,0,0,1-6.318-8.28c-1.047-5.129.831-11.131,5.154-16.468,10.524-12.985,22.03-17.341,27.391-18.729m.732-5.2a3.96,3.96,0,0,0-.823.091c-5.877,1.33-19.137,5.836-31.174,20.7-9.61,11.863-8.571,26.319,2.71,32.288a23.658,23.658,0,0,0,11.09,2.727c9.1,0,17.657-5.029,20.941-11.987,4.3-9.1,5.936-18.314,5.038-26.444-.607-5.428-2.86-11.555-4.29-15.022a3.8,3.8,0,0,0-3.491-2.353Z" transform="translate(-49.323 -94.177)" fill="#fff"/>
      <path id="패스_8787" data-name="패스 8787" d="M91.351,194.882a3.77,3.77,0,0,0-4.314-2.261c-5.877,1.33-19.137,5.836-31.174,20.7-9.61,11.863-8.571,26.319,2.718,32.288,12.328,6.517,27.408.532,32.03-9.261,4.3-9.1,5.936-18.314,5.038-26.444-.607-5.428-2.86-11.555-4.29-15.022Z" transform="translate(-49.321 -94.182)" fill="none" stroke="#577aca" stroke-linecap="round" stroke-linejoin="round" stroke-width="3"/>
    </g>
  </g>
</svg>
