<svg xmlns="http://www.w3.org/2000/svg" xmlns:xlink="http://www.w3.org/1999/xlink" width="190.674" height="271.254" viewBox="0 0 190.674 271.254">
  <defs>
    <radialGradient id="radial-gradient" cx="0.5" cy="0.5" r="0.376" gradientTransform="translate(-0.873) scale(2.746 1)" gradientUnits="objectBoundingBox">
      <stop offset="0" stop-color="#aad7ff"/>
      <stop offset="1" stop-color="#d2d7ff"/>
    </radialGradient>
    <radialGradient id="radial-gradient-2" cx="0.5" cy="0.5" r="0.425" gradientTransform="translate(-0.251) scale(1.503 1)" xlink:href="#radial-gradient"/>
  </defs>
  <g id="그룹_21194" data-name="그룹 21194" transform="translate(1.097 1)">
    <g id="캐릭터_포즈2" transform="translate(0 0)">
      <path id="패스_8949" data-name="패스 8949" d="M208.7,197.9c9.727,9.412,11.227,17.422,11.451,19.8.8,8.348-7.592,11.05-11.474,11.851L208.7,197.9Z" transform="translate(-100.777 -33.333)" fill="url(#radial-gradient)"/>
      <path id="패스_8950" data-name="패스 8950" d="M209.132,199.313c5.307,6.08,7.661,11.811,8.027,15.659.223,2.313-.057,5.68-4.992,8.222a19.128,19.128,0,0,1-3.052,1.231l.017-25.117M205.7,191.12l-.023,37.547s16.088-1.563,14.9-14.027c-.532-5.554-4.414-14.571-14.88-23.52h0Z" transform="translate(-99.494 -30.435)" fill="#fff"/>
      <path id="패스_8951" data-name="패스 8951" d="M205.676,228.677s16.088-1.563,14.9-14.027c-.532-5.554-4.414-14.571-14.88-23.52l-.023,37.547Z" transform="translate(-99.49 -30.439)" fill="none" stroke="#577aca" stroke-linecap="round" stroke-linejoin="round" stroke-width="2"/>
      <path id="패스_8952" data-name="패스 8952" d="M105.748,280.232s8.611,1.592,12.836,1.6,9.006-.492,10.042-8.834c1.437-11.525-11.605-9.584-11.605-9.584,5.222-.069,7.437-3.092,8.285-6.052.538-1.884,2.6-7.145-6.023-17.766h.006s16.569-3.023,22.369-15.659c4.781-10.4,4.649-40.57-10.506-56.16-13.334-15.2-37.255-15.109-53.457-11.067-10.334,2.576-19.042,8.319-22.564,11.64-9.561,9.012-10.5,16.374-10.5,16.374l5.336,39.264a24.7,24.7,0,0,0,7.449,8.588c2.41,1.615,6.47,4.054,15.493,6.252l.887.767s-5.244,6.922-5.393,28.5c0,.59.006,1.179.034,1.763l-.034-.023c2.2,6.458,7.145,11.531,14.353,12.647,9.779,1.511,18.922,3.492,22.815-2.886l.177.635Z" transform="translate(-30.651 -14.739)" fill="#fff" stroke="#577aca" stroke-linecap="round" stroke-linejoin="round" stroke-width="2"/>
      <g id="그룹_21174" data-name="그룹 21174" transform="translate(39.013 0)">
        <path id="패스_8953" data-name="패스 8953" d="M302.437,180.267l-14.611,1.483c-.475-1.214,1.368-7.225,5.7-12.218s11.365-6.412,11.365-6.412l.046,13.838Z" transform="translate(-223.298 -96.895)" fill="#bcbcbc" stroke="#577aca" stroke-linecap="round" stroke-linejoin="round" stroke-width="2"/>
        <path id="패스_8954" data-name="패스 8954" d="M328.9,200.345l-16.088-15.7c-3.16-.435-2.863,2.9-2.863,2.9L325.9,202.429Z" transform="translate(-232.781 -106.078)" fill="#bcbcbc" stroke="#577aca" stroke-linecap="round" stroke-linejoin="round" stroke-width="2"/>
        <ellipse id="타원_622" data-name="타원 622" cx="14.113" cy="6.235" rx="14.113" ry="6.235" transform="translate(43.548 70.168) rotate(-47.31)" fill="none" stroke="#577aca" stroke-linecap="round" stroke-linejoin="round" stroke-width="2"/>
        <ellipse id="타원_623" data-name="타원 623" cx="8.09" cy="3.573" rx="8.09" ry="3.573" transform="translate(54.017 71.635) rotate(-47.31)" fill="none" stroke="#577aca" stroke-linecap="round" stroke-linejoin="round" stroke-width="2"/>
        <g id="그룹_21173" data-name="그룹 21173" transform="translate(85.536 55.752)">
          <path id="패스_8948" data-name="패스 8948" d="M359.823,227.731a19.58,19.58,0,0,1,3.034,6.556,31.185,31.185,0,0,0,2,5.794c1.46,2.989,4.489,4.334,2.88,7.3-.687,1.265-5.508,6.017-8.319,3.876-2.851-2.17-5.605-6.069-6.1-8.033l1.065-.4c-3.109,1.448-7.815.83-7.815.83l3.183.132c.3,1.924,2.2,8.193.6,9.407C348.1,254.9,342.67,256,340.3,255.121c-3.366-1.254-4.815-10.781-5.559-12.928-2.456-7.111-3.429-17.371-3.429-17.371s-5.634-2.805-5.983-7.294,4.93-5.239,4.93-5.239l29.56,15.441Z" transform="translate(-324.889 -173.665)" fill="#d2d7ff" stroke="#577aca" stroke-linecap="round" stroke-linejoin="round" stroke-width="2"/>
          <path id="패스_8955" data-name="패스 8955" d="M337.723,149.529c9.332-6.51,19.083-6.859,31.592,2.76,11.342,8.72,14.342,25.054,8.416,33.253-5.227,7.231-12.67,12.338-25.054,9.344-13.1-3.166-23.686-13.8-26.165-17.932a13.329,13.329,0,0,1-1.866-8.37l13.077-19.054Z" transform="translate(-324.574 -144.827)" fill="#d2d7ff" stroke="#577aca" stroke-linecap="round" stroke-linejoin="round" stroke-width="2"/>
          <path id="패스_8956" data-name="패스 8956" d="M324.7,172.084c.71-7.265,6.578-13.592,8.29-15.166a45.743,45.743,0,0,1,4.792-3.887l.034.051c2.342,2.2,8.245,8.645,10.449,10.477a2.74,2.74,0,0,1,.521,3.641c-2.491,3.67-7.672,10.18-10.42,13.58a3.039,3.039,0,0,1-4.117.573s-7.626-3.429-9.55-9.275" transform="translate(-324.628 -148.333)" fill="#fff" stroke="#577aca" stroke-linecap="round" stroke-linejoin="round" stroke-width="2"/>
          <line id="선_183" data-name="선 183" y1="0.636" x2="2.639" transform="translate(10.921 11.252)" fill="none" stroke="#577aca" stroke-linecap="round" stroke-linejoin="round" stroke-width="2"/>
          <ellipse id="타원_621" data-name="타원 621" cx="3.149" cy="1.586" rx="3.149" ry="1.586" transform="matrix(0.574, -0.819, 0.819, 0.574, 6.354, 18.748)" fill="#577aca"/>
          <path id="패스_8957" data-name="패스 8957" d="M385.99,185.05s3,2.473-2.41,4.666" transform="translate(-349.798 -162.021)" fill="none" stroke="#577aca" stroke-linecap="round" stroke-linejoin="round" stroke-width="2"/>
          <path id="패스_8958" data-name="패스 8958" d="M396.521,186.66s-3.521,2.37,1.9,3.389" transform="translate(-354.849 -162.709)" fill="none" stroke="#577aca" stroke-linecap="round" stroke-linejoin="round" stroke-width="2"/>
          <path id="패스_8959" data-name="패스 8959" d="M388.82,198.445s.447-2.691,1.981-2.41,3.349,2.594,3.349,2.594" transform="translate(-352.037 -166.708)" fill="none" stroke="#577aca" stroke-linecap="round" stroke-linejoin="round" stroke-width="2"/>
          <path id="패스_8960" data-name="패스 8960" d="M399.619,248.491c-.83,1.695-5.279.721-14.268-2.433s-12.682,5.216-12.682,5.216" transform="translate(-345.133 -187.795)" fill="none" stroke="#577aca" stroke-linecap="round" stroke-linejoin="round" stroke-width="2"/>
          <path id="패스_8961" data-name="패스 8961" d="M422.182,238.42l1.254,2.771a.643.643,0,0,0,.481.372l2.994.538a.65.65,0,0,1,.321,1.122l-2.25,2.05a.646.646,0,0,0-.206.573l.412,3.012a.649.649,0,0,1-.968.653L421.581,248a.651.651,0,0,0-.607-.023l-2.737,1.323a.652.652,0,0,1-.922-.721l.613-2.977a.644.644,0,0,0-.166-.584l-2.107-2.193a.653.653,0,0,1,.4-1.1l3.023-.338a.655.655,0,0,0,.5-.338l1.437-2.679a.652.652,0,0,1,1.168.04Z" transform="translate(-363.431 -184.668)" fill="#aad7ff" stroke="#577aca" stroke-linecap="round" stroke-linejoin="round" stroke-width="2"/>
        </g>
        <ellipse id="타원_624" data-name="타원 624" cx="7.643" cy="6.928" rx="7.643" ry="6.928" transform="translate(29.81 36.837)" fill="#e24b65" stroke="#577aca" stroke-linecap="round" stroke-linejoin="round" stroke-width="2"/>
        <path id="패스_8962" data-name="패스 8962" d="M249.132,62.2c-3.825-4.821-13.472-14.748-36.5-14.748s-32.674,9.928-36.5,14.748a4.535,4.535,0,0,0,.842,6.4l.281.212a4.543,4.543,0,0,0,5.926-.338c3.8-3.676,12.47-11.92,29.457-11.92s25.655,8.239,29.457,11.92a4.543,4.543,0,0,0,5.926.338l.281-.212a4.535,4.535,0,0,0,.842-6.4Z" transform="translate(-175.174 -47.45)" fill="#bcbcbc" stroke="#577aca" stroke-linecap="round" stroke-linejoin="round" stroke-width="2"/>
        <path id="패스_8963" data-name="패스 8963" d="M245.657,88.58c-3.235-3.292-10.048-9.87-23.88-9.87s-20.64,6.578-23.88,9.87a4.554,4.554,0,0,0,6.332,6.544c2.616-2.433,7.781-7.781,17.542-7.781s14.926,5.347,17.542,7.781a4.554,4.554,0,0,0,6.332-6.544Z" transform="translate(-184.325 -60.813)" fill="#bcbcbc" stroke="#577aca" stroke-linecap="round" stroke-linejoin="round" stroke-width="2"/>
      </g>
      <g id="그룹_21185" data-name="그룹 21185" transform="translate(48.675 189.196)">
        <path id="패스_8964" data-name="패스 8964" d="M114.935,242.72c.9.9-.71,7.941-3.5,8.187s-5.536-.95-6.132-3.487,2.777-4.512,4.139-5.13C110.984,241.592,113.5,241.277,114.935,242.72Z" transform="translate(-105.23 -241.253)" fill="#577aca"/>
        <path id="패스_8965" data-name="패스 8965" d="M189.724,240.919c-2.067-.1-1.071,9.063,3.55,9.533s4.512-4.174,3.441-6.023C194.671,240.914,190.314,240.948,189.724,240.919Z" transform="translate(-140.91 -240.918)" fill="#577aca"/>
        <path id="패스_8966" data-name="패스 8966" d="M156.511,257.6a3.64,3.64,0,0,1,4.935-.384c1.357,1.237.08,2.153-1.987,2.359S155.394,259.048,156.511,257.6Z" transform="translate(-127.014 -247.55)" fill="#577aca"/>
      </g>
      <path id="패스_8967" data-name="패스 8967" d="M108.09,230.338s6.092-.3,9.269-4.758" transform="translate(-57.778 -45.166)" fill="none" stroke="#577aca" stroke-linecap="round" stroke-linejoin="round" stroke-width="2"/>
      <path id="패스_8968" data-name="패스 8968" d="M197.2,230.378s-5.668-1.8-7.855-5.038" transform="translate(-92.509 -45.063)" fill="none" stroke="#577aca" stroke-linecap="round" stroke-linejoin="round" stroke-width="2"/>
      <ellipse id="타원_625" data-name="타원 625" cx="2.032" cy="2.032" rx="2.032" ry="2.032" transform="translate(47.043 202.692)" fill="none" stroke="#577aca" stroke-linecap="round" stroke-linejoin="round" stroke-width="2"/>
      <ellipse id="타원_626" data-name="타원 626" cx="2.708" cy="2.708" rx="2.708" ry="2.708" transform="translate(36.726 210.953)" fill="none" stroke="#577aca" stroke-linecap="round" stroke-linejoin="round" stroke-width="2"/>
      <ellipse id="타원_627" data-name="타원 627" cx="2.032" cy="2.032" rx="2.032" ry="2.032" transform="translate(105.247 199.216)" fill="none" stroke="#577aca" stroke-linecap="round" stroke-linejoin="round" stroke-width="2"/>
      <ellipse id="타원_628" data-name="타원 628" cx="2.508" cy="2.508" rx="2.508" ry="2.508" transform="translate(113.205 211.154)" fill="none" stroke="#577aca" stroke-linecap="round" stroke-linejoin="round" stroke-width="2"/>
      <path id="패스_8969" data-name="패스 8969" d="M37.048,244.569c-2.943,0-8.313-.784-11.227-6.04-4.872-8.794-2.055-16.924,1.162-22.191,1.907-3.12,6.533-6.767,13.019-10.266a3.1,3.1,0,0,1,1.471-.372,3.16,3.16,0,0,1,2.983,2.136,110.172,110.172,0,0,1,4.071,15.5c2.2,11.811-2.851,19.065-6.046,20.325a15.7,15.7,0,0,1-5.439.91Z" transform="translate(-21.488 -36.668)" fill="url(#radial-gradient-2)"/>
      <path id="패스_8970" data-name="패스 8970" d="M40.2,206.129a1.438,1.438,0,0,1,1.357.979,108.526,108.526,0,0,1,4.008,15.258c2.153,11.548-2.977,17.623-4.987,18.413a14.006,14.006,0,0,1-4.809.79c-3.132,0-7.363-.893-9.727-5.153-4.471-8.073-1.855-15.584,1.128-20.462,1.752-2.868,6.143-6.3,12.372-9.647a1.346,1.346,0,0,1,.658-.172m0-3.435a4.8,4.8,0,0,0-2.284.578c-4.546,2.45-10.981,6.487-13.672,10.884-4.357,7.134-5.794,15.63-1.2,23.92,2.971,5.365,8.262,6.928,12.727,6.928a17.319,17.319,0,0,0,6.069-1.031c4.065-1.6,9.447-9.682,7.105-22.237A110.625,110.625,0,0,0,44.8,206a4.879,4.879,0,0,0-4.609-3.292h0Z" transform="translate(-20.213 -35.385)" fill="#fff"/>
      <path id="패스_8971" data-name="패스 8971" d="M44.807,205.981a4.862,4.862,0,0,0-6.893-2.714c-4.546,2.45-10.981,6.487-13.672,10.884-4.357,7.134-5.794,15.63-1.2,23.92s14.731,7.5,18.8,5.9,9.447-9.682,7.105-22.237A110.627,110.627,0,0,0,44.8,205.987Z" transform="translate(-20.213 -35.38)" fill="none" stroke="#577aca" stroke-linecap="round" stroke-linejoin="round" stroke-width="2"/>
      <path id="패스_8972" data-name="패스 8972" d="M103.431,311.7s15.962,5.33,18.544,7.792c6.166,5.886.092,14.382-7.615,14S102.95,324,102.95,324" transform="translate(-55.58 -81.979)" fill="none" stroke="#577aca" stroke-linecap="round" stroke-linejoin="round" stroke-width="2"/>
      <path id="패스_8973" data-name="패스 8973" d="M163.892,315.8s-4.414,3.229-5.536,6.057-.4,10.54,7.111,10.443" transform="translate(-79.085 -83.732)" fill="none" stroke="#577aca" stroke-linecap="round" stroke-linejoin="round" stroke-width="2"/>
      <path id="패스_8974" data-name="패스 8974" d="M142.257,362.9c3.429-5.863-1.031-12.281-4.409-13.432a58.506,58.506,0,0,0-7.369-1.094" transform="translate(-67.349 -97.654)" fill="#fff" stroke="#577aca" stroke-linecap="round" stroke-linejoin="round" stroke-width="2"/>
    </g>
  </g>
</svg>
