<svg xmlns="http://www.w3.org/2000/svg" width="30" height="30" viewBox="0 0 30 30">
  <g id="그룹_20719" data-name="그룹 20719" transform="translate(-888 -474)">
    <circle id="타원_397" data-name="타원 397" cx="15" cy="15" r="15" transform="translate(888 474)" fill="#1dafff"/>
    <g id="구성_요소_31_13" data-name="구성 요소 31 – 13" transform="translate(893 479)">
      <rect id="사각형_25171" data-name="사각형 25171" width="20" height="20" fill="none" opacity="0.5"/>
      <g id="레이어_4" transform="translate(-93.25 -99.25)">
        <path id="패스_7842" data-name="패스 7842" d="M111.2,104.85h-2.97v-2.97a.629.629,0,0,0-.629-.629H94.879a.629.629,0,0,0-.629.629v11.742a.629.629,0,0,0,.626.629l2.973.015v2.956a.629.629,0,0,0,.629.629H111.2a.629.629,0,0,0,.629-.629V105.479A.629.629,0,0,0,111.2,104.85Zm-15.691,8.145V102.508h11.462v2.341H98.479a.629.629,0,0,0-.629.629v7.528Zm15.062,3.6H99.108V106.108H110.57Z" fill="#f8f8fa"/>
      </g>
    </g>
  </g>
</svg>
