<svg id="구성_요소_41_1" data-name="구성 요소 41 – 1" xmlns="http://www.w3.org/2000/svg" width="28" height="28" viewBox="0 0 28 28">
  <path id="패스_7672" data-name="패스 7672" d="M587.644-150.074l-5.077-5.075a8.652,8.652,0,0,0,1.829-5.318,8.717,8.717,0,0,0-8.708-8.7,8.717,8.717,0,0,0-8.708,8.7,8.716,8.716,0,0,0,8.708,8.7,8.654,8.654,0,0,0,5.126-1.684l5.1,5.1Zm-18.219-10.393a6.27,6.27,0,0,1,6.264-6.262,6.27,6.27,0,0,1,6.264,6.262,6.27,6.27,0,0,1-6.264,6.262A6.269,6.269,0,0,1,569.425-160.467Z" transform="translate(-562.981 173.172)" fill="#acacac"/>
  <path id="패스_7671" data-name="패스 7671" d="M558.333-177.664h28v28h-28Z" transform="translate(-558.333 177.664)" fill="none" opacity="0.5"/>
</svg>
