<svg id="구성_요소_20_2" data-name="구성 요소 20 – 2" xmlns="http://www.w3.org/2000/svg" xmlns:xlink="http://www.w3.org/1999/xlink" width="28" height="28" viewBox="0 0 28 28">
  <defs>
    <linearGradient id="linear-gradient" x1="-0.216" y1="-0.259" x2="1.279" y2="1.291" gradientUnits="objectBoundingBox">
      <stop offset="0" stop-color="#9fa9ff"/>
      <stop offset="1" stop-color="#15afff"/>
    </linearGradient>
  </defs>
  <path id="아이콘ᄎ_종-01" data-name="아이콘최종-01" d="M187.526,194.334a6.1,6.1,0,0,0,.526-1,6.454,6.454,0,0,0,.313-4.436,4.848,4.848,0,0,0-.309-.727l-.052-.1,0,0a5.056,5.056,0,0,0-1.9-1.923,5.359,5.359,0,0,0-3.384-.683,4.627,4.627,0,0,0-3,1.648,4.6,4.6,0,0,0-2.663-1.591c-.11-.022-.221-.041-.334-.056a5.357,5.357,0,0,0-3.384.683,5.146,5.146,0,0,0-1.04.794,4.93,4.93,0,0,0-1.217,1.953,6.456,6.456,0,0,0,.311,4.437c.714,1.777,2.75,3.68,5.107,5.883,1.037.97,2.11,1.973,3.152,3.041l.069.07.069-.07c1.013-1.04,2.073-2.031,3.1-2.989a30.585,30.585,0,0,0,4.611-4.9l.01-.015.011-.018ZM182,198.274c-.744.7-1.513,1.414-2.27,2.157-.78-.766-1.564-1.5-2.323-2.209-2.147-2.008-4.176-3.9-4.777-5.4a4.565,4.565,0,0,1,.112-4.311,3.963,3.963,0,0,1,3.307-1.735,3.4,3.4,0,0,1,2.727,1.284l.954,1.207.954-1.207a3.4,3.4,0,0,1,2.727-1.284,3.963,3.963,0,0,1,3.307,1.735,4.567,4.567,0,0,1,.112,4.312c-.6,1.5-2.656,3.422-4.83,5.455Z" transform="translate(-165.826 -180.419)" fill="url(#linear-gradient)"/>
  <rect id="사각형_25079" data-name="사각형 25079" width="28" height="28" fill="none" opacity="0.5"/>
</svg>
