<svg xmlns="http://www.w3.org/2000/svg" width="28" height="28" viewBox="0 0 28 28">
  <g id="그룹_20806" data-name="그룹 20806" transform="translate(-358 -320)">
    <g id="그룹_20787" data-name="그룹 20787">
      <g id="알림" transform="translate(358 320)">
        <g id="그룹_18939" data-name="그룹 18939" transform="translate(8.72 5.343)">
          <g id="그룹_18922" data-name="그룹 18922" transform="translate(0.001)">
            <path id="패스_7758" data-name="패스 7758" d="M177.431,183.368H172.02s1.483-1.675,1.483-2.514v-4.074a4.4,4.4,0,0,1,.838-2.629,3.959,3.959,0,0,1,2.6-1.264c.139,0,.3-.006.49-.008" transform="translate(-172.02 -170.889)" fill="none" stroke="#acacac" stroke-linecap="round" stroke-linejoin="round" stroke-width="1.3"/>
            <path id="패스_7759" data-name="패스 7759" d="M221,183.368h5.411s-1.483-1.675-1.483-2.514v-4.074a4.4,4.4,0,0,0-.838-2.629,3.959,3.959,0,0,0-2.6-1.264c-.139,0-.3-.006-.49-.008" transform="translate(-215.356 -170.889)" fill="none" stroke="#acacac" stroke-linecap="round" stroke-linejoin="round" stroke-width="1.3"/>
            <path id="패스_7760" data-name="패스 7760" d="M200.01,265.92a2.2,2.2,0,0,0,2.185,2.13,2.367,2.367,0,0,0,2.314-2.13" transform="translate(-196.784 -253.211)" fill="none" stroke="#acacac" stroke-linecap="round" stroke-linejoin="round" stroke-width="1.3"/>
            <line id="선_86" data-name="선 86" y1="1.299" transform="translate(5.644)" fill="none" stroke="#acacac" stroke-linecap="round" stroke-linejoin="round" stroke-width="1.3"/>
          </g>
        </g>
        <rect id="사각형_24262" data-name="사각형 24262" width="28" height="28" fill="none" opacity="0.5"/>
      </g>
    </g>
  </g>
</svg>
