<svg id="좋아요" xmlns="http://www.w3.org/2000/svg" width="28" height="28" viewBox="0 0 28 28">
  <rect id="사각형_25078" data-name="사각형 25078" width="28" height="28" fill="none" opacity="0.5"/>
  <g id="그룹_20665" data-name="그룹 20665" transform="translate(-38.224 -508)">
    <g id="그룹_18710" data-name="그룹 18710" transform="translate(42.224 513)">
      <g id="패스_7719" data-name="패스 7719" transform="translate(0 0)" fill="none">
        <path d="M10,19C6.137,15.024,1.8,11.755.647,8.867-2.452,1.126,6.4-2.576,10,1.994c3.6-4.57,12.452-.868,9.353,6.873C18.2,11.755,13.784,15.106,10,19Z" stroke="none"/>
        <path d="M 10.00040435791016 17.01460647583008 C 10.85448360443115 16.17401504516602 11.71817874908447 15.36386489868164 12.56130504608154 14.5730152130127 C 15.0314245223999 12.2560453414917 17.36454391479492 10.06757545471191 18.05369567871094 8.346395492553711 C 18.83974456787109 6.382525444030762 18.7802848815918 4.642805576324463 17.88174438476562 3.315325736999512 C 17.08207511901855 2.133905649185181 15.66390514373779 1.399995684623718 14.18067455291748 1.399995684623718 C 12.93606472015381 1.399995684623718 11.84180450439453 1.91860568523407 11.09946441650391 2.860295534133911 L 10.00000476837158 4.255005836486816 L 8.900545120239258 2.860295534133911 C 8.158205032348633 1.91860568523407 7.063944816589355 1.399995684623718 5.819334983825684 1.399995684623718 C 4.336294651031494 1.399995684623718 2.918204784393311 2.133965730667114 2.118474721908569 3.315465688705444 C 1.219874739646912 4.643045425415039 1.160334825515747 6.382715702056885 1.946244716644287 8.346235275268555 C 2.633064746856689 10.06159591674805 4.938774585723877 12.22460556030273 7.379864692687988 14.51462554931641 C 8.240228652954102 15.32174015045166 9.12181282043457 16.14876556396484 10.00040435791016 17.01460647583008 M 10.00000476837158 18.99997520446777 C 6.136814594268799 15.02411556243896 1.803074717521667 11.75507545471191 0.6465547680854797 8.866625785827637 C -2.451695442199707 1.125914454460144 6.397844314575195 -2.575923204421997 10.00000476837158 1.993585586547852 C 13.60216331481934 -2.575924634933472 22.45170211791992 1.125915884971619 19.35344505310059 8.866625785827637 C 18.19693565368652 11.75507545471191 13.78378486633301 15.10584545135498 10.00000476837158 18.99997520446777 Z" stroke="none" fill="#acacac"/>
      </g>
    </g>
  </g>
</svg>
