<svg xmlns="http://www.w3.org/2000/svg" width="58.321" height="39.734" viewBox="0 0 58.321 39.734">
  <path id="수적천석-12" d="M60.1,36.98,50.85,15.65c-.4-.91-.71-1.88-1.04-2.83-.78-2.23-5.03-4.01-8.85-4.46a2.413,2.413,0,0,0-2.45,1.63c-1.21,2.93-3.9,3.11-6.84,3.11h0c-2.94,0-5.64-.18-6.84-3.11a2.413,2.413,0,0,0-2.45-1.63c-3.83.45-8.08,2.24-8.85,4.46-.33.95-.64,1.91-1.04,2.83L3.22,36.98C1.04,42,4.05,48.03,8.79,48.08H54.53c4.74-.05,7.74-6.08,5.57-11.1Z" transform="translate(-2.497 -8.346)" fill="#1dafff"/>
</svg>
