<svg id="구성_요소_40_36" data-name="구성 요소 40 – 36" xmlns="http://www.w3.org/2000/svg" width="28" height="28" viewBox="0 0 28 28">
  <rect id="사각형_25164" data-name="사각형 25164" width="28" height="28" fill="none" opacity="0.5"/>
  <g id="하루아이콘_sns코멘트끄기">
    <path id="패스_9085" data-name="패스 9085" d="M0,0V28H28V0Z" fill="none"/>
    <path id="패스_9086" data-name="패스 9086" d="M5.35,13.18A6.113,6.113,0,0,1,11.7,7.35h5.55l1.26-1.26c-.15-.01-.29-.04-.45-.04H11.69a7.4,7.4,0,0,0-7.65,7.13,7.328,7.328,0,0,0,2.29,5.08l.92-.92a6.065,6.065,0,0,1-1.91-4.16Z" fill="#1dafff"/>
    <path id="패스_9087" data-name="패스 9087" d="M23.74,15.88A7.864,7.864,0,0,0,22.12,8l-.91.91a4.3,4.3,0,0,1,.47.63,6.847,6.847,0,0,1,1.12,2.85,5.939,5.939,0,0,1-.29,3.04c-.78,2.05.03,4.21.56,5.63v.03c-.13-.05-.3-.11-.49-.18-.95-.36-2.25-.94-3.97-1.76l-.27-.13H11.09L9.94,20.17a7.633,7.633,0,0,0,1.73.15h6.37c11.82,5.63,4.02-.1,5.67-4.43ZM11.6,20.3h0Z" fill="#1dafff"/>
    <path id="패스_9088" data-name="패스 9088" d="M22.67,4.69a.652.652,0,0,0-.92,0L19.98,6.46,18.94,7.5,8.3,18.14l-.94.94L6.11,20.33a.658.658,0,0,0,0,.92.652.652,0,0,0,.92,0l1.53-1.53,1.01-1.01L20.23,8.05l.92-.92,1.52-1.52a.658.658,0,0,0,0-.92Z" fill="#1dafff"/>
  </g>
</svg>
