<svg xmlns="http://www.w3.org/2000/svg" xmlns:xlink="http://www.w3.org/1999/xlink" width="181.698" height="127.119" viewBox="0 0 181.698 127.119">
  <defs>
    <radialGradient id="radial-gradient" cx="0.5" cy="0.5" r="0.459" gradientTransform="translate(-0.105) scale(1.211 1)" gradientUnits="objectBoundingBox">
      <stop offset="0" stop-color="#aad7ff"/>
      <stop offset="1" stop-color="#d2d7ff"/>
    </radialGradient>
    <radialGradient id="radial-gradient-2" cx="0.5" cy="0.5" r="0.43" gradientTransform="translate(-0.22) scale(1.44 1)" xlink:href="#radial-gradient"/>
  </defs>
  <g id="그룹_21196" data-name="그룹 21196" transform="translate(1.016 1.024)">
    <g id="캐릭터_포즈4" transform="translate(0 0)">
      <path id="패스_9009" data-name="패스 9009" d="M239.891,152.414c-5.376,0-12.052-14.256-15.521-24.5,1.775.1,4.992.739,9.487,3.361,6.418,3.744,11.227,11.084,10.718,16.363a5.134,5.134,0,0,1-3.739,4.615,2.856,2.856,0,0,1-.945.166h0Z" transform="translate(-130.312 -120.566)" fill="url(#radial-gradient)"/>
      <path id="패스_9010" data-name="패스 9010" d="M221.223,128.378h0m4.054.435a25.533,25.533,0,0,1,5.989,2.645c6.4,3.733,10.266,10.62,9.876,14.714a3.43,3.43,0,0,1-2.6,3.16,1.124,1.124,0,0,1-.378.069c-.361,0-3.7-.332-9.224-11.874-1.489-3.109-2.748-6.246-3.664-8.714m-3.212-3.933a6.449,6.449,0,0,0-1.735.183s8.674,27.774,17.834,27.774a4.659,4.659,0,0,0,1.511-.258c9.693-3.4,3.8-17.966-6.681-24.086-5.233-3.057-8.932-3.613-10.935-3.613h0Z" transform="translate(-128.585 -119.271)" fill="#fff"/>
      <path id="패스_9011" data-name="패스 9011" d="M233,128.494c-8.233-4.8-12.664-3.429-12.664-3.429s9.653,30.905,19.346,27.516S243.488,134.614,233,128.494Z" transform="translate(-128.589 -119.271)" fill="none" stroke="#577aca" stroke-linecap="round" stroke-linejoin="round" stroke-width="2"/>
      <path id="패스_9012" data-name="패스 9012" d="M262.877,240.7l5.2-3.7L263,228.88s-8.605,4.048-5.743,8.1,5.628,3.721,5.628,3.721" transform="translate(-144.119 -163.727)" fill="#d2d7ff" stroke="#577aca" stroke-linecap="round" stroke-linejoin="round" stroke-width="2"/>
      <path id="패스_9013" data-name="패스 9013" d="M225.913,264.321s8.1.664,8.508-7.62c.4-7.867-4.62-8.319-4.62-8.319s-11.691-2.393-12.727,7.975,8.84,7.964,8.84,7.964Z" transform="translate(-127.16 -171.961)" fill="#fff" stroke="#577aca" stroke-linecap="round" stroke-linejoin="round" stroke-width="2"/>
      <path id="패스_9015" data-name="패스 9015" d="M280.569,279.436a6.666,6.666,0,0,1-4.019-1" transform="translate(-152.617 -184.912)" fill="none" stroke="#577aca" stroke-linecap="round" stroke-linejoin="round" stroke-width="2"/>
      <path id="패스_9016" data-name="패스 9016" d="M290.175,252.927s.212,4.844,0,7.2c-.275,3.006-.933,4.134-2.6,6.682l.865-1.346c.046.407.464,2.857.487,3.212.212,3.052-3.464,4.975-6.493,4.517-2.576-.389-3.389-1.105-3.83-1.523-2.548-2.41-3.544-9.533-3.544-9.533l.532,2.731a11.845,11.845,0,0,1-2.416,2.136c-3.218,2.084-7.861-.819-8.25-3.012a38.433,38.433,0,0,1,0-5.805,10.792,10.792,0,0,1-1.185-3.441c-.853-4.678,4.884-16.758,4.884-16.758l21.562,14.937Z" transform="translate(-147.102 -167.621)" fill="#d2d7ff" stroke="#577aca" stroke-linecap="round" stroke-linejoin="round" stroke-width="2"/>
      <path id="패스_9017" data-name="패스 9017" d="M336.507,283.73s-3.7-6.744-9.418-8.078c-4.575-1.071-8.611-1.174-11.222,1.443s-5.227-.177-5.227-.177" transform="translate(-167.189 -183.417)" fill="none" stroke="#577aca" stroke-linecap="round" stroke-linejoin="round" stroke-width="2"/>
      <path id="패스_9018" data-name="패스 9018" d="M356.631,286.105l1.62,3.063a.784.784,0,0,0,.59.4l3.618.492a.721.721,0,0,1,.435,1.248l-2.622,2.382a.7.7,0,0,0-.223.647l.618,3.367a.777.777,0,0,1-1.139.773l-3.241-1.592a.812.812,0,0,0-.727,0l-3.241,1.592a.775.775,0,0,1-1.139-.773l.618-3.367a.7.7,0,0,0-.223-.647l-2.622-2.382a.721.721,0,0,1,.435-1.248l3.618-.492a.774.774,0,0,0,.59-.4l1.62-3.063a.812.812,0,0,1,1.408,0Z" transform="translate(-183.466 -188.015)" fill="#aad7ff" stroke="#577aca" stroke-linecap="round" stroke-linejoin="round" stroke-width="2"/>
      <path id="패스_9019" data-name="패스 9019" d="M156.575,295.271s4.54,9.069,13.2,6.275,10.781-8.365,11.13-11.588a10.232,10.232,0,0,1,1.351-4.592h0c1.328,2.2,3.389,1.952,5.433.4a13.526,13.526,0,0,0,3.361-3.962,15.383,15.383,0,0,0,1.557-12.441,55.7,55.7,0,0,0-4.214-9.418l-49.3,3.292,17.479,32.033Z" transform="translate(-93.857 -177.004)" fill="#fff" stroke="#577aca" stroke-linecap="round" stroke-linejoin="round" stroke-width="2"/>
      <path id="패스_9020" data-name="패스 9020" d="M76.44,164.7c.418-7.975,1.271-23.646,23.606-39.012,13.947-9.6,34.266-14,51.957-7.6C177.235,127.23,179.96,153.5,180.378,164s-3.515,24.3-18.762,34.02a77.8,77.8,0,0,1-33.556,11.76L105.805,207.8c-10.4-3.429-12.659-9.361-12.659-9.361L76.446,164.7Z" transform="translate(-67.076 -115.082)" fill="#fff" stroke="#577aca" stroke-linecap="round" stroke-linejoin="round" stroke-width="2"/>
      <path id="패스_9021" data-name="패스 9021" d="M153.946,206.72s-6.653,2-8.5,7.054" transform="translate(-96.576 -154.254)" fill="none" stroke="#577aca" stroke-linecap="round" stroke-linejoin="round" stroke-width="2"/>
      <path id="패스_9024" data-name="패스 9024" d="M223.7,184.022s4.832-.9,7.414.9" transform="translate(-130.025 -144.456)" fill="none" stroke="#577aca" stroke-linecap="round" stroke-linejoin="round" stroke-width="2"/>
      <path id="패스_9025" data-name="패스 9025" d="M234.556,196.59s-6.017,1.8-6.556,5.9c0,0,4.729-3.3,6.556-2.949" transform="translate(-131.863 -149.924)" fill="none" stroke="#577aca" stroke-linecap="round" stroke-linejoin="round" stroke-width="2"/>
      <path id="패스_9026" data-name="패스 9026" d="M144.413,277.293a9.979,9.979,0,0,0-4.889-3.63c-4.62-1.437-12.487,0-12.487,0s-13.964,2.153-12.166,15.539,11.3,14.107,18.487,14.823,17.039-4.54,15.71-13.867c-.807-5.668-2.45-10.008-4.655-12.865" transform="translate(-83.436 -182.597)" fill="#fff" stroke="#577aca" stroke-linecap="round" stroke-linejoin="round" stroke-width="2"/>
      <path id="패스_9027" data-name="패스 9027" d="M274.256,220.531s-6.435-.6-13.678-15.934,4.506-27.069,11.1-31.409c5.794-3.813,17.382-4.752,23.336-3.275s15.544,8.273,20.119,20.9c4.62,12.768,3.2,26.543-14.806,32.72a21.462,21.462,0,0,1-10.62,1.1l-15.447-4.1Z" transform="translate(-144.815 -138.237)" fill="#d2d7ff" stroke="#577aca" stroke-linecap="round" stroke-linejoin="round" stroke-width="2"/>
      <path id="패스_9028" data-name="패스 9028" d="M280.712,183.79s-14.422,7.277-15.819,12.527,6.807,22.334,14.21,24.43,19.632-7.449,21.081-9.939S286.506,185.639,280.712,183.79Z" transform="translate(-147.567 -144.453)" fill="#fff" stroke="#577aca" stroke-linecap="round" stroke-linejoin="round" stroke-width="2"/>
      <line id="선_184" data-name="선 184" y2="4.38" transform="translate(131.153 44.897)" fill="none" stroke="#577aca" stroke-linecap="round" stroke-linejoin="round" stroke-width="2"/>
      <g id="그룹_21184" data-name="그룹 21184" transform="translate(54.084 49.314)">
        <path id="패스_9022" data-name="패스 9022" d="M160.642,214.872c2.754-.332,3.389,6.83,1.334,8.7s-4.826,2.433-6.624.567-.143-5.823.813-6.979C157.327,215.753,158.077,215.181,160.642,214.872Z" transform="translate(-154.55 -207.048)" fill="#577aca"/>
        <path id="패스_9023" data-name="패스 9023" d="M205.623,232.839a3.441,3.441,0,0,1,3.882-2.588c1.683.4,1.059,1.735-.55,2.851s-3.59,1.431-3.332-.269Z" transform="translate(-176.373 -213.599)" fill="#577aca"/>
        <ellipse id="타원_633" data-name="타원 633" cx="3.189" cy="2.25" rx="3.189" ry="2.25" transform="translate(69.007 4.51) rotate(-45)" fill="#577aca" stroke="#577aca" stroke-width="1"/>
        <ellipse id="타원_634" data-name="타원 634" cx="3.189" cy="2.25" rx="3.189" ry="2.25" transform="translate(79.51 17.291) rotate(-45)" fill="#577aca" stroke="#577aca" stroke-width="1"/>
      </g>
      <path id="패스_9029" data-name="패스 9029" d="M275.42,223.22s4.374,3.229,5.834,1.981" transform="translate(-152.134 -161.308)" fill="none" stroke="#577aca" stroke-linecap="round" stroke-linejoin="round" stroke-width="2"/>
      <path id="패스_9030" data-name="패스 9030" d="M291.894,250.429s-5.88.9-5.124,6.544,4.758,5.943,7.786,6.246,7.18-1.912,6.618-5.84-2.073-6.344-4.019-6.951A14.168,14.168,0,0,0,291.894,250.429Z" transform="translate(-156.957 -172.823)" fill="#d2d7ff" stroke="#577aca" stroke-linecap="round" stroke-linejoin="round" stroke-width="2"/>
      <path id="패스_9031" data-name="패스 9031" d="M77.248,235.546a18.014,18.014,0,0,1-3.429-.349,12.4,12.4,0,0,1-8.473-5.445c-2.37-3.71-2.868-9.035-1.408-14.983.813-3.326,4.271-8.662,9.733-15.029a2.229,2.229,0,0,1,1.718-.79,2.261,2.261,0,0,1,1.66.716c5.055,5.342,10.7,13.964,11.4,22.169.372,4.368-.618,7.964-2.857,10.4a10.946,10.946,0,0,1-8.336,3.309h0Z" transform="translate(-61.381 -150.933)" fill="url(#radial-gradient-2)"/>
      <path id="패스_9032" data-name="패스 9032" d="M74.087,199.385a.557.557,0,0,1,.412.178c4.632,4.9,10.271,13.363,10.935,21.132.326,3.876-.5,7.019-2.41,9.1a9.292,9.292,0,0,1-7.071,2.754,16.491,16.491,0,0,1-3.1-.315,10.759,10.759,0,0,1-7.357-4.683c-2.113-3.309-2.536-8.159-1.191-13.649.744-3.023,4.157-8.244,9.367-14.319a.538.538,0,0,1,.412-.189m0-3.435a3.975,3.975,0,0,0-3.023,1.386c-3.424,3.991-8.926,10.953-10.1,15.733C58.2,224.319,61.995,233.6,72.18,235.6a19.416,19.416,0,0,0,3.762.384c8.187,0,13.735-5.805,12.9-15.573-.7-8.267-6.206-17.233-11.863-23.2a3.988,3.988,0,0,0-2.908-1.254h0Z" transform="translate(-60.086 -149.651)" fill="#fff"/>
      <path id="패스_9033" data-name="패스 9033" d="M77,197.2a3.985,3.985,0,0,0-5.926.137c-3.424,3.991-8.926,10.953-10.1,15.733C58.219,224.32,62.015,233.6,72.2,235.6s17.617-3.991,16.666-15.189c-.7-8.267-6.206-17.233-11.863-23.2Z" transform="translate(-60.094 -149.651)" fill="none" stroke="#577aca" stroke-linecap="round" stroke-linejoin="round" stroke-width="2"/>
      <path id="패스_9014" data-name="패스 9014" d="M217.507,297.65a23.644,23.644,0,0,1-3.017,3.836" transform="translate(-126.088 -193.124)" fill="#fff" stroke="#577aca" stroke-linecap="round" stroke-linejoin="round" stroke-width="2"/>
    </g>
  </g>
</svg>
