<?xml version="1.0" encoding="UTF-8"?>
<svg id="_레이어_5" data-name="레이어 5" xmlns="http://www.w3.org/2000/svg" viewBox="0 0 621.72 304.12">
  <path d="m482.48,106.15c-1.79-1.92-4.13-2.88-7.01-2.88s-5.19.96-6.91,2.88c-1.72,1.92-2.58,4.84-2.58,8.76v46.98c0,8.1-1.55,14.14-4.65,18.13-3.1,3.99-8.4,5.98-15.9,5.98-5.43,0-9.65-.98-12.67-2.94-3.02-1.96-5.12-4.72-6.3-8.27-1.19-3.55-1.78-7.98-1.78-13.28v-46.59c0-3.88-.87-6.79-2.62-8.72-1.74-1.94-4.1-2.91-7.08-2.91s-5.14.97-6.88,2.91c-1.74,1.94-2.62,4.85-2.62,8.72v45.56c0,7.15.78,13.3,2.33,18.45,1.55,5.15,3.98,9.37,7.3,12.67,3.32,3.29,7.6,5.73,12.86,7.3,5.26,1.57,11.52,2.36,18.8,2.36,6.12,0,11.46-.73,16.03-2.2,4.57-1.46,8.57-3.79,12.02-6.98,4.01-3.75,6.73-8.1,8.17-13.05,1.44-4.95,2.17-11.14,2.17-18.55v-45.56c0-3.92-.89-6.84-2.68-8.76Z"/>
  <path d="m215.08,106.15c-1.79-1.92-4.13-2.88-7.01-2.88s-5.14.97-6.88,2.91-2.62,4.85-2.62,8.72v27.14h-41.42v-27.14c0-3.92-.89-6.84-2.68-8.76-1.79-1.92-4.13-2.88-7.01-2.88s-5.25.97-6.95,2.91c-1.7,1.94-2.55,4.85-2.55,8.72v74.64c0,3.88.86,6.8,2.58,8.76,1.72,1.96,4.03,2.94,6.91,2.94s5.17-.97,6.98-2.91c1.81-1.94,2.71-4.87,2.71-8.79v-31.73h41.42v31.73c0,3.88.86,6.8,2.58,8.76,1.72,1.96,4.03,2.94,6.91,2.94s5.17-.97,6.98-2.91c1.81-1.94,2.71-4.87,2.71-8.79v-74.64c0-3.92-.89-6.84-2.68-8.76Z"/>
  <path d="m397.05,184.92c-1.36-3.21-3.25-6.81-5.69-10.79-2.43-3.98-5.2-7.74-8.3-11.28-3.1-3.53-4.86-5.05-7.45-7.93,8.1-1.77,11.84-4.85,15.82-9.07,3.98-4.22,5.98-7.87,5.98-14.93,0-3.45-.59-6.71-1.78-9.79-1.19-3.08-2.92-5.78-5.2-8.11-2.28-2.33-4.91-4.11-7.88-5.36-2.46-1.12-5.21-1.86-8.27-2.23-3.06-.37-6.74-.55-11.05-.55h-31.21c-4.14,0-7.13.93-8.98,2.78-1.85,1.85-2.78,4.85-2.78,8.98v72.89c0,3.83.84,6.74,2.52,8.72,1.68,1.98,4.05,2.97,7.11,2.97,2.84,0,5.15-.95,6.91-2.84,1.77-1.9,2.65-4.85,2.65-8.85v-31.73h13.1c.74.18,1.44.4,2.08.65,2.24.91,4.45,2.58,6.62,5.04,2.17,2.46,4.64,6.03,7.4,10.73l7.69,12.79c1.81,3.02,3.24,5.3,4.3,6.85,1.06,1.55,2.32,2.83,3.78,3.84,1.46,1.01,3.27,1.52,5.43,1.52,1.81,0,3.4-.36,4.78-1.07,1.38-.71,2.47-1.68,3.26-2.91.8-1.23,1.2-2.47,1.2-3.72s-.68-3.41-2.04-6.62Zm-28.64-42.82h-28.96v-22.81h17.71c6.59,0,11.01.47,13.25,1.42,2.37.99,4.22,2.49,5.56,4.49,1.33,2,2,3.26,2,5.89,0,3.36-.83,5.06-2.49,6.98-1.63,1.89-3.99,3.23-7.06,4.03Z"/>
  <path d="m276.62,105.56l-.15-.14c-4.21-3.86-10.67-3.87-14.9-.03l-.51.46c-4.43,4.03-14.76,13.42-24.54,30.03-2.17,3.69,1.56,7.78,5.6,6.36,3.55-1.24,6.91-2.04,10.63-3.48,2.34-.91,4.61-2.01,6.11-4.02,3.76-5.03,7.31-8.87,10.12-11.65,21.88,21.29,25.29,35.44,25.29,42.19,0,4.65-1.24,11.39-12.12,15.78-8.88,3.58-18.93,3.39-27.66-.57-6.89-3.13-8.03-6.61-7.59-10.06.21-.89.65-1.75,1.31-2.49,2.39-2.67,7.06-5.85,15.69-5.88,4.4-.02,8.32-3.17,9.02-7.52.9-5.63-3.42-10.48-8.88-10.48-15.36,0-24.37,6.45-29.22,11.86-3.98,4.44-6.13,10.09-6.06,15.92.09,7.3,2.86,13.63,8.02,18.28.12.11.24.2.37.3,2.97,2.77,6.72,5.14,11.21,7.03,6.56,2.76,13.6,4.14,20.64,4.14s14.08-1.38,20.64-4.14c14.61-6.15,22.65-17.58,22.65-32.17,0-18.04-12-38.14-35.67-59.73Z"/>
</svg>