<svg xmlns="http://www.w3.org/2000/svg" width="16" height="16" viewBox="0 0 16 16">
  <g id="그룹_20360" data-name="그룹 20360" transform="translate(-15086 -744)">
    <g id="그룹_18941" data-name="그룹 18941" transform="translate(0.894)">
      <g id="그룹_18924" data-name="그룹 18924" transform="translate(15090.106 748.596)">
        <g id="나ᄋ_하루_아이콘-06" data-name="나의하루 아이콘-06" transform="translate(0 0)">
          <path id="패스_7756" data-name="패스 7756" d="M177.11,175.226v4.755a.816.816,0,0,0,.816.816h1.739a.816.816,0,0,0,.623-.289l2.638-3.124a.814.814,0,0,0,.193-.527v-1.632a.817.817,0,0,0-.816-.816h-4.378A.816.816,0,0,0,177.11,175.226Z" transform="translate(-177.11 -174.41)" fill="none" stroke="#767676" stroke-width="0.7"/>
          <path id="패스_7757" data-name="패스 7757" d="M219,218.507v-3.2a.347.347,0,0,1,.347-.347h2.648" transform="translate(-216.065 -212.119)" fill="none" stroke="#767676" stroke-width="0.7"/>
        </g>
      </g>
    </g>
    <rect id="사각형_24264" data-name="사각형 24264" width="16" height="16" transform="translate(15086 744)" fill="none" opacity="0.5"/>
  </g>
</svg>
