<svg id="추가버튼" xmlns="http://www.w3.org/2000/svg" xmlns:xlink="http://www.w3.org/1999/xlink" width="56" height="56" viewBox="0 0 56 56">
  <defs>
    <linearGradient id="linear-gradient" x2="0.854" y2="0.898" gradientUnits="objectBoundingBox">
      <stop offset="0" stop-color="#d2d7ff"/>
      <stop offset="1" stop-color="#aad7ff"/>
    </linearGradient>
  </defs>
  <g id="그룹_18815" data-name="그룹 18815" transform="translate(-11926 -1082)">
    <circle id="타원_58" data-name="타원 58" cx="28" cy="28" r="28" transform="translate(11926 1082)" fill="url(#linear-gradient)"/>
    <text id="할일" transform="translate(11934 1114)" fill="#fdfdfd" font-size="12" font-family="Pretendard Variable"><tspan x="9.629" y="11">할일</tspan></text>
    <g id="그룹_21301" data-name="그룹 21301" transform="translate(11760 389)">
      <g id="그룹_21298" data-name="그룹 21298" transform="translate(183 701)">
        <g id="그룹_20566" data-name="그룹 20566">
          <rect id="사각형_25111" data-name="사각형 25111" width="22" height="22" fill="none"/>
          <path id="합치기_10" data-name="합치기 10" d="M8,16a8,8,0,1,1,8-8,8.01,8.01,0,0,1-8,8ZM1.454,8A6.546,6.546,0,1,0,14.129,5.7L7.582,11.193a1,1,0,0,1-.31.176.738.738,0,0,1-.186.238.727.727,0,0,1-1.024-.09L3.257,8.176A.727.727,0,1,1,4.371,7.24L6.71,10.026l6.738-5.653A6.545,6.545,0,0,0,1.454,8Z" transform="translate(2.999 2.999)" fill="#fdfdfd"/>
        </g>
      </g>
    </g>
  </g>
</svg>
