<svg xmlns="http://www.w3.org/2000/svg" xmlns:xlink="http://www.w3.org/1999/xlink" width="30" height="30" viewBox="0 0 30 30">
  <defs>
    <linearGradient id="linear-gradient" y1="0.053" x2="0.937" y2="1" gradientUnits="objectBoundingBox">
      <stop offset="0" stop-color="#d2d7ff"/>
      <stop offset="1" stop-color="#aad7ff"/>
    </linearGradient>
  </defs>
  <g id="그룹_20766" data-name="그룹 20766" transform="translate(-212 -228)">
    <circle id="타원_392" data-name="타원 392" cx="15" cy="15" r="15" transform="translate(212 228)" fill="url(#linear-gradient)"/>
    <g id="구성_요소_32_12" data-name="구성 요소 32 – 12" transform="translate(217 233)">
      <rect id="사각형_25170" data-name="사각형 25170" width="20" height="20" fill="none" opacity="0.5"/>
      <g id="레이어_4" transform="translate(-87.5 -108.77)">
        <g id="그룹_20598" data-name="그룹 20598" transform="translate(88.5 110.77)">
          <path id="패스_7843" data-name="패스 7843" d="M103.834,112.946h-.387v-1.573a.6.6,0,0,0-.6-.6H97.951a.6.6,0,0,0-.6.6v1.573H90.794A2.3,2.3,0,0,0,88.5,115.24v7.88a2.3,2.3,0,0,0,2.294,2.294h13.041a2.3,2.3,0,0,0,2.294-2.294v-7.88A2.3,2.3,0,0,0,103.834,112.946Zm-5.28-.971h3.686v.735H98.554Zm6.368,11.144a1.089,1.089,0,0,1-1.087,1.087H90.794a1.089,1.089,0,0,1-1.087-1.087v-7.88a1.089,1.089,0,0,1,1.087-1.087h13.041a1.089,1.089,0,0,1,1.087,1.087Z" transform="translate(-88.5 -110.77)" fill="#f8f8fa"/>
          <path id="패스_7844" data-name="패스 7844" d="M182.756,172.74A4.256,4.256,0,1,0,187.012,177,4.261,4.261,0,0,0,182.756,172.74Zm0,7.306a3.05,3.05,0,1,1,3.05-3.05A3.053,3.053,0,0,1,182.756,180.046Z" transform="translate(-172.468 -168.586)" fill="#f8f8fa"/>
        </g>
      </g>
    </g>
  </g>
</svg>
