<svg id="구성_요소_40_31" data-name="구성 요소 40 – 31" xmlns="http://www.w3.org/2000/svg" width="28" height="28" viewBox="0 0 28 28">
  <rect id="사각형_25164" data-name="사각형 25164" width="28" height="28" fill="none" opacity="0.5"/>
  <g id="패스_7720" data-name="패스 7720" transform="translate(4 6)" fill="none">
    <path d="M7.647,0h6.372c4.223,0,7.326,5.485,5.675,9.819s6.144,10.058-5.675,4.432H7.647A7.4,7.4,0,0,1,0,7.126,7.4,7.4,0,0,1,7.647,0Z" stroke="none"/>
    <path d="M 7.646638870239258 1.299997329711914 C 4.147089004516602 1.299997329711914 1.299999237060547 3.91331672668457 1.299999237060547 7.125527381896973 C 1.299999237060547 10.33772754669189 4.147089004516602 12.95104694366455 7.646638870239258 12.95104694366455 L 14.31242942810059 12.95104694366455 L 14.57751941680908 13.07720756530762 C 16.30154037475586 13.89772701263428 17.60131072998047 14.47289657592773 18.55107879638672 14.8355770111084 C 18.73931694030762 14.90745735168457 18.90650367736816 14.96806526184082 19.05486679077148 15.01920318603516 C 19.05080413818359 15.00839614868164 19.04676818847656 14.9976634979248 19.04277992248535 14.98705673217773 C 18.50703048706055 13.56230735778809 17.69738960266113 11.40920734405518 18.47919845581055 9.356197357177734 C 18.83169937133789 8.430526733398438 18.93167877197266 7.3807373046875 18.76832008361816 6.320317268371582 C 18.61063003540039 5.296677589416504 18.22052001953125 4.310546875 17.64015960693359 3.468517303466797 C 16.69028854370117 2.090396881103516 15.37037944793701 1.299997329711914 14.01884937286377 1.299997329711914 L 7.646638870239258 1.299997329711914 M 7.646638870239258 -1.9073486328125e-06 L 14.01884937286377 -1.9073486328125e-06 C 18.24197959899902 -1.9073486328125e-06 21.34438896179199 5.485177040100098 19.69408988952637 9.81883716583252 C 18.04379081726074 14.15249824523926 25.83853912353516 19.87643814086914 14.01884937286377 14.25104713439941 L 7.646638870239258 14.25104713439941 C 3.423519134521484 14.25104713439941 0 11.06084728240967 0 7.125527381896973 C 0 3.190206527709961 3.423519134521484 -1.9073486328125e-06 7.646638870239258 -1.9073486328125e-06 Z" stroke="none" fill="#acacac"/>
  </g>
  <g id="그룹_20909" data-name="그룹 20909" transform="translate(-1201 -215)">
    <g id="타원_406" data-name="타원 406" transform="translate(1210 227)" fill="#fff" stroke="#acacac" stroke-width="1">
      <circle cx="1" cy="1" r="1" stroke="none"/>
      <circle cx="1" cy="1" r="0.5" fill="none"/>
    </g>
    <g id="타원_408" data-name="타원 408" transform="translate(1214 227)" fill="#fff" stroke="#acacac" stroke-width="1">
      <circle cx="1" cy="1" r="1" stroke="none"/>
      <circle cx="1" cy="1" r="0.5" fill="none"/>
    </g>
    <g id="타원_409" data-name="타원 409" transform="translate(1218 227)" fill="#fff" stroke="#acacac" stroke-width="1">
      <circle cx="1" cy="1" r="1" stroke="none"/>
      <circle cx="1" cy="1" r="0.5" fill="none"/>
    </g>
  </g>
</svg>
