<svg id="구성_요소_25_221" data-name="구성 요소 25 – 221" xmlns="http://www.w3.org/2000/svg" xmlns:xlink="http://www.w3.org/1999/xlink" width="28" height="28" viewBox="0 0 28 28">
  <defs>
    <linearGradient id="linear-gradient" x1="-0.151" y1="-0.159" x2="1.173" y2="1.165" gradientUnits="objectBoundingBox">
      <stop offset="0" stop-color="#9fa9ff"/>
      <stop offset="1" stop-color="#15afff"/>
    </linearGradient>
    <linearGradient id="linear-gradient-2" x1="-0.098" y1="-0.086" x2="1.1" y2="1.1" gradientUnits="objectBoundingBox">
      <stop offset="0" stop-color="#9ea9ff"/>
      <stop offset="1" stop-color="#1dafff"/>
    </linearGradient>
  </defs>
  <g id="그룹_20567" data-name="그룹 20567" transform="translate(-19900 3400)">
    <g id="그룹_20566" data-name="그룹 20566">
      <rect id="사각형_25111" data-name="사각형 25111" width="28" height="28" transform="translate(19900 -3400)" fill="none"/>
      <path id="합치기_10" data-name="합치기 10" d="M8.332,15.836l-3.855-4.6A1,1,0,0,1,6.008,9.953l3.215,3.832,10.727-9,1.285,1.53-11.1,9.314a1.014,1.014,0,0,1-.219.14,1.053,1.053,0,0,1-.174.19,1,1,0,0,1-1.41-.124Z" transform="translate(19903 -3397)" fill="url(#linear-gradient)"/>
    </g>
  </g>
  <g id="그룹_20565" data-name="그룹 20565" transform="translate(-19936 3424)">
    <rect id="사각형_25112" data-name="사각형 25112" width="28" height="28" transform="translate(19936 -3424)" fill="none"/>
  </g>
  <g id="그룹_21406" data-name="그룹 21406" transform="translate(-61 -734)">
    <path id="제외_2" data-name="제외 2" d="M-11671-2995a11.927,11.927,0,0,1-8.486-3.514A11.917,11.917,0,0,1-11683-3007a11.922,11.922,0,0,1,3.515-8.487A11.925,11.925,0,0,1-11671-3019a11.922,11.922,0,0,1,8.485,3.514A11.923,11.923,0,0,1-11659-3007a11.918,11.918,0,0,1-3.516,8.484A11.923,11.923,0,0,1-11671-2995Zm0-22a10.012,10.012,0,0,0-10,10,10.011,10.011,0,0,0,10,10,10.011,10.011,0,0,0,10-10A10.012,10.012,0,0,0-11671-3017Z" transform="translate(11746 3755)" fill="url(#linear-gradient-2)"/>
  </g>
</svg>
