<svg id="구성_요소_25_2" data-name="구성 요소 25 – 2" xmlns="http://www.w3.org/2000/svg" width="28" height="28" viewBox="0 0 28 28">
  <g id="그룹_20379" data-name="그룹 20379" transform="translate(-266 -2714)">
    <g id="다각형_34" data-name="다각형 34" transform="translate(269 2718)" fill="none">
      <path d="M9.641,2.9a1.5,1.5,0,0,1,2.717,0l1.591,3.4a1.5,1.5,0,0,0,1.171.852l3.721.47a1.5,1.5,0,0,1,.84,2.58l-2.743,2.582a1.5,1.5,0,0,0-.445,1.373l.706,3.7A1.5,1.5,0,0,1,15,19.454l-3.275-1.81a1.5,1.5,0,0,0-1.451,0L7,19.454A1.5,1.5,0,0,1,4.8,17.86l.706-3.7a1.5,1.5,0,0,0-.445-1.373L2.318,10.2a1.5,1.5,0,0,1,.84-2.58l3.721-.47A1.5,1.5,0,0,0,8.051,6.3Z" stroke="none"/>
      <path d="M 11 3.338144302368164 C 10.87279033660889 3.338144302368164 10.83360958099365 3.421855926513672 10.81886005401611 3.453365325927734 L 9.227899551391602 6.85213565826416 C 8.818220138549805 7.72734546661377 8.001239776611328 8.322085380554199 7.04246997833252 8.443055152893066 L 3.320989608764648 8.912585258483887 C 3.286569595336914 8.916934967041016 3.195140838623047 8.928464889526367 3.155860900878906 9.04908561706543 C 3.116579055786133 9.169694900512695 3.183679580688477 9.232865333557129 3.208940505981445 9.256645202636719 L 5.952009201049805 11.83883476257324 C 6.652790069580078 12.49851512908936 6.963529586791992 13.45675563812256 6.78324031829834 14.40212535858154 L 6.077360153198242 18.10372543334961 C 6.064789772033691 18.1696662902832 6.075530052185059 18.21727561950684 6.113300323486328 18.26292419433594 C 6.154500007629395 18.31272506713867 6.217619895935059 18.34489440917969 6.274109840393066 18.34489440917969 C 6.304109573364258 18.34489440917969 6.335659980773926 18.33552551269531 6.370550155639648 18.31624603271484 L 9.645779609680176 16.50644493103027 C 10.05928993225098 16.2779541015625 10.52756977081299 16.15717506408691 11 16.15717506408691 C 11.47243022918701 16.15717506408691 11.94071006774902 16.2779541015625 12.35420989990234 16.50644493103027 L 15.62944030761719 18.31623458862305 C 15.66434001922607 18.33552551269531 15.69589042663574 18.34489440917969 15.72589015960693 18.34489440917969 C 15.78234004974365 18.34489440917969 15.84544944763184 18.31270599365234 15.88667011260986 18.26288604736328 C 15.9244499206543 18.21722602844238 15.93521022796631 18.16962432861328 15.92263984680176 18.10373497009277 L 15.21676063537598 14.40213584899902 C 15.03647041320801 13.45675563812256 15.34720993041992 12.49851512908936 16.04798889160156 11.83883476257324 L 18.79105949401855 9.256645202636719 C 18.81632041931152 9.232865333557129 18.88343048095703 9.169694900512695 18.84413909912109 9.049075126647949 C 18.80485916137695 8.928464889526367 18.71343040466309 8.916934967041016 18.67901039123535 8.912585258483887 L 14.95751953125 8.443055152893066 C 13.99876022338867 8.322085380554199 13.1817798614502 7.72734546661377 12.77210998535156 6.852145195007324 L 11.18113994598389 3.453365325927734 C 11.16639041900635 3.421855926513672 11.12720966339111 3.338144302368164 11 3.338144302368164 M 11 2.038150787353516 C 11.54444026947021 2.038150787353516 12.08887958526611 2.326175689697266 12.35853004455566 2.902225494384766 L 13.94950008392334 6.301005363464355 C 14.16769027709961 6.767135620117188 14.6096305847168 7.088854789733887 15.12026023864746 7.153285026550293 L 18.84173965454102 7.622815132141113 C 20.10025978088379 7.781595230102539 20.60576057434082 9.333755493164062 19.68211936950684 10.20322513580322 L 16.93905067443848 12.78541564941406 C 16.56563949584961 13.13692474365234 16.39768028259277 13.65484523773193 16.49374961853027 14.15860557556152 L 17.19963073730469 17.86021423339844 C 17.43766021728516 19.10843467712402 16.1129207611084 20.06866645812988 15.00070953369141 19.4540843963623 L 11.7254695892334 17.64428520202637 C 11.27399063110352 17.39480590820312 10.72600936889648 17.39480590820312 10.2745304107666 17.64428520202637 L 6.999290466308594 19.4540843963623 C 5.887077331542969 20.06866455078125 4.562341690063477 19.10843467712402 4.800369262695312 17.86021423339844 L 5.506250381469727 14.15860557556152 C 5.602319717407227 13.65484523773193 5.434360504150391 13.13692474365234 5.060949325561523 12.78541564941406 L 2.317880630493164 10.20322513580322 C 1.39423942565918 9.333755493164062 1.899740219116211 7.781604766845703 3.158260345458984 7.622815132141113 L 6.879739761352539 7.153285026550293 C 7.39037036895752 7.088854789733887 7.832309722900391 6.767135620117188 8.05049991607666 6.301005363464355 L 9.641469955444336 2.902225494384766 C 9.911120414733887 2.326175689697266 10.45555973052979 2.038150787353516 11 2.038150787353516 Z" stroke="none" fill="#707070"/>
    </g>
  </g>
  <rect id="사각형_25051" data-name="사각형 25051" width="28" height="28" fill="none" opacity="0.5"/>
</svg>
